<svg width="21" height="21" viewBox="0 0 21 21" fill="none" xmlns="http://www.w3.org/2000/svg">
<path d="M10.3606 2.12891C8.6956 2.12891 7.06803 2.62262 5.68367 3.54762C4.29931 4.47262 3.22033 5.78736 2.58318 7.32558C1.94603 8.8638 1.77932 10.5564 2.10414 12.1894C2.42896 13.8223 3.23071 15.3223 4.40801 16.4996C5.58531 17.6769 7.08529 18.4787 8.71825 18.8035C10.3512 19.1283 12.0438 18.9616 13.5821 18.3245C15.1203 17.6873 16.435 16.6083 17.36 15.224C18.285 13.8396 18.7787 12.212 18.7787 10.5471C18.7764 8.31516 17.8887 6.17534 16.3105 4.59713C14.7323 3.01893 12.5925 2.13126 10.3606 2.12891ZM10.3606 17.6701C8.95175 17.6701 7.57457 17.2524 6.40319 16.4697C5.23181 15.687 4.31883 14.5745 3.7797 13.273C3.24057 11.9714 3.09951 10.5392 3.37436 9.15743C3.6492 7.7757 4.32761 6.50649 5.32379 5.51031C6.31997 4.51413 7.58918 3.83572 8.97092 3.56088C10.3527 3.28603 11.7849 3.42709 13.0864 3.96622C14.388 4.50535 15.5005 5.41833 16.2832 6.58971C17.0659 7.76109 17.4836 9.13827 17.4836 10.5471C17.4815 12.4356 16.7303 14.2461 15.395 15.5815C14.0596 16.9168 12.2491 17.668 10.3606 17.6701ZM11.6557 14.4324C11.6557 14.6041 11.5874 14.7688 11.466 14.8903C11.3446 15.0117 11.1798 15.0799 11.0081 15.0799C10.6646 15.0799 10.3352 14.9435 10.0923 14.7006C9.84945 14.4577 9.71301 14.1283 9.71301 13.7848V10.5471C9.54126 10.5471 9.37656 10.4789 9.25512 10.3574C9.13368 10.236 9.06545 10.0713 9.06545 9.89952C9.06545 9.72778 9.13368 9.56308 9.25512 9.44164C9.37656 9.3202 9.54126 9.25197 9.71301 9.25197C10.0565 9.25197 10.3859 9.38842 10.6288 9.6313C10.8717 9.87418 11.0081 10.2036 11.0081 10.5471V13.7848C11.1798 13.7848 11.3446 13.8531 11.466 13.9745C11.5874 14.0959 11.6557 14.2606 11.6557 14.4324ZM9.06545 6.98554C9.06545 6.79343 9.12242 6.60564 9.22915 6.4459C9.33588 6.28617 9.48758 6.16167 9.66507 6.08815C9.84256 6.01464 10.0379 5.9954 10.2263 6.03288C10.4147 6.07036 10.5878 6.16287 10.7236 6.29871C10.8595 6.43455 10.952 6.60763 10.9894 6.79605C11.0269 6.98447 11.0077 7.17977 10.9342 7.35725C10.8607 7.53474 10.7362 7.68644 10.5764 7.79317C10.4167 7.8999 10.2289 7.95687 10.0368 7.95687C9.77917 7.95687 9.53211 7.85453 9.34995 7.67238C9.16779 7.49022 9.06545 7.24316 9.06545 6.98554Z" fill="black"/>
</svg>
