<svg width="18" height="18" viewBox="0 0 18 18" fill="none" xmlns="http://www.w3.org/2000/svg">
<g clip-path="url(#clip0_5123_8611)">
<path d="M14.7171 11.2529L13.9214 9.92475C13.6365 9.44988 13.4868 8.9066 13.4868 8.3533V6.4632C13.4868 3.78954 11.3096 1.61377 8.63376 1.61377C5.95793 1.61377 3.78071 3.78882 3.78071 6.4632V8.3533C3.78071 8.9066 3.63033 9.44988 3.34613 9.92475L2.55037 11.2529C2.27336 11.7141 2.26689 12.2696 2.53166 12.7372C2.79716 13.2064 3.27706 13.4862 3.81597 13.4862H6.67959C6.67383 13.5467 6.65584 13.605 6.65584 13.6661C6.65584 14.7576 7.54299 15.6448 8.63447 15.6448C9.72596 15.6448 10.6131 14.7576 10.6131 13.6661C10.6131 13.605 10.5951 13.5467 10.5894 13.4862H13.453C13.9919 13.4862 14.4725 13.2063 14.7373 12.7379C15.0013 12.2695 14.9941 11.7141 14.7171 11.2529ZM9.53241 13.6661C9.53241 14.1619 9.12877 14.5655 8.63304 14.5655C8.1373 14.5655 7.73366 14.1619 7.73366 13.6661C7.73366 13.605 7.74517 13.5452 7.7574 13.4862H9.50867C9.5209 13.5452 9.53241 13.605 9.53241 13.6661ZM13.7969 12.2055C13.7624 12.266 13.6609 12.4063 13.4515 12.4063H3.81453C3.60587 12.4063 3.50371 12.266 3.46917 12.2055C3.43535 12.1451 3.367 11.9861 3.47421 11.8076L4.26998 10.4795C4.65563 9.83697 4.85853 9.10158 4.85853 8.3533V6.4632C4.85853 4.38456 6.55151 2.69302 8.63231 2.69302C10.7131 2.69302 12.4061 4.38456 12.4061 6.4632V8.3533C12.4061 9.10158 12.6097 9.83697 12.9947 10.4795L13.7904 11.8076C13.8983 11.9861 13.8307 12.1451 13.7969 12.2055Z" fill="black"/>
</g>
<defs>
<clipPath id="clip0_5123_8611">
<rect width="17.268" height="17.268" fill="white" transform="translate(0 -0.00488281)"/>
</clipPath>
</defs>
</svg>
