<svg width="19" height="20" viewBox="0 0 19 20" fill="none" xmlns="http://www.w3.org/2000/svg">
<path fill-rule="evenodd" clip-rule="evenodd" d="M14.0359 0.76862L14.0369 1.51824C16.7915 1.73414 18.6112 3.6112 18.6141 6.48975L18.625 14.9155C18.6289 18.054 16.6572 19.985 13.4968 19.99L5.77689 20C2.6362 20.004 0.639823 18.027 0.635874 14.8796L0.625013 6.55272C0.621064 3.65517 2.37653 1.78311 5.13118 1.53024L5.13019 0.780614C5.1292 0.340834 5.45502 0.00999952 5.88945 0.00999952C6.32387 0.00900002 6.64969 0.338835 6.65068 0.778615L6.65166 1.47826L12.5164 1.47027L12.5154 0.770619C12.5144 0.330839 12.8402 0.00100402 13.2747 4.52073e-06C13.6992 -0.000994979 14.0349 0.32884 14.0359 0.76862ZM2.14649 6.86157L17.0946 6.84158V6.49175C17.0522 4.34283 15.974 3.21539 14.0389 3.04748L14.0398 3.81709C14.0398 4.24688 13.7051 4.58771 13.2806 4.58771C12.8462 4.58871 12.5194 4.24888 12.5194 3.81909L12.5184 3.0095L6.65364 3.01749L6.65462 3.82609C6.65462 4.25687 6.32979 4.5967 5.89537 4.5967C5.46095 4.5977 5.13414 4.25887 5.13414 3.82809L5.13315 3.05847C3.20786 3.25138 2.14254 4.38281 2.1455 6.55072L2.14649 6.86157ZM12.8649 11.4043V11.4153C12.8748 11.8751 13.25 12.2239 13.7051 12.2139C14.1494 12.2029 14.5039 11.8221 14.494 11.3623C14.4733 10.9225 14.1168 10.5637 13.6735 10.5647C13.2194 10.5747 12.8639 10.9445 12.8649 11.4043ZM13.6804 15.892C13.2263 15.882 12.86 15.5032 12.859 15.0435C12.8491 14.5837 13.2134 14.2029 13.6676 14.1919H13.6775C14.1415 14.1919 14.5177 14.5707 14.5177 15.0405C14.5187 15.5102 14.1435 15.891 13.6804 15.892ZM8.79713 11.4203C8.81687 11.8801 9.19304 12.2389 9.64721 12.2189C10.0915 12.1979 10.446 11.8181 10.4262 11.3583C10.4154 10.9085 10.05 10.5587 9.60575 10.5597C9.15158 10.5797 8.79614 10.9605 8.79713 11.4203ZM9.65117 15.8471C9.19699 15.8671 8.82181 15.5082 8.80108 15.0485C8.80108 14.5887 9.15553 14.2089 9.6097 14.1879C10.054 14.1869 10.4203 14.5367 10.4302 14.9855C10.4509 15.4463 10.0955 15.8261 9.65117 15.8471ZM4.72934 11.4553C4.74908 11.915 5.12525 12.2749 5.57942 12.2539C6.02372 12.2339 6.37817 11.8531 6.35744 11.3933C6.34757 10.9435 5.98225 10.5937 5.53697 10.5947C5.0828 10.6147 4.72835 10.9955 4.72934 11.4553ZM5.58337 15.8521C5.1292 15.8731 4.75402 15.5132 4.73328 15.0535C4.7323 14.5937 5.08774 14.2129 5.54191 14.1929C5.9862 14.1919 6.3525 14.5417 6.36238 14.9915C6.38311 15.4513 6.02866 15.8321 5.58337 15.8521Z" fill="#009CBD"/>
</svg>
