<svg width="25" height="24" viewBox="0 0 25 24" fill="none" xmlns="http://www.w3.org/2000/svg">
<g clip-path="url(#clip0_5156_15113)">
<path d="M24.375 12C24.375 9.61305 23.1107 7.32387 20.8603 5.63604C18.6098 3.94821 15.5576 3 12.375 3C9.1924 3 6.14016 3.94821 3.88972 5.63604C1.63928 7.32387 0.375 9.61305 0.375 12C0.375 14.3869 1.63928 16.6761 3.88972 18.364C6.14016 20.0518 9.1924 21 12.375 21H13.875C15.375 22.5 18.375 24 21.375 24C20.625 23.25 19.875 21 19.875 19.0312C21.2802 18.1874 22.4143 17.1173 23.1933 15.9002C23.9722 14.6831 24.3761 13.3501 24.375 12Z" fill="#009CBD"/>
<circle cx="20.375" cy="4" r="6" fill="white"/>
<circle cx="20.375" cy="4" r="4" fill="#60C14C"/>
</g>
<defs>
<clipPath id="clip0_5156_15113">
<rect width="24" height="24" fill="white" transform="translate(0.375)"/>
</clipPath>
</defs>
</svg>
