<svg width="53" height="53" viewBox="0 0 53 53" fill="none" xmlns="http://www.w3.org/2000/svg">
<rect width="53" height="53" rx="5" fill="#009CBD"/>
<rect width="23.85" height="15.9" transform="translate(15.9001 18.55)" fill="#009CBD"/>
<path d="M36.5002 23.6852L30.0847 29.9157C28.7395 31.2201 27.3994 32.5246 26.0618 33.8266C25.2062 34.6578 23.75 34.6578 22.8894 33.8266C22.6269 33.5691 22.3644 33.3141 22.107 33.0591C20.2495 31.252 18.397 29.4498 16.542 27.6403C15.6562 26.7821 15.7167 25.431 16.542 24.5606C17.3597 23.6926 18.8841 23.7539 19.7144 24.5606C19.9794 24.8156 20.2419 25.0706 20.4993 25.3256C21.8268 26.6153 23.1544 27.9124 24.4768 29.2022C26.5791 27.1597 28.6764 25.1245 30.7762 23.082L34.7991 19.1736C35.685 18.313 37.0756 18.3718 37.9715 19.1736C38.8624 19.9754 38.7993 21.4515 37.969 22.2582C37.4819 22.7314 36.9872 23.212 36.5002 23.6852Z" fill="white"/>
</svg>
