<svg width="88" height="88" viewBox="0 0 88 88" fill="none" xmlns="http://www.w3.org/2000/svg">
<path d="M43.75 0C19.625 0 0 19.625 0 43.75C0 67.875 19.625 87.5 43.75 87.5C67.875 87.5 87.5 67.875 87.5 43.75C87.5 19.625 67.875 0 43.75 0ZM64.719 33.469L39.719 58.469C39.094 59.0628 38.3128 59.3753 37.5002 59.3753C36.6876 59.3753 35.9064 59.0628 35.2814 58.469L22.7814 45.969C21.5626 44.7502 21.5626 42.7502 22.7814 41.5315C24.0002 40.3128 26.0002 40.3127 27.2189 41.5315L37.4999 51.8435L60.2809 29.0315C61.4997 27.8127 63.4997 27.8127 64.7184 29.0315C65.9371 30.2503 65.9378 32.2503 64.719 33.469Z" fill="#009CBD"/>
</svg>
