<svg width="20" height="20" viewBox="0 0 20 20" fill="none" xmlns="http://www.w3.org/2000/svg">
<path d="M7.00978 18.7733V15.7156C7.00978 14.9351 7.64717 14.3023 8.43344 14.3023H11.3076C11.6852 14.3023 12.0473 14.4512 12.3143 14.7163C12.5813 14.9813 12.7313 15.3408 12.7313 15.7156V18.7733C12.7289 19.0978 12.8571 19.4099 13.0874 19.6402C13.3177 19.8705 13.6311 20 13.9579 20H15.9188C16.8346 20.0023 17.7138 19.6428 18.3622 19.0008C19.0106 18.3588 19.375 17.487 19.375 16.5778V7.86686C19.375 7.13246 19.0471 6.43584 18.4796 5.96467L11.809 0.675869C10.6487 -0.251438 8.98611 -0.221498 7.86039 0.746979L1.34201 5.96467C0.747741 6.42195 0.392552 7.12064 0.375 7.86686V16.5689C0.375 18.4639 1.92238 20 3.83117 20H5.74729C6.42623 20 6.978 19.4562 6.98292 18.7822L7.00978 18.7733Z" fill="#ADB3BC"/>
</svg>
