<svg width="21" height="22" viewBox="0 0 21 22" fill="none" xmlns="http://www.w3.org/2000/svg">
<path d="M10.3608 2.64307C8.69581 2.64307 7.06825 3.13678 5.68389 4.06178C4.29952 4.98678 3.22055 6.30152 2.5834 7.83974C1.94624 9.37796 1.77954 11.0706 2.10435 12.7035C2.42917 14.3365 3.23092 15.8365 4.40823 17.0138C5.58553 18.1911 7.0855 18.9928 8.71847 19.3177C10.3514 19.6425 12.044 19.4758 13.5823 18.8386C15.1205 18.2015 16.4352 17.1225 17.3602 15.7381C18.2852 14.3538 18.7789 12.7262 18.7789 11.0612C18.7766 8.82932 17.8889 6.6895 16.3107 5.11129C14.7325 3.53309 12.5927 2.64542 10.3608 2.64307ZM10.3608 18.1843C8.95196 18.1843 7.57479 17.7665 6.40341 16.9839C5.23202 16.2012 4.31904 15.0887 3.77991 13.7871C3.24079 12.4855 3.09973 11.0533 3.37457 9.6716C3.64942 8.28986 4.32782 7.02065 5.324 6.02447C6.32018 5.02829 7.58939 4.34988 8.97113 4.07504C10.3529 3.80019 11.7851 3.94125 13.0866 4.48038C14.3882 5.01951 15.5007 5.93249 16.2834 7.10387C17.0661 8.27525 17.4838 9.65243 17.4838 11.0612C17.4817 12.9497 16.7305 14.7603 15.3952 16.0956C14.0598 17.431 12.2493 18.1822 10.3608 18.1843ZM10.3608 6.52838C9.7205 6.52851 9.09465 6.71848 8.56233 7.07426C8.03001 7.43004 7.61513 7.93565 7.37012 8.52719C7.12512 9.11873 7.06101 9.76963 7.18588 10.3976C7.31075 11.0256 7.61901 11.6024 8.07168 12.0552L7.19262 14.2634C7.13396 14.4107 7.11225 14.5701 7.12938 14.7277C7.14651 14.8854 7.20197 15.0364 7.29091 15.1676C7.37985 15.2989 7.49957 15.4064 7.63962 15.4807C7.77967 15.5551 7.93579 15.594 8.09434 15.5941H12.6272C12.7858 15.594 12.9419 15.5551 13.0819 15.4807C13.222 15.4064 13.3417 15.2989 13.4306 15.1676C13.5196 15.0364 13.575 14.8854 13.5922 14.7277C13.6093 14.5701 13.5876 14.4107 13.5289 14.2634L12.6499 12.0552C13.1025 11.6024 13.4108 11.0256 13.5357 10.3976C13.6605 9.76963 13.5964 9.11873 13.3514 8.52719C13.1064 7.93565 12.6915 7.43004 12.1592 7.07426C11.6269 6.71848 11.001 6.52851 10.3608 6.52838ZM11.2762 12.1054L12.1496 14.299H8.57191L9.44529 12.1054C9.49863 11.9715 9.50577 11.8237 9.4656 11.6853C9.42543 11.5469 9.34023 11.4258 9.22351 11.3413C8.89051 11.1009 8.6423 10.761 8.51452 10.3707C8.38674 9.98034 8.38597 9.55953 8.51232 9.16872C8.63867 8.7779 8.88564 8.43719 9.21776 8.19552C9.54987 7.95386 9.95004 7.82367 10.3608 7.82367C10.7715 7.82367 11.1717 7.95386 11.5038 8.19552C11.8359 8.43719 12.0829 8.7779 12.2092 9.16872C12.3356 9.55953 12.3348 9.98034 12.207 10.3707C12.0792 10.761 11.831 11.1009 11.498 11.3413C11.3813 11.4258 11.2961 11.5469 11.2559 11.6853C11.2158 11.8237 11.2229 11.9715 11.2762 12.1054Z" fill="black"/>
</svg>
