<svg width="21" height="22" viewBox="0 0 21 22" fill="none" xmlns="http://www.w3.org/2000/svg">
<path d="M9.06566 18.1691C9.06566 18.3408 8.99744 18.5055 8.876 18.627C8.75456 18.7484 8.58985 18.8166 8.41811 18.8166H3.88525C3.54177 18.8166 3.21235 18.6802 2.96948 18.4373C2.7266 18.1944 2.59015 17.865 2.59015 17.5215V4.57049C2.59015 4.22701 2.7266 3.8976 2.96948 3.65472C3.21235 3.41184 3.54177 3.27539 3.88525 3.27539H8.41811C8.58985 3.27539 8.75456 3.34361 8.876 3.46505C8.99744 3.58649 9.06566 3.7512 9.06566 3.92294C9.06566 4.09468 8.99744 4.25939 8.876 4.38083C8.75456 4.50227 8.58985 4.57049 8.41811 4.57049H3.88525V17.5215H8.41811C8.58985 17.5215 8.75456 17.5897 8.876 17.7112C8.99744 17.8326 9.06566 17.9973 9.06566 18.1691ZM17.942 10.5879L14.7042 7.35011C14.5827 7.2286 14.4179 7.16034 14.2461 7.16034C14.0742 7.16034 13.9094 7.2286 13.7879 7.35011C13.6664 7.47162 13.5982 7.63641 13.5982 7.80825C13.5982 7.98009 13.6664 8.14489 13.7879 8.26639L15.9208 10.3985H8.41811C8.24637 10.3985 8.08166 10.4667 7.96022 10.5881C7.83879 10.7096 7.77056 10.8743 7.77056 11.046C7.77056 11.2178 7.83879 11.3825 7.96022 11.5039C8.08166 11.6253 8.24637 11.6936 8.41811 11.6936H15.9208L13.7879 13.8256C13.6664 13.9471 13.5982 14.1119 13.5982 14.2838C13.5982 14.4556 13.6664 14.6204 13.7879 14.7419C13.9094 14.8634 14.0742 14.9317 14.2461 14.9317C14.4179 14.9317 14.5827 14.8634 14.7042 14.7419L17.942 11.5042C18.0022 11.444 18.0499 11.3726 18.0825 11.294C18.1151 11.2154 18.1319 11.1311 18.1319 11.046C18.1319 10.9609 18.1151 10.8766 18.0825 10.798C18.0499 10.7194 18.0022 10.648 17.942 10.5879Z" fill="#EE5959"/>
</svg>
