<svg width="17" height="23" viewBox="0 0 17 23" fill="none" xmlns="http://www.w3.org/2000/svg">
<path d="M3.10857 0.53926C3.10857 0.242126 3.34349 0 3.63382 0C3.92416 0 4.15908 0.241187 4.15908 0.53926V1.77825H6.35298V0.53926C6.35298 0.242126 6.5879 0 6.87823 0C7.16856 0 7.40348 0.241187 7.40348 0.53926V1.77825H9.59738V0.53926C9.59738 0.242126 9.83231 0 10.1226 0C10.413 0 10.6479 0.241187 10.6479 0.53926V1.77825H12.8418V0.53926C12.8418 0.242126 13.0767 0 13.367 0C13.6574 0 13.8923 0.241187 13.8923 0.53926V1.77825H14.6659C15.309 1.77825 15.8915 2.04787 16.3149 2.48167C16.7383 2.91546 17 3.51523 17 4.17462V20.6036C17 21.2639 16.7374 21.8619 16.3149 22.2966C15.8914 22.7313 15.3081 23 14.6659 23H2.33413C1.69097 23 1.10854 22.7304 0.685145 22.2966C0.261723 21.8619 0 21.263 0 20.6036V4.17462C0 3.51431 0.262615 2.91544 0.685145 2.48167C1.10857 2.04695 1.69186 1.77825 2.33413 1.77825H3.1077V0.53926H3.10857ZM3.63382 19.6837C3.34352 19.6837 3.10857 19.4425 3.10857 19.1444C3.10857 18.8464 3.34349 18.6052 3.63382 18.6052H13.3669C13.6572 18.6052 13.8921 18.8464 13.8921 19.1444C13.8921 19.4416 13.6572 19.6837 13.3669 19.6837H3.63382ZM3.63382 16.2463C3.34352 16.2463 3.10857 16.0051 3.10857 15.7071C3.10857 15.409 3.34349 15.1678 3.63382 15.1678H13.3669C13.6572 15.1678 13.8921 15.409 13.8921 15.7071C13.8921 16.0042 13.6572 16.2463 13.3669 16.2463H3.63382ZM3.63382 12.809C3.34352 12.809 3.10857 12.5678 3.10857 12.2697C3.10857 11.9716 3.34349 11.7304 3.63382 11.7304H13.3669C13.6572 11.7304 13.8921 11.9716 13.8921 12.2697C13.8921 12.5668 13.6572 12.809 13.3669 12.809H3.63382ZM5.06842 9.37158C4.77811 9.37158 4.54317 9.13039 4.54317 8.83232C4.54317 8.53425 4.77809 8.29306 5.06842 8.29306H11.9324C12.2228 8.29306 12.4577 8.53425 12.4577 8.83232C12.4577 9.13039 12.2228 9.37158 11.9324 9.37158H5.06842ZM1.05053 4.77699H15.9513V4.17446C15.9513 3.8122 15.8065 3.48297 15.5734 3.24361C15.3412 3.00426 15.0196 2.85569 14.6667 2.85569H13.8932V3.36469C13.8932 3.66182 13.6582 3.90395 13.3679 3.90395C13.0776 3.90395 12.8427 3.66276 12.8427 3.36469V2.85569H10.6488V3.36469C10.6488 3.66182 10.4138 3.90395 10.1235 3.90395C9.8332 3.90395 9.59825 3.66276 9.59825 3.36469V2.85569H7.40435V3.36469C7.40435 3.66182 7.16943 3.90395 6.8791 3.90395C6.58879 3.90395 6.35385 3.66276 6.35385 3.36469V2.85569H4.15995V3.36469C4.15995 3.66182 3.92502 3.90395 3.63469 3.90395C3.34439 3.90395 3.10944 3.66276 3.10944 3.36469V2.85569H2.33586C1.98301 2.85569 1.66234 3.00426 1.4292 3.24361C1.19606 3.48205 1.05135 3.81222 1.05135 4.17446V4.77699H1.05053ZM15.9513 5.85551H1.05053V20.6042C1.05053 20.9665 1.19524 21.2957 1.42838 21.5351C1.66151 21.7744 1.98221 21.923 2.33504 21.923H14.6668C15.0196 21.923 15.3403 21.7744 15.5735 21.5351C15.8066 21.2957 15.9513 20.9665 15.9513 20.6042L15.9513 5.85551Z" fill="black"/>
</svg>
