<svg width="21" height="22" viewBox="0 0 21 22" fill="none" xmlns="http://www.w3.org/2000/svg">
<g clip-path="url(#clip0_5123_8598)">
<path d="M11.6559 13.1255C12.671 12.4932 13.4526 11.5476 13.8824 10.4316C14.3122 9.31557 14.3668 8.08995 14.038 6.94012C13.7092 5.7903 13.0149 4.77885 12.0601 4.05878C11.1052 3.33871 9.94187 2.94922 8.74596 2.94922C7.55005 2.94922 6.38668 3.33871 5.43185 4.05878C4.47702 4.77885 3.78268 5.7903 3.45389 6.94012C3.12509 8.08995 3.17973 9.31557 3.60953 10.4316C4.03933 11.5476 4.82091 12.4932 5.83603 13.1255C4.16454 13.6727 2.6606 14.695 1.45129 16.1342C1.39463 16.199 1.35146 16.2744 1.32429 16.3561C1.29713 16.4378 1.28652 16.524 1.29309 16.6098C1.29965 16.6957 1.32326 16.7793 1.36253 16.8559C1.40181 16.9325 1.45596 17.0005 1.52181 17.0559C1.58767 17.1113 1.66392 17.1531 1.74609 17.1787C1.82827 17.2043 1.91472 17.2133 2.00041 17.2051C2.08609 17.1969 2.16928 17.1717 2.24511 17.131C2.32094 17.0902 2.38789 17.0348 2.44205 16.9679C4.0674 15.0285 6.30631 13.9608 8.74191 13.9608C11.1775 13.9608 13.4164 15.0285 15.045 16.9679C15.1556 17.0995 15.3139 17.1818 15.4851 17.1967C15.6563 17.2115 15.8265 17.1578 15.9581 17.0472C16.0897 16.9367 16.172 16.7784 16.1868 16.6071C16.2017 16.4359 16.148 16.2658 16.0374 16.1342C14.8273 14.695 13.3233 13.6727 11.6559 13.1255ZM4.53283 8.45664C4.53283 7.62417 4.77969 6.81038 5.24219 6.1182C5.70469 5.42602 6.36206 4.88653 7.13117 4.56796C7.90028 4.24938 8.74658 4.16603 9.56307 4.32844C10.3795 4.49084 11.1295 4.89172 11.7182 5.48037C12.3068 6.06902 12.7077 6.81901 12.8701 7.63549C13.0325 8.45198 12.9492 9.29828 12.6306 10.0674C12.312 10.8365 11.7725 11.4939 11.0804 11.9564C10.3882 12.4189 9.57439 12.6657 8.74191 12.6657C7.62599 12.6644 6.55614 12.2206 5.76706 11.4315C4.97798 10.6424 4.53412 9.57257 4.53283 8.45664ZM19.7705 11.9429L19.3933 11.7252C19.4376 11.4909 19.4376 11.2504 19.3933 11.0161L19.7705 10.7984C19.9193 10.7125 20.0279 10.571 20.0723 10.4051C20.1168 10.2392 20.0936 10.0624 20.0077 9.91364C19.9218 9.76486 19.7804 9.6563 19.6145 9.61182C19.4485 9.56734 19.2717 9.5906 19.123 9.67647L18.745 9.89502C18.5641 9.73981 18.3561 9.61935 18.1314 9.53967V9.1042C18.1314 8.93245 18.0632 8.76775 17.9417 8.64631C17.8203 8.52487 17.6556 8.45664 17.4839 8.45664C17.3121 8.45664 17.1474 8.52487 17.026 8.64631C16.9045 8.76775 16.8363 8.93245 16.8363 9.1042V9.53967C16.6117 9.61935 16.4037 9.73981 16.2228 9.89502L15.8447 9.67647C15.7711 9.63395 15.6898 9.60636 15.6054 9.59527C15.5211 9.58417 15.4354 9.5898 15.3533 9.61182C15.2711 9.63384 15.1941 9.67183 15.1266 9.72362C15.0592 9.7754 15.0025 9.83997 14.96 9.91364C14.9175 9.9873 14.8899 10.0686 14.8788 10.1529C14.8677 10.2373 14.8734 10.323 14.8954 10.4051C14.9174 10.4873 14.9554 10.5643 15.0072 10.6318C15.059 10.6992 15.1235 10.7558 15.1972 10.7984L15.5744 11.0161C15.5301 11.2504 15.5301 11.4909 15.5744 11.7252L15.1972 11.9429C15.0484 12.0288 14.9399 12.1702 14.8954 12.3361C14.8509 12.5021 14.8742 12.6788 14.96 12.8276C15.0459 12.9764 15.1874 13.085 15.3533 13.1294C15.5192 13.1739 15.696 13.1507 15.8447 13.0648L16.2228 12.8462C16.4037 13.0014 16.6117 13.1219 16.8363 13.2016V13.6371C16.8363 13.8088 16.9045 13.9735 17.026 14.0949C17.1474 14.2164 17.3121 14.2846 17.4839 14.2846C17.6556 14.2846 17.8203 14.2164 17.9417 14.0949C18.0632 13.9735 18.1314 13.8088 18.1314 13.6371V13.2016C18.3561 13.1219 18.5641 13.0014 18.745 12.8462L19.123 13.0648C19.2213 13.1219 19.3331 13.1517 19.4468 13.1514C19.5893 13.1514 19.728 13.1044 19.8411 13.0176C19.9543 12.9309 20.0356 12.8092 20.0725 12.6714C20.1094 12.5337 20.0998 12.3876 20.0452 12.2559C19.9906 12.1242 19.894 12.0141 19.7705 11.9429ZM16.8363 11.3706C16.8363 11.2426 16.8743 11.1174 16.9454 11.0109C17.0166 10.9044 17.1177 10.8214 17.2361 10.7724C17.3544 10.7234 17.4846 10.7105 17.6102 10.7355C17.7358 10.7605 17.8512 10.8222 17.9417 10.9127C18.0323 11.0033 18.094 11.1187 18.119 11.2443C18.144 11.3699 18.1311 11.5001 18.0821 11.6184C18.0331 11.7368 17.9501 11.8379 17.8436 11.909C17.7371 11.9802 17.6119 12.0182 17.4839 12.0182C17.3121 12.0182 17.1474 11.95 17.026 11.8285C16.9045 11.7071 16.8363 11.5424 16.8363 11.3706Z" fill="black"/>
</g>
<defs>
<clipPath id="clip0_5123_8598">
<rect width="20.7216" height="20.7216" fill="white" transform="translate(0 0.361816)"/>
</clipPath>
</defs>
</svg>
