<svg width="32" height="32" viewBox="0 0 32 32" fill="none" xmlns="http://www.w3.org/2000/svg">
<path d="M31.3892 26.556C31.3653 26.5859 31.3397 26.6149 31.3091 26.639L30.1353 27.5629L30.1313 27.5658C30.0996 27.5912 30.0644 27.6098 30.0288 27.6263L30.1284 27.5492L31.3022 26.6254L31.3892 26.556ZM15.7515 21.8881C15.8637 21.9205 15.9797 21.9439 16.0981 21.9564L16.1011 21.9574L22.8726 22.6322V22.6312C23.2606 22.6715 23.6275 22.8249 23.9302 23.0717L23.9331 23.0736L29.5054 27.5463L29.6011 27.6234C29.5685 27.6075 29.5365 27.5892 29.5073 27.5658L23.936 23.0941H23.937C23.631 22.8467 23.2578 22.6971 22.8687 22.6605L16.1021 21.9613H16.1011C15.9813 21.9475 15.8647 21.922 15.7515 21.8881ZM19.6763 16.7826C19.7694 16.8673 19.8785 16.9348 19.9985 16.9799L20.0024 16.9808L24.8501 18.7552L24.853 18.7562C25.1774 18.8731 25.4673 19.0728 25.6919 19.3353L25.6929 19.3373L30.4937 24.8969L25.6724 19.3568C25.4539 19.0945 25.1702 18.8899 24.8491 18.7679L24.8433 18.766L20.0161 16.9984L20.0181 16.9906C19.8931 16.9456 19.7793 16.8771 19.6831 16.7894L19.6763 16.7826ZM14.2896 15.2611L19.3208 15.6342V15.6351C19.3219 15.6353 19.3236 15.635 19.3247 15.6351L19.3364 15.6361V15.6351C19.4537 15.6457 19.5701 15.6338 19.6821 15.6039L19.6323 15.6254L19.1665 15.8197L19.3647 16.2836L19.4058 16.3793L19.1753 15.8959L19.0503 15.6361L18.7632 15.6136L14.2905 15.264H14.2896L14.2886 15.2631H14.2876V15.2621L14.2886 15.2611H14.2896ZM24.7808 12.809C24.7486 12.8324 24.7157 12.8555 24.6802 12.8754L22.2495 14.2162L24.7095 12.8519L24.7104 12.8529C24.7349 12.8396 24.7578 12.824 24.7808 12.809ZM23.6597 10.5629C23.7917 10.5177 23.9268 10.5022 24.0581 10.5121C23.9725 10.5103 23.8856 10.5182 23.7993 10.5394L23.7056 10.5677L19.4136 12.0394C19.2578 12.0918 19.0923 12.1024 18.9312 12.0756C19.0798 12.0973 19.2321 12.0866 19.3765 12.0404L19.3872 12.0365L23.6587 10.5619L23.6597 10.5629ZM18.7974 12.0472V12.0463C18.8261 12.0546 18.8551 12.0611 18.8843 12.0668C18.8666 12.0629 18.8481 12.0608 18.8306 12.056H18.8276L18.6323 12.0033L18.7974 12.0472ZM13.7769 10.6986L16.0952 11.3226L17.1401 11.6029L17.1411 11.6049L13.7808 10.7064L13.7749 10.7054L13.7729 10.7015V10.7006L13.7749 10.6996L13.7759 10.6986H13.7769ZM15.9556 9.80017C16.2669 10.0256 16.5282 10.325 16.7124 10.6859L16.6606 10.5941C16.4803 10.2737 16.238 10.0059 15.9556 9.80017ZM15.7915 9.69177C15.8431 9.72324 15.8936 9.75617 15.9429 9.79138C15.8937 9.75605 15.8429 9.72335 15.7915 9.69177ZM15.6196 9.59509C15.6654 9.6183 15.7101 9.64331 15.7544 9.66931C15.7102 9.6432 15.6653 9.6184 15.6196 9.59509ZM15.4351 9.51111C15.4729 9.52658 15.5104 9.54263 15.5474 9.55994C15.5104 9.54254 15.4728 9.52668 15.4351 9.51111ZM15.2417 9.4408C15.2735 9.45087 15.305 9.4617 15.3364 9.47302C15.3051 9.46161 15.2735 9.45095 15.2417 9.4408ZM15.0425 9.38611C15.0677 9.39185 15.0927 9.39816 15.1177 9.40466C15.0927 9.39809 15.0677 9.39191 15.0425 9.38611ZM14.8403 9.34802C14.8524 9.34974 14.8644 9.35198 14.8765 9.35388C14.8644 9.35195 14.8524 9.34978 14.8403 9.34802ZM14.6265 9.32556C14.6297 9.32574 14.633 9.32635 14.6362 9.32654C14.633 9.32634 14.6297 9.32575 14.6265 9.32556Z" fill="#156778" stroke="#009CBD"/>
<path d="M0.525391 2.8999L5.52344 21.1411L5.87891 22.439L6.45703 21.2241L6.5127 21.106L2.62305 30.0552L2.59082 30.1274C2.59203 30.1229 2.59339 30.1183 2.59473 30.1138L2.61621 30.0542L5.81445 22.6821L5.88477 22.521L5.83789 22.3521L0.516602 2.88916C0.512006 2.87182 0.510475 2.85401 0.507812 2.83643L0.525391 2.8999ZM5.68066 2.33643L5.83594 2.65771L5.91504 2.64795L6.20312 3.25635L8.80176 8.75439L9.125 9.43799L9.62793 8.87256L10.4277 7.97314L10.4297 7.97021C10.4447 7.95309 10.4579 7.93455 10.4717 7.9165L10.4072 8.0083L9.30371 9.25928L9.08594 9.50635L9.22656 9.8042L5.59668 2.1626L5.68066 2.33643ZM15.6162 6.31982C15.3243 6.85711 14.8846 7.30695 14.3408 7.60889L14.168 7.69873C13.574 7.98375 12.916 8.07616 12.2812 7.98096C12.4354 8.00309 12.5921 8.01552 12.751 8.01514V8.01611L12.752 8.01514L12.7539 8.01611L12.7529 8.01514C13.9038 8.0174 14.9707 7.41162 15.5566 6.42139L15.6162 6.31982ZM12.1777 7.96338C12.1497 7.95825 12.1216 7.95363 12.0938 7.94775C12.1216 7.95345 12.1496 7.95841 12.1777 7.96338ZM10.6455 7.24463C10.7673 7.34767 10.8959 7.44183 11.0312 7.52588L10.8242 7.41357L10.5684 7.77881L10.5215 7.84521C10.5658 7.77541 10.6028 7.7004 10.6289 7.62061L10.7266 7.32178L10.6455 7.24463ZM15.9502 5.38916C15.932 5.48301 15.9099 5.57548 15.8838 5.6665H15.1826C15.1939 5.66581 15.2055 5.66644 15.2168 5.66553L15.2285 5.66455C15.4053 5.64583 15.5787 5.58943 15.7344 5.49561L15.9463 5.36768L15.9502 5.33057V5.38916ZM12.8271 1.52002C13.7543 1.5331 14.6319 1.94531 15.2344 2.65283V2.65381C15.8522 3.38094 16.117 4.34319 15.957 5.28271L15.9521 5.31201L15.9727 5.12158C16.1203 3.78198 15.4248 2.49202 14.2266 1.87646L14.2256 1.87549C13.7823 1.64846 13.3042 1.5321 12.8271 1.52002ZM9.96973 3.07764C9.9902 3.04401 10.0126 3.01173 10.0342 2.979C10.0125 3.01185 9.99013 3.04412 9.96973 3.07764ZM10.0977 2.88428C10.1155 2.8592 10.1338 2.83455 10.1523 2.81006C10.1338 2.83463 10.1155 2.85926 10.0977 2.88428ZM4.73047 1.28467L0.881836 2.28369L0.817383 2.29932C0.837421 2.29142 0.857774 2.28411 0.878906 2.27881L0.883789 2.27783L4.72852 1.27783C4.74955 1.27267 4.77095 1.27046 4.79199 1.26807L4.73047 1.28467ZM10.6748 2.26514C10.6928 2.25026 10.7102 2.23469 10.7285 2.22021C10.7102 2.23468 10.6928 2.25023 10.6748 2.26514ZM10.8662 2.11865C10.8799 2.10894 10.8934 2.09886 10.9072 2.08936C10.8934 2.09886 10.8799 2.10892 10.8662 2.11865ZM11.041 2.00244C11.064 1.98827 11.087 1.97404 11.1104 1.96045C11.087 1.97403 11.0641 1.98824 11.041 2.00244ZM11.2266 1.89502C11.2574 1.87871 11.2889 1.86346 11.3203 1.84814C11.2889 1.86344 11.2575 1.87867 11.2266 1.89502ZM11.4385 1.79346C11.4656 1.78155 11.4931 1.77045 11.5205 1.75928C11.4931 1.77043 11.4656 1.78154 11.4385 1.79346ZM11.6475 1.70947C11.6823 1.69697 11.7176 1.68564 11.7529 1.67432C11.7177 1.68561 11.6824 1.69696 11.6475 1.70947ZM11.8662 1.63916C11.8997 1.62976 11.9339 1.62308 11.9678 1.61475C11.934 1.62306 11.8998 1.62975 11.8662 1.63916ZM12.4648 1.53174C12.4889 1.52966 12.5129 1.52645 12.5371 1.5249C12.513 1.52645 12.4889 1.52966 12.4648 1.53174ZM12.751 1.51904H12.7803C12.7493 1.51871 12.7184 1.51947 12.6875 1.52002C12.7086 1.51964 12.7298 1.51901 12.751 1.51904ZM9.50391 4.43604L9.46094 4.33936L8.86133 2.98975H8.86035C8.81772 2.89164 8.76144 2.80299 8.69336 2.72607C8.73053 2.76609 8.76439 2.80964 8.79492 2.85596L8.87207 2.99756L8.97168 3.22119L9.39062 4.1626L9.87109 3.25146C9.88211 3.23058 9.89482 3.21052 9.90625 3.18994C9.67445 3.60717 9.53691 4.06868 9.50391 4.54248V4.43604Z" fill="#156778" stroke="#009CBD"/>
<mask id="path-3-inside-1_18_124" fill="white">
<path d="M22.3476 25.8822C22.545 25.6947 22.5562 25.3836 22.3726 25.1825C21.7042 24.4453 20.7558 24.0243 19.7613 24.0243C18.7668 24.0243 17.8185 24.4453 17.15 25.1825C17.0064 25.3861 17.0363 25.666 17.2188 25.8359C17.4012 26.0059 17.681 26.0146 17.8747 25.8572C18.3532 25.3187 19.0404 25.0101 19.7613 25.0101C20.4822 25.0101 21.1693 25.3187 21.6479 25.8572C21.8353 26.0546 22.1464 26.0658 22.3476 25.8822Z"/>
</mask>
<path d="M22.3476 25.8822C22.545 25.6947 22.5562 25.3836 22.3726 25.1825C21.7042 24.4453 20.7558 24.0243 19.7613 24.0243C18.7668 24.0243 17.8185 24.4453 17.15 25.1825C17.0064 25.3861 17.0363 25.666 17.2188 25.8359C17.4012 26.0059 17.681 26.0146 17.8747 25.8572C18.3532 25.3187 19.0404 25.0101 19.7613 25.0101C20.4822 25.0101 21.1693 25.3187 21.6479 25.8572C21.8353 26.0546 22.1464 26.0658 22.3476 25.8822Z" fill="#156778"/>
<path d="M22.3476 25.8822L23.0219 26.6206L23.029 26.6141L23.0361 26.6074L22.3476 25.8822ZM22.3726 25.1825L21.6318 25.8542L21.6341 25.8568L22.3726 25.1825ZM17.15 25.1825L16.4093 24.5107L16.3682 24.556L16.3329 24.606L17.15 25.1825ZM17.2188 25.8359L16.5371 26.5676L16.5372 26.5677L17.2188 25.8359ZM17.8747 25.8572L18.5055 26.6332L18.5684 26.582L18.6222 26.5214L17.8747 25.8572ZM21.6479 25.8572L20.9004 26.5214L20.9113 26.5337L20.9226 26.5457L21.6479 25.8572ZM22.3476 25.8822L23.0361 26.6074C23.6283 26.0451 23.6622 25.1118 23.1111 24.5082L22.3726 25.1825L21.6341 25.8568C21.4503 25.6555 21.4616 25.3444 21.6591 25.1569L22.3476 25.8822ZM22.3726 25.1825L23.1134 24.5108C22.2558 23.565 21.0387 23.0243 19.7613 23.0243V24.0243V25.0243C20.473 25.0243 21.1525 25.3256 21.6318 25.8542L22.3726 25.1825ZM19.7613 24.0243V23.0243C18.4839 23.0243 17.2668 23.5651 16.4093 24.5107L17.15 25.1825L17.8908 25.8542C18.3702 25.3256 19.0496 25.0243 19.7613 25.0243V24.0243ZM17.15 25.1825L16.3329 24.606C15.8988 25.2214 15.9916 26.0595 16.5371 26.5676L17.2188 25.8359L17.9004 25.1042C18.081 25.2725 18.114 25.5509 17.9672 25.759L17.15 25.1825ZM17.2188 25.8359L16.5372 26.5677C17.0869 27.0797 17.9269 27.1035 18.5055 26.6332L17.8747 25.8572L17.2439 25.0812C17.4352 24.9257 17.7155 24.932 17.9004 25.1042L17.2188 25.8359ZM17.8747 25.8572L18.6222 26.5214C18.9109 26.1966 19.3259 26.0101 19.7613 26.0101V25.0101V24.0101C18.7549 24.0101 17.7956 24.4408 17.1272 25.1929L17.8747 25.8572ZM19.7613 25.0101V26.0101C20.1966 26.0101 20.6117 26.1966 20.9004 26.5214L21.6479 25.8572L22.3954 25.1929C21.727 24.4408 20.7677 24.0101 19.7613 24.0101V25.0101ZM21.6479 25.8572L20.9226 26.5457C21.4849 27.138 22.4183 27.1717 23.0219 26.6206L22.3476 25.8822L21.6733 25.1437C21.8746 24.9599 22.1856 24.9712 22.3731 25.1687L21.6479 25.8572Z" fill="#009CBD" mask="url(#path-3-inside-1_18_124)"/>
<path d="M20.3276 26.7023C20.1381 26.6436 19.9392 26.6125 19.7368 26.6124C19.5273 26.6124 19.321 26.6454 19.1255 26.7081C19.3237 26.6424 19.5328 26.6074 19.7456 26.6066C19.9452 26.6094 20.1411 26.6425 20.3276 26.7023Z" fill="#156778" stroke="#009CBD"/>
<path d="M9.9104 16.8169C10.202 16.946 10.4739 17.121 10.7141 17.3384L10.8303 17.4497C11.3976 18.022 11.7126 18.7947 11.7083 19.5952L11.7034 19.7554V19.7593L11.7024 19.7583C11.7526 18.896 11.4323 18.0527 10.8215 17.4419C10.5559 17.1764 10.2463 16.9659 9.9104 16.8169ZM9.61255 16.7036C9.68957 16.7284 9.76532 16.7567 9.84009 16.7876C9.76535 16.7567 9.68954 16.7285 9.61255 16.7036ZM9.30786 16.6216C9.32649 16.6255 9.34499 16.63 9.36353 16.6343C9.34499 16.63 9.32649 16.6255 9.30786 16.6216ZM9.15259 16.5933C9.18302 16.598 9.21318 16.6042 9.24341 16.6099C9.21318 16.6042 9.18302 16.598 9.15259 16.5933ZM8.99829 16.5737C9.02016 16.576 9.04194 16.5788 9.06372 16.5815C9.04194 16.5788 9.02016 16.576 8.99829 16.5737ZM8.8479 16.561C8.85181 16.5612 8.85571 16.5618 8.85962 16.562C8.85571 16.5618 8.85181 16.5612 8.8479 16.561ZM8.52759 16.561H8.52954C8.53302 16.5609 8.5368 16.5602 8.54028 16.5601C8.53605 16.5603 8.53183 16.5608 8.52759 16.561ZM8.73267 16.5581C8.71445 16.5578 8.69623 16.5571 8.67798 16.5571C8.69623 16.5571 8.71445 16.5578 8.73267 16.5581Z" fill="#156778" stroke="#009CBD"/>
<path d="M8.62842 18.4685C8.88859 18.569 9.12814 18.7231 9.32861 18.9255C9.67413 19.2746 9.87769 19.738 9.90381 20.2244V20.4343L9.90283 20.4333C9.93074 19.8696 9.71965 19.3185 9.31982 18.9187C9.12101 18.72 8.88486 18.5678 8.62842 18.4685ZM8.23096 18.3601C8.26289 18.3653 8.29411 18.3739 8.32568 18.3806C8.29412 18.3738 8.26288 18.3654 8.23096 18.3601ZM8.02295 18.3367C8.06491 18.3391 8.10641 18.3453 8.14795 18.3503C8.10641 18.3453 8.0649 18.3391 8.02295 18.3367Z" fill="#156778" stroke="#009CBD"/>
<mask id="path-8-inside-2_18_124" fill="white">
<path d="M5.40578 11.3139C5.50323 11.3164 5.59819 11.2901 5.68065 11.2389C6.51526 10.6917 7.07873 9.8171 7.23117 8.83008C7.3836 7.84431 7.11123 6.83977 6.48027 6.06641C6.30035 5.8815 6.00923 5.86401 5.80808 6.02643C5.60817 6.18761 5.56319 6.4762 5.70563 6.69111C6.16291 7.24585 6.36282 7.97049 6.25285 8.68142C6.1429 9.39234 5.73435 10.0233 5.13089 10.4143C4.93973 10.533 4.85103 10.7654 4.91475 10.9816C4.97971 11.1977 5.18087 11.3439 5.40578 11.3389L5.40578 11.3139Z"/>
</mask>
<path d="M5.40578 11.3139C5.50323 11.3164 5.59819 11.2901 5.68065 11.2389C6.51526 10.6917 7.07873 9.8171 7.23117 8.83008C7.3836 7.84431 7.11123 6.83977 6.48027 6.06641C6.30035 5.8815 6.00923 5.86401 5.80808 6.02643C5.60817 6.18761 5.56319 6.4762 5.70563 6.69111C6.16291 7.24585 6.36282 7.97049 6.25285 8.68142C6.1429 9.39234 5.73435 10.0233 5.13089 10.4143C4.93973 10.533 4.85103 10.7654 4.91475 10.9816C4.97971 11.1977 5.18087 11.3439 5.40578 11.3389L5.40578 11.3139Z" fill="#156778"/>
<path d="M5.40578 11.3139L5.43141 10.3142L4.4059 10.2879L4.40578 11.3138L5.40578 11.3139ZM5.68065 11.2389L6.20833 12.0884L6.21873 12.0819L6.22897 12.0752L5.68065 11.2389ZM7.23117 8.83008L6.24291 8.67727L6.24289 8.67745L7.23117 8.83008ZM6.48027 6.06641L7.2551 5.43425L7.22747 5.40038L7.19699 5.36906L6.48027 6.06641ZM5.80808 6.02643L6.43574 6.80492L6.4363 6.80446L5.80808 6.02643ZM5.70563 6.69111L4.87208 7.24355L4.90086 7.28698L4.93399 7.32718L5.70563 6.69111ZM6.25285 8.68142L5.2646 8.52856L5.2646 8.52858L6.25285 8.68142ZM5.13089 10.4143L5.65839 11.2639L5.66661 11.2588L5.67474 11.2535L5.13089 10.4143ZM4.91475 10.9816L3.95555 11.2644L3.95707 11.2694L4.91475 10.9816ZM5.40578 11.3389L5.42796 12.3387L6.40566 12.317L6.40578 11.339L5.40578 11.3389ZM5.40578 11.3139L5.38015 12.3135C5.67551 12.3211 5.96241 12.2411 6.20833 12.0884L5.68065 11.2389L5.15297 10.3895C5.23396 10.3392 5.33095 10.3116 5.43141 10.3142L5.40578 11.3139ZM5.68065 11.2389L6.22897 12.0752C7.30019 11.3728 8.02374 10.2499 8.21945 8.98272L7.23117 8.83008L6.24289 8.67745C6.13372 9.38429 5.73033 10.0106 5.13233 10.4026L5.68065 11.2389ZM7.23117 8.83008L8.21943 8.98289C8.41509 7.71749 8.06551 6.42755 7.2551 5.43425L6.48027 6.06641L5.70543 6.69858C6.15695 7.252 6.3521 7.97114 6.24291 8.67727L7.23117 8.83008ZM6.48027 6.06641L7.19699 5.36906C6.65647 4.81353 5.78242 4.76185 5.17985 5.2484L5.80808 6.02643L6.4363 6.80446C6.23603 6.96617 5.94423 6.94948 5.76354 6.76377L6.48027 6.06641ZM5.80808 6.02643L5.18042 5.24795C4.57859 5.73317 4.44451 6.59842 4.87208 7.24355L5.70563 6.69111L6.53917 6.13866C6.68188 6.35398 6.63775 6.64204 6.43574 6.80492L5.80808 6.02643ZM5.70563 6.69111L4.93399 7.32718C5.21042 7.66251 5.33085 8.1003 5.2646 8.52856L6.25285 8.68142L7.2411 8.83428C7.39478 7.84069 7.1154 6.82919 6.47726 6.05504L5.70563 6.69111ZM6.25285 8.68142L5.2646 8.52858C5.19821 8.95787 4.9513 9.3391 4.58705 9.57516L5.13089 10.4143L5.67474 11.2535C6.51739 10.7074 7.0876 9.82681 7.2411 8.83425L6.25285 8.68142ZM5.13089 10.4143L4.6034 9.56479C4.03 9.92081 3.76459 10.6166 3.95557 11.2644L4.91475 10.9816L5.87393 10.6988C5.93746 10.9143 5.84947 11.1453 5.65839 11.2639L5.13089 10.4143ZM4.91475 10.9816L3.95707 11.2694C4.15119 11.9152 4.75256 12.3536 5.42796 12.3387L5.40578 11.3389L5.3836 10.3391C5.60918 10.3341 5.80824 10.4802 5.87242 10.6937L4.91475 10.9816ZM5.40578 11.3389L6.40578 11.339L6.40578 11.314L5.40578 11.3139L4.40578 11.3138L4.40578 11.3388L5.40578 11.3389Z" fill="#009CBD" mask="url(#path-8-inside-2_18_124)"/>
<path d="M4.68018 8.41516C4.592 8.96973 4.27554 9.46191 3.80615 9.77161L3.79541 9.77942H3.79248L3.7915 9.77844V9.77649L3.79248 9.77551V9.77454L3.7915 9.77356C4.26068 9.46965 4.5825 8.98453 4.67627 8.43176C4.68429 8.38502 4.68822 8.33799 4.69287 8.29114C4.68901 8.33242 4.68662 8.37393 4.68018 8.41516ZM4.70166 8.14758C4.70119 8.16969 4.70287 8.19186 4.70166 8.21399C4.70299 8.19186 4.70107 8.16968 4.70166 8.14758ZM4.23975 6.8175V6.81848L4.23877 6.8175H4.23975ZM4.23779 6.81653V6.8175L4.23682 6.81555V6.81458L4.23779 6.81653Z" fill="#156778" stroke="#009CBD"/>
</svg>
