<svg width="30" height="44" viewBox="0 0 30 44" fill="none" xmlns="http://www.w3.org/2000/svg">
<path d="M28.5131 17.7205C28.3275 17.6702 28.1264 17.6393 27.9485 17.5967C26.0728 17.21 24.2049 16.7188 22.3137 16.4095C21.1264 16.2122 20.6198 15.636 20.3607 14.4758C19.8773 12.3101 19.8038 12.3178 21.9889 11.9891C22.4529 11.9195 22.7623 11.699 22.6541 11.2543C22.6397 11.1579 22.6041 11.0658 22.55 10.9848C22.4959 10.9037 22.4245 10.8356 22.341 10.7854C22.2575 10.7351 22.1639 10.7039 22.0669 10.6941C21.9699 10.6842 21.872 10.6959 21.78 10.7283C21.2463 10.8521 20.701 10.9101 20.1712 11.0261C19.4828 11.1808 19.1618 10.883 19.0652 10.2256C18.9491 9.4869 19.4906 9.40955 20.0011 9.30127C21.3237 9.04602 22.6502 8.78691 23.9806 8.55874C24.8584 8.41178 25.7441 8.172 26.6374 8.5394C26.7905 8.59021 26.9239 8.68761 27.0189 8.81798C27.1139 8.94835 27.1658 9.10516 27.1672 9.26646C27.1672 9.6532 26.9584 9.83109 26.5871 9.90071C26.0186 10.0051 25.4617 10.1637 24.8894 10.2526C24.5026 10.3145 24.2745 10.5388 24.2783 10.8753C24.2783 11.3239 24.6651 11.4322 25.0518 11.4244C26.1192 11.453 27.167 11.1341 28.0374 10.5156C28.2396 10.3673 28.4041 10.1734 28.5174 9.94962C28.6308 9.72588 28.6898 9.4786 28.6898 9.22779C28.6898 8.97698 28.6308 8.72969 28.5174 8.50595C28.4041 8.28222 28.2396 8.08832 28.0374 7.93996C27.4919 7.54829 26.8655 7.28398 26.2043 7.16649C25.922 7.19743 25.7325 7.07367 25.8175 6.77976C26.2043 5.80132 25.9374 4.84608 25.7943 3.87538C24.901 1.95717 23.4121 0.870445 21.2695 0.901384C20.3753 0.884478 19.4961 1.1325 18.7426 1.61422C17.989 2.09594 17.3948 2.78983 17.0348 3.60853C16.2613 5.21348 16.2613 5.22121 14.5829 5.99855C14.4707 6.05269 14.3663 6.13004 14.2542 6.19579C12.8874 7.00291 11.7885 8.19463 11.0945 9.62226C9.10286 13.683 7.39736 17.8752 5.7344 22.079C5.38247 22.9646 5.12722 23.9856 5.67252 24.9563C5.89683 25.1342 6.10566 24.8325 6.16754 24.8557C6.30536 24.9099 6.44609 24.9564 6.58908 24.995C6.63762 25.0044 6.68751 25.0044 6.73604 24.995C6.85206 24.995 6.90621 24.879 6.95648 24.6546C6.91363 24.5571 6.87871 24.4562 6.85206 24.353C6.66643 23.2547 6.99902 22.2492 7.42443 21.2591C8.85535 17.9525 10.2824 14.6421 11.7365 11.3432C12.3785 9.89297 13.1597 8.52393 14.4437 7.54162C14.7127 7.36259 14.999 7.211 15.2984 7.08914C15.9674 6.76815 16.4005 6.93445 16.6829 7.67311C17.7619 10.4653 18.5083 13.3659 19.4751 16.1813C19.5424 16.4728 19.6975 16.7366 19.9195 16.9372C20.1415 17.1378 20.4197 17.2654 20.7165 17.3028C22.9518 17.7514 25.1717 18.2735 27.3954 18.7801C27.7164 18.8536 28.254 18.8111 28.2385 19.2288C28.2385 19.7392 27.6855 19.5111 27.38 19.5304C24.9397 19.6735 22.4955 19.7857 20.0552 19.9171C19.7651 19.9171 19.4751 19.9481 19.185 19.9519C18.1215 19.9752 17.3867 19.6155 17.0077 18.4978C16.621 17.3144 16.0099 16.1968 15.4917 15.0559C15.4281 14.8729 15.3325 14.7027 15.2094 14.5531C14.9619 14.3056 14.6873 14.0349 14.2851 14.2515C13.8829 14.468 13.9796 14.8238 14.1304 15.1642C14.695 16.4172 15.2017 17.7089 15.8553 18.9348C16.2652 19.7083 16.068 20.2961 15.6077 20.9575C14.7879 22.1447 14.0376 23.3823 13.2448 24.5928C13.1861 24.6577 13.1417 24.7342 13.1143 24.8173C13.087 24.9005 13.0774 24.9884 13.0862 25.0755C13.0949 25.1626 13.1218 25.2469 13.1651 25.3229C13.2084 25.399 13.2672 25.4651 13.3376 25.5171C14.8845 26.9751 16.2459 28.6109 17.669 30.185C17.7035 30.326 17.7268 30.4695 17.7387 30.6142C17.8973 30.8262 17.9735 31.0887 17.9528 31.3528C17.9322 31.6168 17.8162 31.8642 17.6265 32.049C17.1663 32.5711 17.4215 32.9849 17.5801 33.4335C17.7387 33.8821 18.1099 33.8551 18.2762 33.4954C18.779 32.3971 19.3629 31.2988 19.0497 30.0148C17.9784 28.4408 16.563 27.1607 15.3216 25.7336C14.8033 25.1342 14.7415 24.6585 15.1785 24.032C15.7315 23.2392 16.2652 22.4348 16.7641 21.611C16.8811 21.4014 17.055 21.2291 17.2658 21.1142C17.4766 20.9992 17.7156 20.9462 17.9552 20.9613C19.274 20.9613 20.5966 20.9343 21.9154 20.8917C24.0347 20.826 26.1695 20.7718 28.2772 20.6365C29.0506 20.5901 29.8241 20.2961 29.9904 19.3757C30.091 18.6912 29.391 17.9525 28.5131 17.7205ZM17.9939 6.79136C17.8769 6.38542 17.8196 5.96463 17.8237 5.5422C17.785 4.84885 17.9621 4.16053 18.3305 3.57189C18.6989 2.98324 19.2406 2.52318 19.8812 2.25496C20.4913 1.94751 21.1816 1.83637 21.8574 1.93677C22.5331 2.03716 23.1613 2.34419 23.6557 2.81572C24.8159 3.82123 25.0711 5.13613 24.727 6.58639C24.7044 6.80845 24.6016 7.01467 24.4379 7.16633C24.2741 7.31799 24.0606 7.40468 23.8375 7.41013C22.5651 7.55323 21.3043 7.79687 20.0397 7.99024C18.7016 8.19907 18.458 8.04825 17.9939 6.79136Z" fill="#029CBC"/>
<path d="M21.9772 32.865C21.8998 33.2827 21.8728 33.7352 21.3971 33.8589C21.3623 33.8048 21.3197 33.7507 21.2772 33.6965C20.7381 33.6154 20.1887 33.6351 19.6568 33.7545C15.2944 34.8838 10.9204 35.986 6.57354 37.1114C5.45975 37.3976 5.2161 38.2368 5.9277 39.2191H6.03598C6.09786 39.3506 6.26029 39.397 6.42272 39.4937C6.7089 39.6909 7.21552 39.9423 6.69343 40.4257C4.92992 40.3561 4.60506 40.097 4.24927 38.2909C4.13711 37.7224 3.77745 37.8655 3.45259 37.9042C3.0057 37.9597 2.55204 37.9028 2.13268 37.7387C1.71333 37.5746 1.34153 37.3085 1.05097 36.9644C0.00291625 35.7733 0.242692 34.4081 1.66974 33.6346C3.21668 32.7877 4.76362 31.9214 6.33377 31.1054C6.99895 30.7573 7.03376 30.4595 6.57741 29.8601C6.14737 29.2583 5.5141 28.8325 4.79456 28.6612C3.79679 28.4098 2.80674 28.1275 1.83217 27.8143C0.451529 27.385 -0.248461 26.306 0.0802632 25.2386C0.486335 23.9199 1.604 23.3049 3.04652 23.6917C3.50287 23.8154 4.38076 23.6375 4.20673 24.4652C4.03269 25.2928 3.30177 24.7977 2.81061 24.7165C2.22277 24.6431 1.66201 24.5541 1.45317 25.2657C1.40313 25.4123 1.38422 25.5677 1.39765 25.722C1.41108 25.8764 1.45655 26.0262 1.53116 26.162C1.60577 26.2977 1.70788 26.4164 1.83096 26.5105C1.95404 26.6045 2.09539 26.6719 2.24598 26.7082C3.05715 27.0137 3.88792 27.2644 4.73268 27.4585C5.93543 27.7292 6.99122 28.1701 7.62933 29.3032C8.01606 29.9993 8.50335 29.8253 8.9597 29.4115C9.41605 28.9977 8.9597 28.669 8.68512 28.406C7.94258 27.6325 7.16911 26.9171 6.40338 26.1823C6.02688 25.8756 5.76853 25.4478 5.67245 24.9718C5.91609 25.0723 6.02051 24.6198 6.44592 24.9176C6.49298 24.9535 6.54351 24.9846 6.59675 25.0104C6.67409 25.0453 6.72437 25.0453 6.74371 25.0104C6.85199 24.906 6.65862 24.4342 6.85973 24.3685C6.88637 24.4717 6.92129 24.5725 6.96415 24.6701C7.2356 25.2453 7.63039 25.7537 8.12048 26.1591C9.00611 26.9983 9.90333 27.8297 10.7851 28.6767C11.4696 29.3303 11.4348 29.659 10.6575 30.0844C9.41218 30.7612 8.16302 31.4225 6.92547 32.1109C5.41334 32.9346 3.93214 33.7739 2.46255 34.6247C1.9946 34.8993 1.64267 35.3517 1.94433 35.9164C2.20731 36.4075 2.62498 36.7749 3.29016 36.5854C3.80839 36.4307 4.33821 36.3108 4.86804 36.1755C8.47757 35.2628 12.0871 34.3475 15.6966 33.4297C16.3135 33.275 16.8562 32.908 17.2295 32.3932C17.6029 31.8784 17.7831 31.2486 17.7386 30.6142C17.7267 30.4695 17.7034 30.326 17.669 30.185C17.8075 30.2641 17.9282 30.371 18.0235 30.4989C18.1188 30.6268 18.1868 30.773 18.2231 30.9283C18.2593 31.0836 18.2632 31.2448 18.2344 31.4017C18.2056 31.5586 18.1448 31.7079 18.0557 31.8402C17.5955 32.4706 17.669 32.9733 17.8971 33.6694C18.6556 32.6021 19.0613 31.3242 19.0573 30.0148C19.2304 30.3008 19.3264 30.6268 19.3359 30.961C19.3453 31.2951 19.268 31.626 19.1115 31.9214C18.7248 32.7258 19.1115 32.5634 19.6413 32.5286C20.4148 32.4822 21.2695 32.2269 21.9772 32.865Z" fill="#089CBC"/>
<path d="M22.8976 43.334C22.1263 43.2522 21.3485 43.2522 20.5772 43.334C19.417 43.5041 18.7286 43.0594 18.222 42.0384C17.7966 41.1799 17.1778 40.418 16.7331 39.5672C16.3463 38.7937 15.8668 38.3606 14.9657 38.6545C14.4823 38.2291 14.579 37.881 15.1939 37.881C15.8088 37.881 16.6016 37.6567 17.1546 38.2677C17.2474 38.376 17.4292 38.3412 17.5762 38.3683H17.611L17.4679 38.407C18.0535 39.2832 18.5931 40.1894 19.0844 41.1218C19.5369 42.05 20.1905 42.282 21.1535 42.2008C21.7142 42.1467 21.7993 42.0075 21.6021 41.5086C21.1109 40.2594 20.6584 38.9948 20.1905 37.7379L20.0899 37.7882C20.0885 37.7766 20.0885 37.7649 20.0899 37.7534C20.188 37.5318 20.353 37.3466 20.5618 37.2236C20.8402 37.0341 21.1264 36.6396 21.4551 36.802L21.5325 36.8446L21.5711 36.8832C21.78 37.0921 21.401 37.3666 21.3855 37.6142C21.3743 37.7855 21.4072 37.9568 21.481 38.1119C21.5548 38.2669 21.667 38.4004 21.807 38.4998C22.3523 39.8688 22.8938 41.2379 23.4468 42.603C23.6982 43.1561 23.559 43.3765 22.8976 43.334Z" fill="#0D9BBC"/>
<path d="M13.8365 38.9213C12.7768 39.0876 12.3708 39.9345 12.1387 40.7776C11.547 42.9201 10.2669 43.6897 8.06253 43.361C6.68962 43.156 6.66255 43.3223 6.66255 41.8914C6.66255 41.408 6.66255 40.9246 6.66255 40.445C6.7283 39.9423 6.55813 39.6445 6.00897 39.6329C5.80787 39.6329 5.80787 39.6329 5.91229 39.2191H6.02057C6.6434 39.3833 7.29551 39.4031 7.92718 39.2771C7.92718 39.3158 7.94651 39.3506 7.95811 39.3892C8.03106 39.6712 8.13347 39.9447 8.26364 40.2053H8.2327C7.84596 40.6848 8.08574 41.2533 8.03159 41.7793C8.00452 42.019 8.16695 42.0809 8.38739 42.1273C8.73234 42.196 9.08887 42.179 9.42573 42.0779C9.76259 41.9767 10.0695 41.7944 10.3195 41.5471C10.5696 41.2997 10.7551 40.9948 10.8599 40.659C10.9647 40.3233 10.9855 39.967 10.9205 39.6213L10.7658 39.6561C10.7642 39.6381 10.7642 39.62 10.7658 39.6019C10.7233 39.1495 10.8664 38.7666 11.342 38.6622C11.5509 38.6158 11.5277 38.523 11.4929 38.4379C11.4929 38.4379 11.4929 38.4379 11.4929 38.4185C12.0964 38.1868 12.7244 38.0246 13.3647 37.9351L13.3956 37.9815C13.5774 38.2986 13.9564 38.4881 13.8365 38.9213Z" fill="#0D9BBC"/>
<path d="M22.2827 36.744C21.6755 37.2892 21.5092 37.7727 21.8225 38.4688C20.8982 38.1633 21.2153 37.5909 21.5866 36.8522L21.633 36.7556L21.5479 36.8136C20.991 37.2003 20.5888 37.4517 20.1905 37.7185L20.0899 37.7688C20.0885 37.7572 20.0885 37.7456 20.0899 37.734C19.1927 37.7611 18.3148 37.8616 17.5684 38.4263H17.6032L17.4601 38.4649C17.3364 38.6506 17.0734 38.7434 16.9844 38.5887C16.5397 37.8152 15.8242 38.2251 15.2441 38.1555C14.8574 38.1091 14.8574 38.1246 14.9386 38.6467C14.5519 38.7356 14.2154 38.9638 13.8016 38.9058C13.7513 38.8052 13.6972 38.6157 13.6547 38.6157C12.8812 38.6544 13.0862 38.3412 13.3491 38.0008C13.367 37.9812 13.3838 37.9605 13.3994 37.939L13.7862 37.8848C13.7964 37.8725 13.8097 37.8631 13.8248 37.8577C13.9602 38.024 14.0221 38.0279 14.2116 37.7959L14.2812 37.7147H14.3624C15.1359 37.5213 15.9093 37.3279 16.6828 37.1384C17.8623 36.8522 19.0535 36.6125 20.2214 36.2915C21.6523 35.9047 22.0894 34.8915 21.3623 33.8357C21.3275 33.7816 21.2849 33.7274 21.2424 33.6733C21.8186 33.6733 21.3932 32.8534 21.9424 32.8418C22.2761 33.0333 22.5585 33.3027 22.7656 33.6269C22.9727 33.9512 23.0983 34.3207 23.1317 34.704C23.1652 35.0873 23.1054 35.473 22.9576 35.8282C22.8097 36.1834 22.5782 36.4976 22.2827 36.744Z" fill="#039CBC"/>
<path d="M8.0199 39.2732C9.14114 38.917 10.2879 38.6467 11.4502 38.4649C10.405 39.05 9.21645 39.3301 8.0199 39.2732Z" fill="#CCEBF2"/>
<path d="M14.3972 37.7378C14.3708 37.7456 14.3476 37.7619 14.3315 37.7843C14.3047 37.7985 14.2761 37.8089 14.2464 37.8152C14.116 37.8245 13.9865 37.8452 13.8597 37.8771L13.8171 37.9003C13.8274 37.8879 13.8407 37.8786 13.8558 37.8732C13.9838 37.7715 14.1453 37.7218 14.3083 37.734L14.3972 37.7378Z" fill="#CCEBF2"/>
<path d="M20.1093 37.7224C20.1079 37.734 20.1079 37.7457 20.1093 37.7572L20.2099 37.707L20.1093 37.7224ZM17.6188 38.4147H17.5839L17.495 38.4804L17.6381 38.4418L17.6188 38.4147Z" fill="#CBEBF2"/>
<path d="M21.6136 38.8787C21.5479 38.9019 21.4589 38.9638 21.3971 38.9445C21.3675 38.9374 21.3397 38.9243 21.3154 38.906C21.2911 38.8877 21.2709 38.8645 21.256 38.838C21.2411 38.8115 21.2319 38.7822 21.2289 38.7519C21.2259 38.7216 21.2291 38.6911 21.2385 38.6621C21.2385 38.6351 21.3468 38.608 21.3893 38.6235C21.4319 38.6389 21.633 38.6815 21.6136 38.8787Z" fill="#039CBC"/>
<path d="M10.758 39.6368C9.88223 39.5359 8.99867 39.7438 8.25974 40.2246H8.23267H8.2636L10.7658 39.6832L10.9205 39.6484C10.8667 39.6407 10.8124 39.6368 10.758 39.6368Z" fill="#CBEAF2"/>
<path d="M10.9204 39.6561L10.7657 39.6909L8.26353 40.2323H8.23259C8.03536 40.0274 7.84586 39.8456 7.55967 40.2323C7.46686 39.7721 7.79945 39.629 7.94641 39.4008C7.97697 39.3605 7.99931 39.3145 8.01215 39.2655C9.13339 38.9093 10.2802 38.6391 11.4425 38.4572H11.4773C11.5766 38.4604 11.6738 38.4874 11.7606 38.5358C11.8474 38.5843 11.9213 38.6528 11.9762 38.7357C11.3999 38.8014 10.8276 38.8904 10.9204 39.6561Z" fill="#069CBD"/>
<path d="M14.1072 38.3412C13.7591 38.3412 13.8249 38.1015 13.8055 37.9003C13.8158 37.888 13.8291 37.8787 13.8442 37.8733C13.9752 37.7688 14.1414 37.7189 14.3083 37.7341H14.3895C14.363 37.7418 14.3399 37.7581 14.3238 37.7805C14.2039 37.9429 14.5674 38.3335 14.1072 38.3412Z" fill="#0D9BBC"/>
</svg>
