<svg width="36" height="45" viewBox="0 0 36 45" fill="none" xmlns="http://www.w3.org/2000/svg">
<path d="M35.2751 33.4671C34.6411 33.4671 34.565 33.8433 34.6199 34.3885C34.6669 34.9181 34.5796 35.4509 34.3661 35.9378C34.1526 36.4246 33.8198 36.8498 33.3984 37.174C32.7352 37.7538 31.9831 38.2234 31.1709 38.5646C26.4834 40.5258 21.6523 40.8047 16.69 39.9087C14.433 39.486 12.2435 38.8478 10.3499 37.4529C9.4623 36.7935 8.79447 35.9567 8.78179 34.8281C8.73952 31.079 8.78179 27.3256 8.78179 23.475C9.14804 23.7422 9.53862 23.9743 9.94837 24.1682C10.8487 24.4937 11.1657 24.984 11.0769 26.0196C11.0149 26.889 11.2677 27.7517 11.7892 28.4501C12.3107 29.1486 13.0661 29.6361 13.9173 29.8236C15.701 30.2717 17.7214 29.5447 18.3681 27.8666C18.8668 26.5394 19.615 26.3873 20.7773 26.4972C21.6215 26.5587 22.4691 26.5587 23.3134 26.4972C27.2696 26.3112 31.1455 25.804 34.658 23.475C34.658 25.8124 34.658 27.9934 34.658 30.1787C34.658 30.7197 34.3706 31.5439 35.2962 31.5777C36.2219 31.6115 35.964 30.7704 35.9683 30.2336C35.9683 27.3848 35.9133 24.5275 35.9979 21.6787C36.0444 20.0767 35.3427 19.0031 34.117 18.1451C32.6451 17.18 30.9931 16.5229 29.2604 16.2135C28.2925 16.0106 28.5545 15.7359 29.0322 15.2709C29.9409 14.3875 30.8454 13.4999 31.7246 12.5869C32.0776 12.2609 32.3148 11.8288 32.4002 11.3559C32.4856 10.8831 32.4146 10.3952 32.198 9.96634C31.75 8.97305 30.9004 8.62223 29.8564 8.69832C28.3855 8.82934 27.705 10.0297 26.8512 10.9808C26.808 11.0383 26.7772 11.1041 26.7608 11.1742C26.7444 11.2442 26.7427 11.3168 26.7558 11.3875C26.7689 11.4583 26.7966 11.5255 26.837 11.585C26.8774 11.6444 26.9297 11.6949 26.9906 11.7331C27.0477 11.788 27.1153 11.8308 27.1893 11.8587C27.2634 11.8867 27.3424 11.8993 27.4215 11.8957C27.5006 11.8921 27.5781 11.8725 27.6494 11.838C27.7206 11.8035 27.7841 11.7549 27.836 11.6951C28.2883 11.2513 28.7321 10.799 29.1759 10.3425C29.6197 9.88603 30.1438 9.56057 30.7186 10.127C31.2935 10.6933 31.1794 11.2555 30.6637 11.7965L30.372 12.1009C26.5595 15.9106 22.747 19.7146 18.9345 23.5131C18.7527 23.6948 18.6301 24.1429 18.2328 23.9358C17.0366 23.2722 16.9648 22.5621 17.9538 21.5688C20.473 19.0581 22.9893 16.5446 25.5028 14.0283C25.879 13.6521 26.4116 13.1829 25.9255 12.7011C25.3633 12.1135 24.9407 12.7602 24.5518 13.1449C23.977 13.7155 23.3937 14.2776 22.84 14.8651C22.7062 15.0254 22.5378 15.1533 22.3474 15.2389C22.157 15.3246 21.9497 15.3659 21.741 15.3597C19.9819 15.3297 18.2236 15.457 16.4872 15.7401C14.0441 16.1459 11.5841 16.6615 9.44539 18.0563C8.12664 18.9271 7.39119 20.0429 7.42077 21.7336C7.49263 25.8167 7.51799 29.9039 7.42077 33.9912C7.36796 34.8692 7.54436 35.7458 7.93266 36.535C8.32096 37.3242 8.90781 37.9988 9.63559 38.4927C9.87652 38.6745 10.2189 38.7674 10.2358 39.1648C10.3119 41.3246 11.7997 42.3602 13.5031 43.1802C16.6393 44.6891 19.9996 44.8709 23.4021 44.7103C25.7994 44.65 28.1541 44.0642 30.3002 42.9942C31.7162 42.2587 32.9461 41.3035 33.1448 39.5832C33.1672 39.3461 33.2437 39.1174 33.3682 38.9144C33.4928 38.7115 33.6621 38.5398 33.8633 38.4124C35.1779 37.4107 36.0951 36.1933 35.9767 34.4097C35.9556 33.8729 35.8711 33.4798 35.2751 33.4671ZM22.6371 21.6322C24.0488 20.2627 25.4479 18.8763 26.8173 17.4604C26.9597 17.297 27.1476 17.1799 27.357 17.1242C27.5664 17.0684 27.7877 17.0766 27.9924 17.1476C29.6831 17.5069 31.2935 17.9295 32.7644 18.7749C33.6097 19.2821 34.5734 19.84 34.5819 20.9348C34.5903 22.0295 33.6097 22.6508 32.7137 23.1623C31.0057 24.0818 29.1431 24.6792 27.2189 24.9248C24.9348 25.331 22.6133 25.4869 20.2955 25.3898C20.0766 25.4042 19.857 25.3741 19.65 25.3015C19.443 25.2289 19.2528 25.1151 19.0908 24.9671C20.2955 23.847 21.4832 22.7692 22.6371 21.6491V21.6322ZM17.565 26.0618C17.565 27.4313 16.1828 28.8388 14.8768 28.7965C14.1853 28.7494 13.5375 28.4414 13.0644 27.9349C12.5913 27.4285 12.3282 26.7612 12.3282 26.0682C12.3282 25.3751 12.5913 24.7079 13.0644 24.2014C13.5375 23.6949 14.1853 23.387 14.8768 23.3398C16.1997 23.3144 17.5608 24.6924 17.565 26.0787V26.0618ZM9.81734 19.3835C11.5545 17.9676 13.6891 17.5069 15.8193 17.0842C17.553 16.7021 19.3293 16.5486 21.1028 16.6277C19.1669 18.5424 17.4255 20.2965 15.6503 22.0464C15.5623 22.1557 15.4376 22.2292 15.2994 22.2535C14.6711 22.1924 14.0372 22.2808 13.4495 22.5114C12.8618 22.7421 12.3371 23.1085 11.918 23.5807C11.8707 23.6283 11.8075 23.6568 11.7405 23.661C11.1699 23.7202 9.24673 22.262 8.96354 21.5476C8.54932 20.5628 9.12838 19.9288 9.81734 19.3835ZM29.197 42.1742C27.1057 43.105 24.8458 43.597 22.5568 43.6198C19.6868 43.7085 16.876 43.4 14.2258 42.1827C12.8226 41.5317 12.1125 40.8386 11.7574 39.7734C18.2313 42.1348 25.3337 42.1183 31.7965 39.7269C31.28 40.8488 30.348 41.7263 29.197 42.1742Z" fill="#019BBC"/>
<path d="M12.9579 3.16135C12.9832 2.46394 12.6916 2.17229 12.0703 1.97363C10.4641 1.44529 8.86216 0.925398 7.28135 0.316745C6.50363 0.0124192 6.35146 0.185716 6.35992 0.976119C6.39796 4.24763 6.38105 7.51913 6.35992 10.7949C6.35992 12.2658 6.35992 12.2658 4.91859 11.9995C4.20689 11.8921 3.47936 12.0036 2.83245 12.3191C2.18554 12.6346 1.6498 13.1393 1.29627 13.7663C0.985109 14.383 0.875252 15.0818 0.982167 15.7642C1.08908 16.4466 1.40738 17.0784 1.89224 17.5704C2.38835 18.0975 3.0369 18.4563 3.74707 18.5965C4.45724 18.7367 5.19348 18.6513 5.85271 18.3523C7.24331 17.7183 7.86042 16.5644 7.86042 15.0639C7.86042 12.1474 7.86042 9.23097 7.86042 6.16235C9.35246 6.7076 10.7346 7.18099 12.0872 7.71356C12.7127 7.95872 12.9706 7.9249 12.9325 7.15563C12.9029 5.83689 12.9029 4.497 12.9579 3.16135ZM4.46633 17.4055C3.44768 17.4436 2.39522 16.37 2.38677 15.2921C2.39176 14.7614 2.59626 14.252 2.95963 13.8651C3.32299 13.4783 3.81861 13.2423 4.34798 13.2041C5.51879 13.1661 6.16971 13.9227 6.17817 15.3386C6.18662 16.5728 5.52725 17.3675 4.46633 17.4055ZM9.93152 5.40576L9.8174 5.37617C7.70403 4.64917 7.70403 4.64917 7.94918 2.18074C8.98896 2.53579 9.99493 2.91197 11.0263 3.22053C11.6476 3.4065 11.4489 3.87145 11.4489 4.24763C11.5081 5.9341 11.4785 5.9341 9.93152 5.40576Z" fill="#039BBC"/>
</svg>
