<svg width="37" height="37" viewBox="0 0 37 37" fill="none" xmlns="http://www.w3.org/2000/svg">
<mask id="path-1-inside-1_372_778" fill="white">
<path d="M23.6577 23.1266L22.0299 12.4955V8.61154C22.0299 8.34418 22.1185 8.13465 22.3082 7.94494L26.7345 3.51903C27.3958 2.85785 27.244 1.98893 26.749 1.47046C26.2504 0.951994 25.3849 0.758684 24.6912 1.39097L21.5421 4.27235C21.3019 4.48913 21.011 4.56861 20.6966 4.49455C20.5665 4.46745 20.4383 4.44396 20.3028 4.42952C20.7834 3.96164 21.0851 3.30587 21.0851 2.57967C21.0851 1.15616 19.9288 0 18.5051 0C17.0815 0 15.9252 1.15616 15.9252 2.57967C15.9252 3.30587 16.2251 3.95804 16.7075 4.42952C16.5738 4.44397 16.4437 4.46565 16.3136 4.49455C15.9993 4.56862 15.703 4.48913 15.4681 4.27235L12.3191 1.39097C11.6253 0.75689 10.7599 0.946574 10.2613 1.47046C9.76627 1.98893 9.61452 2.85785 10.2757 3.51903L14.7021 7.94494C14.8918 8.13463 14.9803 8.34238 14.9803 8.61154V12.4955L13.3525 23.1266C13.2279 23.9305 13.7048 24.6242 14.5088 24.8138C15.2026 24.9764 16.0481 24.6838 16.3317 23.8094L18.5016 16.9576L20.684 23.8062C20.9153 24.527 21.5296 24.8521 22.1312 24.8521C22.2558 24.8521 22.3859 24.8377 22.5052 24.8106C23.3073 24.6245 23.7842 23.9305 23.6577 23.1266ZM18.5017 1.17208C19.2786 1.17208 19.9127 1.80616 19.9127 2.58296C19.9127 3.35976 19.2786 3.99385 18.5017 3.99385C17.7248 3.99385 17.0907 3.35976 17.0907 2.58296C17.0907 1.80616 17.7248 1.17208 18.5017 1.17208ZM22.2379 23.6755C22.1584 23.6936 21.8856 23.7351 21.7989 23.4533L19.0599 14.8506C18.9804 14.6103 18.76 14.4441 18.4999 14.4441C18.2415 14.4441 18.0193 14.6103 17.9398 14.8506L15.2009 23.4533C15.1124 23.7315 14.8396 23.6936 14.7619 23.6755C14.6191 23.643 14.4565 23.5509 14.4981 23.3052L16.135 12.6325C16.1404 12.6054 16.1404 12.5729 16.1404 12.544V8.61302C16.1404 8.04036 15.9272 7.5255 15.5207 7.11904L11.0944 2.69313C10.9281 2.52693 11.0058 2.37879 11.0998 2.28125C11.1793 2.19815 11.3365 2.08614 11.5207 2.25776L14.6698 5.13914C15.1973 5.61968 15.873 5.80032 16.5668 5.63772C16.7384 5.60159 16.9083 5.5781 17.0853 5.5781H19.9074C20.0826 5.5781 20.2597 5.59617 20.4259 5.63772C21.1251 5.8003 21.7953 5.61966 22.3229 5.13914L25.472 2.25776C25.6562 2.08615 25.8134 2.19815 25.8929 2.28125C25.9851 2.3788 26.0646 2.53054 25.8983 2.69313L21.472 7.11904C21.0691 7.5255 20.8523 8.03855 20.8523 8.61302V12.544C20.8523 12.5711 20.8523 12.6036 20.8577 12.6325L22.4946 23.3052C22.5398 23.5509 22.377 23.6394 22.2379 23.6755ZM36.5576 15.6657C37.2189 15.0045 37.0671 14.1356 36.5721 13.6171C36.0771 13.0986 35.2081 12.9053 34.5143 13.5376L31.3689 16.419C31.1322 16.6412 30.8413 16.7153 30.527 16.6466C30.3969 16.6195 30.2686 16.596 30.1385 16.5816C30.6191 16.1137 30.9208 15.4579 30.9208 14.7371C30.9208 13.3136 29.7645 12.1575 28.3409 12.1575C26.9172 12.1575 25.761 13.3136 25.761 14.7371C25.761 15.4633 26.0609 16.1191 26.5469 16.587C26.0844 16.652 25.705 16.8327 25.4087 17.138C24.6824 17.8823 24.7149 19.1305 24.742 20.1386C24.7474 20.3463 24.751 20.545 24.751 20.7257C24.742 21.7572 24.7691 22.7887 24.7926 23.6161C24.8016 24.037 24.8161 24.4019 24.8161 24.6476L23.1883 35.2699C23.0636 36.0738 23.5406 36.7675 24.3446 36.9571C25.0383 37.1197 25.8838 36.8271 26.1621 35.9527L28.3409 29.1078L30.5198 35.9527C30.751 36.6735 31.3653 36.9987 31.9669 36.9987C32.0916 36.9987 32.2216 36.9842 32.3409 36.9571C33.1449 36.7674 33.6182 36.0737 33.4972 35.2699L31.8694 24.6476V23.0434H32.8088C33.7284 23.0434 34.2325 22.3262 34.2433 21.6506C34.2524 20.9623 33.7754 20.2488 32.8468 20.2271L32.0555 20.2036C32.0826 20.1674 32.1115 20.1349 32.144 20.1024L36.5576 15.6657ZM28.3356 13.3208C29.1125 13.3208 29.7466 13.9549 29.7466 14.7317C29.7466 15.5085 29.1125 16.1426 28.3356 16.1426C27.5587 16.1426 26.9246 15.5085 26.9246 14.7317C26.9246 13.9549 27.5569 13.3208 28.3356 13.3208ZM30.6988 24.7724L32.3356 35.4414C32.3718 35.6871 32.211 35.7792 32.0719 35.8117C31.9924 35.8298 31.7196 35.8713 31.6328 35.5895L28.8939 26.9979C28.8144 26.7576 28.594 26.5914 28.3338 26.5914C28.0791 26.5914 27.8533 26.7576 27.7738 26.9979L25.0349 35.5895C24.9463 35.8677 24.6789 35.8298 24.5958 35.8117C24.4531 35.7792 24.2905 35.6871 24.3321 35.4414L25.9689 24.7724C25.9743 24.7453 25.9743 24.7127 25.9743 24.6838C25.9743 24.4255 25.9653 24.0498 25.9509 23.5783C25.9454 23.3199 25.9364 23.0417 25.9274 22.7509C26.2562 22.9351 26.6356 23.0381 27.0421 23.0381H30.6826V24.6838C30.6934 24.7127 30.6933 24.7453 30.6988 24.7724ZM33.0655 21.6272C33.0655 21.7374 33.0149 21.8675 32.8017 21.8675H27.049C26.4239 21.8675 25.9163 21.3581 25.9163 20.7348V20.7294C25.9163 20.5307 25.9108 20.323 25.9072 20.1007C25.8892 19.3149 25.8603 18.3394 26.2397 17.9456C26.2957 17.8896 26.4565 17.7234 26.9244 17.7234H29.741C29.9163 17.7234 30.0933 17.7414 30.2595 17.783C30.9587 17.9402 31.629 17.7649 32.1565 17.2844L35.302 14.403C35.4863 14.2314 35.6434 14.347 35.7229 14.4265C35.8151 14.5241 35.8946 14.6758 35.7284 14.8384L31.3074 19.2589C31.0527 19.5136 30.872 19.8135 30.7763 20.1477L28.2234 20.0411L28.0012 19.6581C27.8386 19.3799 27.4827 19.2842 27.2009 19.445C26.9226 19.6076 26.8269 19.9634 26.9877 20.2453L27.3707 20.9119C27.4719 21.0871 27.6525 21.1937 27.8513 21.2027L31.246 21.3418H31.255L32.8052 21.3888C32.872 21.387 33.0709 21.3924 33.0655 21.6272ZM12.1929 24.6387C12.1929 24.393 12.202 24.0281 12.2164 23.6071C12.2399 22.7797 12.267 21.7483 12.258 20.7167C12.258 20.5361 12.2634 20.3374 12.267 20.1296C12.2941 19.1252 12.3266 17.8733 11.6003 17.129C11.3095 16.8292 10.9247 16.6431 10.4621 16.5781C10.9482 16.1102 11.248 15.4544 11.248 14.7282C11.248 13.3047 10.0918 12.1485 8.66812 12.1485C7.24447 12.1485 6.0882 13.3047 6.0882 14.7282C6.0882 15.449 6.3881 16.1066 6.87048 16.5727C6.73498 16.5961 6.60671 16.6142 6.47663 16.6467C6.16227 16.7208 5.87139 16.6413 5.63112 16.4245L2.48568 13.5431C1.79192 12.9091 0.926515 13.1042 0.427884 13.6226C-0.0671403 14.1411 -0.21889 15.01 0.442337 15.6712L4.86328 20.0917C4.8958 20.1242 4.9229 20.1604 4.95181 20.1929L4.16411 20.2164C3.23368 20.2435 2.7585 20.9516 2.76756 21.6399C2.7766 22.3155 3.28608 23.0327 4.20208 23.0327H5.14153V24.6369L3.51373 35.2592C3.38907 36.0631 3.86603 36.7568 4.67 36.9464C5.36377 37.109 6.20928 36.8164 6.48753 35.942L8.66636 29.0971L10.8452 35.942C11.0765 36.6628 11.6907 36.9879 12.2923 36.9879C12.417 36.9879 12.5471 36.9735 12.6663 36.9464C13.4703 36.7567 13.9436 36.063 13.8226 35.2592L12.1929 24.6387ZM8.66809 13.3208C9.44497 13.3208 10.0791 13.9549 10.0791 14.7317C10.0791 15.5085 9.44497 16.1426 8.66809 16.1426C7.89122 16.1426 7.25707 15.5085 7.25707 14.7317C7.25888 13.9549 7.89122 13.3208 8.66809 13.3208ZM3.93801 21.6271C3.93259 21.3959 4.13313 21.3904 4.19636 21.3868L5.74651 21.3399H5.75554L9.15027 21.2008C9.349 21.1917 9.53328 21.0797 9.63086 20.9099L10.0139 20.2433C10.1765 19.9651 10.0789 19.6056 9.80069 19.443C9.52246 19.2804 9.16294 19.378 9.00032 19.6562L8.7781 20.0392L6.22528 20.1458C6.12771 19.8134 5.94705 19.5171 5.69413 19.257L1.27319 14.8365C1.10697 14.6703 1.18466 14.5221 1.27861 14.4246C1.3581 14.3415 1.51528 14.2295 1.69956 14.4011L4.845 17.2825C5.37254 17.763 6.04826 17.9436 6.74203 17.781C6.91366 17.7449 7.08349 17.7214 7.26055 17.7214H10.0771C10.5451 17.7214 10.7059 17.8876 10.7619 17.9436C11.1413 18.332 11.1178 19.3129 11.0943 20.0988C11.0889 20.321 11.0853 20.5287 11.0853 20.7275V20.7329C11.0853 21.358 10.5758 21.8656 9.9525 21.8656L4.19981 21.8674C3.98843 21.8674 3.93801 21.7337 3.93801 21.6271ZM12.4005 35.8118C12.321 35.8298 12.0482 35.8714 11.9615 35.5896L9.22259 26.9979C9.14309 26.7577 8.92268 26.5915 8.66253 26.5915C8.40779 26.5915 8.18194 26.7577 8.10248 26.9979L5.36355 35.5896C5.27502 35.8678 5.00763 35.8298 4.92452 35.8118C4.7818 35.7793 4.61919 35.6871 4.66075 35.4414L6.29762 24.7724C6.30304 24.7453 6.30304 24.7128 6.30304 24.6839V23.0382H9.94349C10.3464 23.0382 10.7258 22.9316 11.0582 22.7509C11.0528 23.0418 11.0438 23.3236 11.0347 23.5837C11.0203 24.0552 11.0113 24.4292 11.0113 24.6893C11.0113 24.7164 11.0113 24.7489 11.0167 24.7778L12.6535 35.4468C12.7023 35.6871 12.5397 35.7793 12.4005 35.8118Z"/>
</mask>
<path d="M23.6577 23.1266L22.0299 12.4955V8.61154C22.0299 8.34418 22.1185 8.13465 22.3082 7.94494L26.7345 3.51903C27.3958 2.85785 27.244 1.98893 26.749 1.47046C26.2504 0.951994 25.3849 0.758684 24.6912 1.39097L21.5421 4.27235C21.3019 4.48913 21.011 4.56861 20.6966 4.49455C20.5665 4.46745 20.4383 4.44396 20.3028 4.42952C20.7834 3.96164 21.0851 3.30587 21.0851 2.57967C21.0851 1.15616 19.9288 0 18.5051 0C17.0815 0 15.9252 1.15616 15.9252 2.57967C15.9252 3.30587 16.2251 3.95804 16.7075 4.42952C16.5738 4.44397 16.4437 4.46565 16.3136 4.49455C15.9993 4.56862 15.703 4.48913 15.4681 4.27235L12.3191 1.39097C11.6253 0.75689 10.7599 0.946574 10.2613 1.47046C9.76627 1.98893 9.61452 2.85785 10.2757 3.51903L14.7021 7.94494C14.8918 8.13463 14.9803 8.34238 14.9803 8.61154V12.4955L13.3525 23.1266C13.2279 23.9305 13.7048 24.6242 14.5088 24.8138C15.2026 24.9764 16.0481 24.6838 16.3317 23.8094L18.5016 16.9576L20.684 23.8062C20.9153 24.527 21.5296 24.8521 22.1312 24.8521C22.2558 24.8521 22.3859 24.8377 22.5052 24.8106C23.3073 24.6245 23.7842 23.9305 23.6577 23.1266ZM18.5017 1.17208C19.2786 1.17208 19.9127 1.80616 19.9127 2.58296C19.9127 3.35976 19.2786 3.99385 18.5017 3.99385C17.7248 3.99385 17.0907 3.35976 17.0907 2.58296C17.0907 1.80616 17.7248 1.17208 18.5017 1.17208ZM22.2379 23.6755C22.1584 23.6936 21.8856 23.7351 21.7989 23.4533L19.0599 14.8506C18.9804 14.6103 18.76 14.4441 18.4999 14.4441C18.2415 14.4441 18.0193 14.6103 17.9398 14.8506L15.2009 23.4533C15.1124 23.7315 14.8396 23.6936 14.7619 23.6755C14.6191 23.643 14.4565 23.5509 14.4981 23.3052L16.135 12.6325C16.1404 12.6054 16.1404 12.5729 16.1404 12.544V8.61302C16.1404 8.04036 15.9272 7.5255 15.5207 7.11904L11.0944 2.69313C10.9281 2.52693 11.0058 2.37879 11.0998 2.28125C11.1793 2.19815 11.3365 2.08614 11.5207 2.25776L14.6698 5.13914C15.1973 5.61968 15.873 5.80032 16.5668 5.63772C16.7384 5.60159 16.9083 5.5781 17.0853 5.5781H19.9074C20.0826 5.5781 20.2597 5.59617 20.4259 5.63772C21.1251 5.8003 21.7953 5.61966 22.3229 5.13914L25.472 2.25776C25.6562 2.08615 25.8134 2.19815 25.8929 2.28125C25.9851 2.3788 26.0646 2.53054 25.8983 2.69313L21.472 7.11904C21.0691 7.5255 20.8523 8.03855 20.8523 8.61302V12.544C20.8523 12.5711 20.8523 12.6036 20.8577 12.6325L22.4946 23.3052C22.5398 23.5509 22.377 23.6394 22.2379 23.6755ZM36.5576 15.6657C37.2189 15.0045 37.0671 14.1356 36.5721 13.6171C36.0771 13.0986 35.2081 12.9053 34.5143 13.5376L31.3689 16.419C31.1322 16.6412 30.8413 16.7153 30.527 16.6466C30.3969 16.6195 30.2686 16.596 30.1385 16.5816C30.6191 16.1137 30.9208 15.4579 30.9208 14.7371C30.9208 13.3136 29.7645 12.1575 28.3409 12.1575C26.9172 12.1575 25.761 13.3136 25.761 14.7371C25.761 15.4633 26.0609 16.1191 26.5469 16.587C26.0844 16.652 25.705 16.8327 25.4087 17.138C24.6824 17.8823 24.7149 19.1305 24.742 20.1386C24.7474 20.3463 24.751 20.545 24.751 20.7257C24.742 21.7572 24.7691 22.7887 24.7926 23.6161C24.8016 24.037 24.8161 24.4019 24.8161 24.6476L23.1883 35.2699C23.0636 36.0738 23.5406 36.7675 24.3446 36.9571C25.0383 37.1197 25.8838 36.8271 26.1621 35.9527L28.3409 29.1078L30.5198 35.9527C30.751 36.6735 31.3653 36.9987 31.9669 36.9987C32.0916 36.9987 32.2216 36.9842 32.3409 36.9571C33.1449 36.7674 33.6182 36.0737 33.4972 35.2699L31.8694 24.6476V23.0434H32.8088C33.7284 23.0434 34.2325 22.3262 34.2433 21.6506C34.2524 20.9623 33.7754 20.2488 32.8468 20.2271L32.0555 20.2036C32.0826 20.1674 32.1115 20.1349 32.144 20.1024L36.5576 15.6657ZM28.3356 13.3208C29.1125 13.3208 29.7466 13.9549 29.7466 14.7317C29.7466 15.5085 29.1125 16.1426 28.3356 16.1426C27.5587 16.1426 26.9246 15.5085 26.9246 14.7317C26.9246 13.9549 27.5569 13.3208 28.3356 13.3208ZM30.6988 24.7724L32.3356 35.4414C32.3718 35.6871 32.211 35.7792 32.0719 35.8117C31.9924 35.8298 31.7196 35.8713 31.6328 35.5895L28.8939 26.9979C28.8144 26.7576 28.594 26.5914 28.3338 26.5914C28.0791 26.5914 27.8533 26.7576 27.7738 26.9979L25.0349 35.5895C24.9463 35.8677 24.6789 35.8298 24.5958 35.8117C24.4531 35.7792 24.2905 35.6871 24.3321 35.4414L25.9689 24.7724C25.9743 24.7453 25.9743 24.7127 25.9743 24.6838C25.9743 24.4255 25.9653 24.0498 25.9509 23.5783C25.9454 23.3199 25.9364 23.0417 25.9274 22.7509C26.2562 22.9351 26.6356 23.0381 27.0421 23.0381H30.6826V24.6838C30.6934 24.7127 30.6933 24.7453 30.6988 24.7724ZM33.0655 21.6272C33.0655 21.7374 33.0149 21.8675 32.8017 21.8675H27.049C26.4239 21.8675 25.9163 21.3581 25.9163 20.7348V20.7294C25.9163 20.5307 25.9108 20.323 25.9072 20.1007C25.8892 19.3149 25.8603 18.3394 26.2397 17.9456C26.2957 17.8896 26.4565 17.7234 26.9244 17.7234H29.741C29.9163 17.7234 30.0933 17.7414 30.2595 17.783C30.9587 17.9402 31.629 17.7649 32.1565 17.2844L35.302 14.403C35.4863 14.2314 35.6434 14.347 35.7229 14.4265C35.8151 14.5241 35.8946 14.6758 35.7284 14.8384L31.3074 19.2589C31.0527 19.5136 30.872 19.8135 30.7763 20.1477L28.2234 20.0411L28.0012 19.6581C27.8386 19.3799 27.4827 19.2842 27.2009 19.445C26.9226 19.6076 26.8269 19.9634 26.9877 20.2453L27.3707 20.9119C27.4719 21.0871 27.6525 21.1937 27.8513 21.2027L31.246 21.3418H31.255L32.8052 21.3888C32.872 21.387 33.0709 21.3924 33.0655 21.6272ZM12.1929 24.6387C12.1929 24.393 12.202 24.0281 12.2164 23.6071C12.2399 22.7797 12.267 21.7483 12.258 20.7167C12.258 20.5361 12.2634 20.3374 12.267 20.1296C12.2941 19.1252 12.3266 17.8733 11.6003 17.129C11.3095 16.8292 10.9247 16.6431 10.4621 16.5781C10.9482 16.1102 11.248 15.4544 11.248 14.7282C11.248 13.3047 10.0918 12.1485 8.66812 12.1485C7.24447 12.1485 6.0882 13.3047 6.0882 14.7282C6.0882 15.449 6.3881 16.1066 6.87048 16.5727C6.73498 16.5961 6.60671 16.6142 6.47663 16.6467C6.16227 16.7208 5.87139 16.6413 5.63112 16.4245L2.48568 13.5431C1.79192 12.9091 0.926515 13.1042 0.427884 13.6226C-0.0671403 14.1411 -0.21889 15.01 0.442337 15.6712L4.86328 20.0917C4.8958 20.1242 4.9229 20.1604 4.95181 20.1929L4.16411 20.2164C3.23368 20.2435 2.7585 20.9516 2.76756 21.6399C2.7766 22.3155 3.28608 23.0327 4.20208 23.0327H5.14153V24.6369L3.51373 35.2592C3.38907 36.0631 3.86603 36.7568 4.67 36.9464C5.36377 37.109 6.20928 36.8164 6.48753 35.942L8.66636 29.0971L10.8452 35.942C11.0765 36.6628 11.6907 36.9879 12.2923 36.9879C12.417 36.9879 12.5471 36.9735 12.6663 36.9464C13.4703 36.7567 13.9436 36.063 13.8226 35.2592L12.1929 24.6387ZM8.66809 13.3208C9.44497 13.3208 10.0791 13.9549 10.0791 14.7317C10.0791 15.5085 9.44497 16.1426 8.66809 16.1426C7.89122 16.1426 7.25707 15.5085 7.25707 14.7317C7.25888 13.9549 7.89122 13.3208 8.66809 13.3208ZM3.93801 21.6271C3.93259 21.3959 4.13313 21.3904 4.19636 21.3868L5.74651 21.3399H5.75554L9.15027 21.2008C9.349 21.1917 9.53328 21.0797 9.63086 20.9099L10.0139 20.2433C10.1765 19.9651 10.0789 19.6056 9.80069 19.443C9.52246 19.2804 9.16294 19.378 9.00032 19.6562L8.7781 20.0392L6.22528 20.1458C6.12771 19.8134 5.94705 19.5171 5.69413 19.257L1.27319 14.8365C1.10697 14.6703 1.18466 14.5221 1.27861 14.4246C1.3581 14.3415 1.51528 14.2295 1.69956 14.4011L4.845 17.2825C5.37254 17.763 6.04826 17.9436 6.74203 17.781C6.91366 17.7449 7.08349 17.7214 7.26055 17.7214H10.0771C10.5451 17.7214 10.7059 17.8876 10.7619 17.9436C11.1413 18.332 11.1178 19.3129 11.0943 20.0988C11.0889 20.321 11.0853 20.5287 11.0853 20.7275V20.7329C11.0853 21.358 10.5758 21.8656 9.9525 21.8656L4.19981 21.8674C3.98843 21.8674 3.93801 21.7337 3.93801 21.6271ZM12.4005 35.8118C12.321 35.8298 12.0482 35.8714 11.9615 35.5896L9.22259 26.9979C9.14309 26.7577 8.92268 26.5915 8.66253 26.5915C8.40779 26.5915 8.18194 26.7577 8.10248 26.9979L5.36355 35.5896C5.27502 35.8678 5.00763 35.8298 4.92452 35.8118C4.7818 35.7793 4.61919 35.6871 4.66075 35.4414L6.29762 24.7724C6.30304 24.7453 6.30304 24.7128 6.30304 24.6839V23.0382H9.94349C10.3464 23.0382 10.7258 22.9316 11.0582 22.7509C11.0528 23.0418 11.0438 23.3236 11.0347 23.5837C11.0203 24.0552 11.0113 24.4292 11.0113 24.6893C11.0113 24.7164 11.0113 24.7489 11.0167 24.7778L12.6535 35.4468C12.7023 35.6871 12.5397 35.7793 12.4005 35.8118Z" fill="#156778" stroke="#009CBD" stroke-width="2" mask="url(#path-1-inside-1_372_778)"/>
</svg>
