<svg width="48" height="31" viewBox="0 0 48 31" fill="none" xmlns="http://www.w3.org/2000/svg">
<path d="M32.2952 23.5883C32.2124 23.5698 32.1267 23.5689 32.0436 23.5858C31.9604 23.6027 31.8818 23.6369 31.8128 23.6863C31.7438 23.7356 31.686 23.7989 31.6431 23.8721C31.6002 23.9453 31.5733 24.0268 31.564 24.1111C31.5303 24.3215 31.5132 24.5342 31.5128 24.7473C31.2642 27.6064 28.087 29.8659 25.3741 29.0469C25.5898 28.8495 25.8018 28.6813 25.992 28.4912C26.7687 27.7561 27.3669 26.853 27.7408 25.8511C28.1147 24.8492 28.2544 23.775 28.1491 22.7108C28.0979 22.049 27.7835 21.7492 27.1108 21.7236C25.9231 21.6442 24.7335 21.8446 23.6374 22.3086C23.4436 22.3963 23.1401 22.6742 23.0158 22.3342C22.5469 21.0306 21.7255 19.8826 20.643 19.018C22.6721 19.018 24.4344 19.0436 26.2004 19.018C27.1338 18.9618 28.0644 19.1663 28.8883 19.6085C29.7121 20.0508 30.3968 20.7135 30.8657 21.5225C31.107 21.8881 31.3739 22.2866 31.8748 21.9466C32.3099 21.6541 32.1344 21.2593 31.915 20.901C31.164 19.6324 29.9898 18.6692 28.5988 18.1807C27.5548 17.8347 26.4529 17.6968 25.3558 17.7749C27.3228 15.2156 27.0998 12.9158 24.9902 10.755C26.5733 9.65817 27.1364 8.23591 26.6574 6.65278C26.1784 5.06965 24.8293 4.09344 22.9793 4.09344C22.0067 4.09344 21.0305 4.06419 20.0543 4.09344C19.5511 4.10101 19.0552 4.21437 18.5987 4.42616C18.1422 4.63796 17.7354 4.94344 17.4047 5.32276C17.074 5.70209 16.8268 6.14675 16.6792 6.62786C16.5316 7.10896 16.4869 7.61574 16.548 8.11525C16.6639 8.73257 16.8774 9.32746 17.1805 9.87754H14.4713C13.5827 9.89608 12.7183 10.1703 11.9814 10.6673C11.907 10.7064 11.8424 10.7617 11.7923 10.8293C11.7423 10.8968 11.7081 10.9747 11.6923 11.0573C11.6764 11.1398 11.6794 11.2249 11.701 11.3061C11.7226 11.3873 11.7622 11.4627 11.8169 11.5265C11.8467 11.6062 11.8958 11.6773 11.9598 11.7334C12.0237 11.7895 12.1006 11.8289 12.1835 11.8481C12.2664 11.8673 12.3528 11.8657 12.4349 11.8434C12.5171 11.8211 12.5924 11.7788 12.6542 11.7203C13.0546 11.3841 13.5484 11.1787 14.0691 11.1316C16.9229 10.9415 19.7864 10.9488 22.6392 11.1535C24.4198 11.2998 25.6081 12.9378 25.4801 14.6964C25.4101 15.5395 25.0243 16.325 24.3999 16.8958C23.7756 17.4666 22.9587 17.7806 22.1127 17.7749C20.6832 17.7749 19.2536 17.7749 17.8204 17.7749C17.2153 17.7053 16.6043 17.8391 16.0837 18.1552C15.6194 18.4842 15.3195 18.2941 14.9576 17.8956C13.9302 16.7731 12.8845 15.6287 11.0564 15.7311C11.7621 14.4917 11.9047 13.2741 11.1369 12.1261C10.508 11.1938 9.76213 10.3419 9.06014 9.46073C8.69453 8.99274 8.30331 9.00371 7.93404 9.46073C7.56476 9.91776 7.16258 10.4954 6.73115 10.9744C5.4588 12.3711 4.82627 13.8738 5.92679 15.7055C5.2833 15.8298 4.71293 15.764 4.17182 16.0711C-0.800603 18.9522 -1.46603 26.1586 2.9214 29.8769C3.27771 30.1973 3.74407 30.3676 4.223 30.3522C6.96515 30.3303 9.70729 30.3193 12.4458 30.3522C13.1953 30.3522 13.8388 30.2498 14.3141 29.6502C14.709 29.153 15.0782 29.2663 15.5718 29.5259C16.2043 29.8623 16.7857 30.3449 17.5718 30.3412C20.7088 30.3412 23.8494 30.4326 26.9791 30.3047C30.2953 30.1731 32.5731 27.5077 32.7852 24.2464C32.8043 24.0946 32.7639 23.9414 32.6726 23.8187C32.5813 23.6961 32.4461 23.6135 32.2952 23.5883ZM22.9171 9.92872C21.9454 9.82226 20.9654 9.81491 19.9922 9.90679C18.8222 10.0384 17.7619 9.00371 17.6997 7.71307C17.688 7.12777 17.8958 6.55929 18.2821 6.11947C18.6685 5.67965 19.2055 5.40036 19.7874 5.33655C20.3907 5.28171 21.0013 5.33655 21.6155 5.33655C22.2224 5.33655 22.8367 5.29267 23.4436 5.33655C23.7545 5.36088 24.0573 5.44759 24.3339 5.59151C24.6106 5.73544 24.8554 5.93361 25.0538 6.17422C25.2522 6.41483 25.4 6.69294 25.4886 6.99194C25.5771 7.29095 25.6045 7.60474 25.5691 7.91457C25.5338 8.22439 25.4363 8.52392 25.2826 8.79527C25.129 9.06662 24.9222 9.30423 24.6747 9.49392C24.4272 9.68361 24.144 9.82149 23.842 9.89933C23.54 9.97718 23.2255 9.99339 22.9171 9.94701V9.92872ZM17.3926 19.018C17.9886 18.9705 18.5918 19.018 19.1768 19.018C19.3084 19.3836 19.0415 19.5226 18.877 19.6542C17.9374 20.411 17.6522 21.6139 16.9136 22.506C16.9136 22.4402 16.888 22.3707 16.8771 22.3049C16.8694 21.6749 16.7338 21.0529 16.4786 20.4768C16.1897 19.5847 16.4749 19.0802 17.3926 19.018ZM6.78965 12.9487C7.24667 12.17 7.81704 10.9744 8.46784 10.9634C9.11864 10.9525 9.67804 12.1736 10.1789 12.9268C10.3153 13.2055 10.4161 13.5004 10.4787 13.8043C10.4192 14.0941 10.3373 14.3789 10.2338 14.6562C10.0363 15.0693 9.72923 15.5995 9.27586 15.5008C8.82249 15.402 9.14789 14.8207 9.08208 14.4587C9.06561 14.2763 9.06561 14.0928 9.08208 13.9103C9.08208 13.5008 8.96143 13.1571 8.48612 13.1791C8.06932 13.1791 7.95232 13.5191 7.95232 13.8884C7.95232 14.2577 7.95232 14.6196 7.95232 14.9852C7.95232 15.179 8.06932 15.4496 7.79145 15.5337C7.51358 15.6178 7.40023 15.4094 7.24302 15.2704C6.9115 14.9924 6.68608 14.6085 6.60482 14.1835C6.52355 13.7585 6.59142 13.3185 6.79696 12.9378L6.78965 12.9487ZM11.9083 29.2371C9.50254 29.1895 7.09677 29.2078 4.69465 29.2371C4.45438 29.2486 4.2144 29.209 3.99062 29.1207C3.76684 29.0325 3.56439 28.8977 3.3967 28.7252C2.62593 27.9736 2.02943 27.062 1.64928 26.0548C1.26912 25.0476 1.11455 23.9692 1.19648 22.8958C1.27841 21.8223 1.59484 20.7799 2.12345 19.8421C2.65207 18.9042 3.38 18.0937 4.25591 17.4678C4.67027 17.1582 5.17564 16.9949 5.69279 17.0035C7.48798 17.029 9.28317 17.0437 11.0784 17.0035C11.7446 16.9835 12.395 17.2086 12.9065 17.636C14.2957 18.7078 15.2669 20.2312 15.6523 21.943C14.8304 21.7871 13.9951 21.7136 13.1587 21.7236C12.3763 21.7236 12.0619 22.0892 12.029 22.8205C11.9619 23.8242 12.0995 24.8311 12.4332 25.7801C12.7669 26.7291 13.2899 27.6004 13.9704 28.3413L13.7949 28.5205C13.3013 29.0981 12.6834 29.2553 11.9303 29.2261L11.9083 29.2371ZM18.8258 29.2371C15.8241 29.1603 13.2026 26.5461 13.1916 23.6212C13.1916 23.0508 13.3744 22.8899 13.9229 22.8899C15.3786 22.9633 16.7545 23.5775 17.7811 24.6122C18.8077 25.6469 19.4111 27.0276 19.473 28.4839C19.5205 28.8897 19.5059 29.2298 18.8478 29.2151L18.8258 29.2371ZM18.3871 23.5261C18.2974 23.4477 18.2325 23.3447 18.2006 23.2299C18.0946 22.6815 19.4693 20.4001 19.9739 20.2538C20.2042 20.188 20.3066 20.3525 20.4236 20.4695C21.111 21.156 21.614 22.0049 21.8861 22.9375C21.9308 23.0649 21.931 23.2038 21.8865 23.3313C21.842 23.4589 21.7554 23.5675 21.6411 23.6394C21.0201 24.2591 20.5017 24.9737 20.1055 25.7564C19.6651 24.9191 19.0922 24.1585 18.409 23.5042L18.3871 23.5261ZM21.2755 29.2115C20.5442 29.2115 20.7417 28.7289 20.7234 28.3632C20.8054 26.9354 21.4095 25.5876 22.4208 24.5763C23.4321 23.5651 24.7799 22.9609 26.2077 22.879C26.7232 22.8607 26.9645 22.9557 26.9682 23.5627C26.9901 26.5096 24.1895 29.2809 21.2755 29.2115Z" fill="#029CBC"/>
<path d="M41.4137 10.4443C42.9968 10.4443 44.5799 10.4443 46.1667 10.4443C46.5323 10.4443 46.9382 10.3711 47.1173 10.8099C47.2965 11.2486 47.0113 11.5009 46.7737 11.7788C44.3508 14.6403 41.9377 17.5019 39.5344 20.3635C39.2369 20.6657 39.0701 21.0728 39.0701 21.4969C39.092 23.7199 39.103 25.9429 39.0701 28.1658C39.0701 28.8971 39.315 29.164 40.028 29.1128C40.602 29.0689 41.1833 29.1128 41.7647 29.1128C42.1851 29.1128 42.4959 29.2883 42.4667 29.7563C42.4374 30.2243 42.101 30.1658 41.7866 30.1658H35.3005C34.9642 30.1658 34.5985 30.2169 34.6132 29.6941C34.6132 29.2554 34.8837 29.1164 35.2713 29.1164C35.9404 29.1164 36.6094 29.1164 37.2822 29.1164C37.7356 29.1164 37.9476 28.919 37.9476 28.4547C37.9476 26.0489 37.9476 23.6431 37.9476 21.2373C37.9118 20.8726 37.7362 20.5359 37.4577 20.2977C35.108 17.4946 32.7546 14.7001 30.3976 11.914C30.2059 11.7192 30.051 11.4913 29.9406 11.2413C29.7687 10.7368 30.0576 10.4699 30.5292 10.4589C31.5968 10.426 32.6608 10.4406 33.7284 10.4333C33.8046 10.4231 33.8822 10.4287 33.9562 10.4496C34.0303 10.4706 34.0992 10.5065 34.1588 10.5552C34.2185 10.6038 34.2675 10.6642 34.3028 10.7325C34.3382 10.8008 34.3592 10.8757 34.3645 10.9525C34.3865 11.3181 34.1159 11.5448 33.7284 11.5813C33.6675 11.5777 33.6064 11.5777 33.5456 11.5813C33.0666 11.6727 32.3646 11.2779 32.1452 11.8446C31.9807 12.276 32.6169 12.627 32.9167 12.9853C34.5876 14.9962 36.3023 16.9779 37.9622 19.018C38.4229 19.5847 38.6679 19.5299 39.1066 18.9961C40.9347 16.8024 42.7921 14.6087 44.6348 12.4149C44.781 12.2394 45.0699 12.0859 44.9712 11.8153C44.8542 11.479 44.5178 11.5813 44.2399 11.5777C41.6513 11.5777 39.0627 11.5777 36.4742 11.5777C36.0171 11.5777 35.5345 11.6142 35.5236 11.0293C35.5126 10.4443 36.0135 10.4333 36.4632 10.4333L41.4137 10.4443Z" fill="#029CBC"/>
<path d="M43.2309 5.85575C42.9885 5.83931 42.7453 5.87459 42.5175 5.95924C42.2898 6.04389 42.0826 6.17598 41.9097 6.34677C41.7369 6.51755 41.6023 6.72311 41.5149 6.94984C41.4275 7.17658 41.3893 7.41929 41.4028 7.66191C41.4028 8.14675 41.5954 8.61173 41.9382 8.95457C42.2811 9.2974 42.7461 9.49 43.2309 9.49C43.7157 9.49 44.1807 9.2974 44.5236 8.95457C44.8664 8.61173 45.059 8.14675 45.059 7.66191C45.0737 7.419 45.0363 7.17575 44.9493 6.94847C44.8624 6.72119 44.7278 6.51512 44.5547 6.34409C44.3816 6.17305 44.1739 6.041 43.9456 5.95678C43.7173 5.87255 43.4736 5.83811 43.2309 5.85575ZM43.2309 8.52111C43.1167 8.52903 43.0021 8.51155 42.8955 8.46992C42.7888 8.42829 42.6927 8.36355 42.614 8.28035C42.5354 8.19714 42.4761 8.09755 42.4405 7.98872C42.405 7.87989 42.3939 7.76454 42.4083 7.65094C42.4302 7.17198 42.7556 6.9197 43.2857 6.9197C43.3904 6.9155 43.4947 6.93383 43.5916 6.97343C43.6886 7.01304 43.7759 7.073 43.8476 7.14926C43.9194 7.22553 43.9739 7.31631 44.0075 7.41548C44.0412 7.51465 44.0531 7.61988 44.0426 7.72406C44.0462 7.83066 44.0277 7.93685 43.9883 8.03594C43.9488 8.13503 43.8893 8.22486 43.8133 8.29976C43.7374 8.37466 43.6468 8.433 43.5471 8.4711C43.4475 8.5092 43.3411 8.52623 43.2346 8.52111H43.2309Z" fill="#089DBD"/>
<path d="M38.072 0.00586021C37.8199 -0.0143721 37.5664 0.0179161 37.3274 0.100683C37.0885 0.183451 36.8693 0.314897 36.6837 0.486711C36.4982 0.658525 36.3503 0.86697 36.2494 1.09887C36.1485 1.33076 36.0969 1.58107 36.0977 1.83396C36.0947 2.07484 36.14 2.31388 36.2308 2.53701C36.3217 2.76013 36.4562 2.96283 36.6265 3.13317C36.7969 3.30352 36.9996 3.43806 37.2227 3.52889C37.4458 3.61972 37.6849 3.665 37.9258 3.66205C38.1679 3.6773 38.4106 3.64121 38.6378 3.55614C38.865 3.47107 39.0717 3.33893 39.2443 3.1684C39.4169 2.99787 39.5516 2.79279 39.6394 2.5666C39.7272 2.34041 39.7662 2.09822 39.7539 1.85589C39.7702 1.6228 39.7392 1.3888 39.6626 1.16803C39.5861 0.947258 39.4656 0.744294 39.3084 0.571391C39.1512 0.398489 38.9606 0.259234 38.7481 0.162034C38.5356 0.0648353 38.3056 0.0117079 38.072 0.00586021ZM38.0208 2.6895C37.9128 2.7007 37.8037 2.68842 37.7009 2.6535C37.5981 2.61858 37.504 2.56184 37.4252 2.48718C37.3464 2.41252 37.2846 2.3217 37.2442 2.22094C37.2037 2.12018 37.1855 2.01187 37.1909 1.90342C37.176 1.79598 37.1852 1.68657 37.2179 1.58312C37.2505 1.47968 37.3058 1.38479 37.3796 1.30534C37.4535 1.22589 37.5441 1.16387 37.6449 1.12376C37.7456 1.08366 37.8541 1.06648 37.9623 1.07347C38.0698 1.06233 38.1784 1.07358 38.2813 1.1065C38.3843 1.13942 38.4792 1.1933 38.5603 1.26474C38.6414 1.33619 38.7068 1.42365 38.7523 1.52162C38.7979 1.61958 38.8227 1.72593 38.8252 1.83396C38.8292 2.05331 38.7473 2.26554 38.5971 2.42538C38.4468 2.58522 38.24 2.68 38.0208 2.6895Z" fill="#079DBD"/>
<path d="M38.4705 12.2578C37.9857 12.3039 37.5339 12.5235 37.198 12.8761C36.8622 13.2288 36.6649 13.6908 36.6424 14.1773C36.6376 14.6621 36.8255 15.129 37.1649 15.4753C37.5043 15.8215 37.9674 16.0188 38.4522 16.0236C38.9371 16.0285 39.404 15.8405 39.7503 15.5011C40.0965 15.1617 40.2938 14.6987 40.2986 14.2138C40.3162 13.9632 40.2819 13.7117 40.198 13.4749C40.114 13.2381 39.9822 13.0212 39.8106 12.8376C39.6391 12.6541 39.4315 12.5078 39.201 12.4081C38.9704 12.3083 38.7217 12.2571 38.4705 12.2578ZM38.529 14.9743C38.422 14.9865 38.3136 14.9748 38.2116 14.9402C38.1096 14.9057 38.0165 14.849 37.939 14.7742C37.8614 14.6995 37.8013 14.6085 37.763 14.5078C37.7247 14.4072 37.7091 14.2993 37.7173 14.1919C37.7084 14.0877 37.7202 13.9828 37.7523 13.8833C37.7844 13.7838 37.836 13.6917 37.904 13.6124C37.9721 13.533 38.0554 13.4681 38.1489 13.4213C38.2424 13.3745 38.3443 13.3469 38.4486 13.34C38.9349 13.3766 39.2858 13.6032 39.3224 14.0932C39.3399 14.2054 39.3322 14.3201 39.2999 14.4289C39.2675 14.5378 39.2113 14.6381 39.1353 14.7224C39.0593 14.8068 38.9655 14.8732 38.8606 14.9168C38.7557 14.9604 38.6424 14.98 38.529 14.9743Z" fill="#069CBD"/>
<path d="M13.9704 28.3413C13.9556 28.382 13.9323 28.419 13.902 28.4499C13.8718 28.4808 13.8353 28.5048 13.7949 28.5205L13.9704 28.3413Z" fill="#CCECF3"/>
<path d="M16.9136 22.4878C16.8515 22.4549 16.8222 22.411 16.8332 22.3635C16.8442 22.3159 16.8588 22.2867 16.8771 22.2867C16.888 22.3525 16.9027 22.422 16.9136 22.4878Z" fill="#CAEAF1"/>
<path d="M14.4859 28.7947C14.1203 28.9373 14.0399 28.5497 13.7949 28.5205L13.9704 28.3413C14.0819 28.3793 14.1849 28.4388 14.2733 28.5166C14.3618 28.5944 14.434 28.6889 14.4859 28.7947Z" fill="#68BBD2"/>
<path d="M16.9137 22.4878C16.7989 22.4895 16.6852 22.4662 16.5804 22.4194C16.4756 22.3727 16.3822 22.3037 16.3068 22.2172C16.5334 22.0161 16.6943 22.2465 16.8771 22.2867C16.8881 22.3525 16.9027 22.422 16.9137 22.4878Z" fill="#55B2CB"/>
</svg>
