<svg width="40" height="43" viewBox="0 0 40 43" fill="none" xmlns="http://www.w3.org/2000/svg">
<path d="M13.2214 6.27225C13.7445 6.84201 14.2995 7.38018 14.8836 7.88405C17.2806 9.72663 17.7353 13.9516 14.7163 16.4083C14.4454 16.6064 14.1493 16.7655 13.8361 16.8811C13.4724 17.0337 13.1086 17.0895 12.9304 16.6131C12.7522 16.1366 13.0177 15.9691 13.4142 15.7867C13.902 15.5712 14.3417 15.2561 14.7063 14.8606C15.0709 14.465 15.3528 13.9975 15.5346 13.4866C15.7165 12.9757 15.7945 12.4322 15.7638 11.8893C15.7332 11.3465 15.5946 10.8158 15.3565 10.3297C14.5672 8.75881 13.1195 7.74632 11.9665 6.48443C11.9398 6.44532 11.9035 6.41409 11.8612 6.39391C11.819 6.37372 11.7723 6.36527 11.7258 6.36942C11.6793 6.37357 11.6348 6.39017 11.5966 6.41755C11.5584 6.44493 11.5279 6.48212 11.5082 6.52538C11.4112 6.64725 11.3638 6.80274 11.376 6.95945C11.3882 7.11616 11.459 7.26202 11.5737 7.36664L13.1741 9.01938C13.4033 9.25761 13.7633 9.51074 13.4505 9.86809C13.1377 10.2254 12.8031 9.94998 12.5303 9.67824C11.0535 8.16447 9.578 6.64822 8.10367 5.12948C7.85996 4.87636 7.649 4.55623 7.29618 4.91358C6.94336 5.27093 7.22343 5.51661 7.47077 5.76973C8.37283 6.68544 9.27246 7.60611 10.1697 8.53175C10.377 8.74392 10.6825 8.96354 10.3734 9.30228C10.0642 9.64102 9.79139 9.45862 9.52586 9.18317C8.2334 7.8431 6.93123 6.50676 5.61937 5.17415C5.40841 4.95825 5.20108 4.52645 4.81916 4.92847C4.43724 5.33049 4.74641 5.54639 4.99011 5.79579C6.25227 7.07257 7.52169 8.37541 8.78021 9.67824C8.99845 9.90531 9.42402 10.1584 9.11848 10.5083C8.81295 10.8582 8.41648 10.6163 8.11458 10.3073C7.19797 9.35812 6.29591 8.40519 5.34293 7.48575C5.10287 7.25124 4.88463 6.61844 4.4336 7.03534C3.89528 7.53042 4.50635 7.85055 4.79734 8.15206C5.74304 9.15711 6.72148 10.1287 7.6781 11.13C7.86724 11.331 8.23461 11.5022 7.88906 11.8745C7.54352 12.2467 7.30709 12.0531 7.04157 11.774C6.38321 11.0853 5.71758 10.4116 5.04831 9.73408C4.87736 9.56285 4.68458 9.33578 4.4336 9.55913C4.37845 9.60136 4.33259 9.655 4.29902 9.71656C4.26545 9.77812 4.24491 9.84622 4.23873 9.91643C4.23256 9.98665 4.24089 10.0574 4.26318 10.1241C4.28547 10.1908 4.32123 10.252 4.36813 10.3036C4.57855 10.5669 4.80578 10.8156 5.04831 11.0481C6.23408 12.2839 7.43804 13.4937 8.63108 14.737C9.24165 15.4356 10.0506 15.9211 10.9444 16.1254C11.3445 16.2036 11.5846 16.4046 11.4827 16.8066C11.3809 17.2086 10.999 17.2086 10.6571 17.1156C9.71613 16.8769 8.85543 16.3831 8.1655 15.6862C6.71057 14.1972 5.25564 12.7083 3.80071 11.2193C3.58451 11.0227 3.418 10.7754 3.31539 10.4986C3.21279 10.2218 3.17713 9.92378 3.21146 9.62985C2.83929 10.0441 2.55119 10.5299 2.36387 11.0589C2.17655 11.588 2.09375 12.1499 2.12026 12.712C2.22575 14.9454 2.37851 17.1789 2.54219 19.39C2.81863 23.4064 3.1278 27.4192 3.43698 31.4356C3.57883 33.3192 3.70614 35.2064 3.88073 37.0862C3.93529 37.6818 3.78616 38.1248 3.20055 38.1583C2.61494 38.1918 2.70951 37.6781 2.6695 37.2723C2.2112 31.0609 1.75895 24.8495 1.31278 18.638C1.17456 16.7768 0.949043 14.9157 0.894483 13.0768C0.857286 12.1716 1.00681 11.2686 1.33332 10.4265C1.65983 9.58437 2.15601 8.82209 2.78953 8.18929C3.02184 7.92811 3.17146 7.60109 3.21874 7.25124C3.38605 6.47698 3.54246 5.71017 3.65158 4.92102C3.68624 4.68232 3.77924 4.45643 3.92197 4.26432C4.06469 4.07221 4.2525 3.92009 4.46799 3.82208C4.68348 3.72406 4.91967 3.68333 5.15465 3.70365C5.38963 3.72397 5.61579 3.80468 5.81215 3.93831C5.95197 4.02316 6.11153 4.06794 6.27409 4.06794C6.43665 4.06794 6.59621 4.02316 6.73603 3.93831C7.62718 3.54002 8.43103 3.70008 9.00572 4.49667C10.217 6.17547 11.7774 5.61339 13.1959 5.08853C14.6145 4.56367 15.3783 3.44323 15.3783 1.87238C15.3783 1.47037 15.3783 1.06462 15.3783 0.662606C15.3783 0.260587 15.5565 1.99439e-05 15.953 1.99439e-05C16.1219 -0.00130554 16.2849 0.0634827 16.4087 0.181123C16.5324 0.298762 16.6075 0.460357 16.6186 0.632827C16.8201 1.83493 16.5862 3.07096 15.9608 4.10917C15.3353 5.14739 14.3613 5.91648 13.2214 6.27225Z" fill="#019ABB"/>
<path d="M37.9261 13.4217C38.0352 10.4438 36.362 8.16193 33.7723 7.61101C31.7863 7.19038 29.7712 6.86654 27.7889 6.4943C24.6935 5.90988 23.3331 4.14547 23.4241 0.910707C23.4241 0.389572 23.6023 0.0173325 24.1042 0.0098877C24.7117 0.0098877 24.6971 0.497521 24.6535 0.955375C24.3952 3.56105 25.7629 5.15796 28.3235 5.52647C30.1422 5.79076 31.9609 6.18906 33.7795 6.49802C37.5187 7.14199 39.3665 10.4214 39.0828 13.7381C38.4353 21.5551 37.9224 29.3721 37.3623 37.1892C37.3332 37.6396 37.2641 38.0192 36.7294 37.9932C36.1947 37.9671 36.0965 37.647 36.1365 37.1556C36.5318 31.9666 36.9198 26.7764 37.3005 21.5849C37.5223 18.7708 37.7333 15.9603 37.9261 13.4217Z" fill="#019ABB"/>
<path d="M11.7374 33.762C11.5675 34.987 11.3147 36.1984 10.9809 37.3876C10.6462 38.8765 10.2534 40.3953 9.88966 41.8954C9.76599 42.4016 9.66414 43.1014 8.99851 42.9414C8.33288 42.7813 8.52202 42.1522 8.63478 41.6162C9.14037 39.4796 9.57321 37.328 10.1297 35.2062C10.5225 33.7173 10.1734 32.3214 9.86056 30.9069C8.92455 26.6559 7.974 22.4074 7.00889 18.1614C6.92887 17.7892 6.80156 17.4169 7.27442 17.2196C7.74727 17.0224 7.93641 17.3499 8.1401 17.6887C8.28376 17.8846 8.39215 18.1052 8.46019 18.3401C9.52956 23.3604 10.605 28.3781 11.6865 33.3934C11.712 33.5014 11.7192 33.6391 11.7374 33.762Z" fill="#019ABB"/>
<path d="M19.4121 22.6097C19.4121 19.0735 19.4121 15.5372 19.4121 12.0046C19.4121 11.4351 19.1575 10.5939 20.1105 10.6311C21.0016 10.6683 20.6088 11.4723 20.6088 11.9488C20.6282 19.1454 20.6282 26.3421 20.6088 33.5387C20.6088 33.695 20.6088 33.8476 20.6088 34.004C20.6306 34.5065 20.3723 34.782 19.9068 34.7485C19.4412 34.715 19.3684 34.3762 19.3721 33.9556C19.3721 31.0075 19.3721 28.063 19.3721 25.1186C19.4157 24.2848 19.4121 23.451 19.4121 22.6097Z" fill="#0B9CBE"/>
<path d="M33.0594 17.9494C32.6956 19.6431 32.3064 21.3927 31.9136 23.1608C31.3935 25.465 30.8624 27.784 30.3532 30.1068C30.3353 30.233 30.3074 30.3575 30.2695 30.479C30.1386 30.7991 29.9676 31.1528 29.5421 31.0188C29.1165 30.8848 29.0365 30.5981 29.142 30.1366C30.0767 26.0568 30.9861 21.9882 31.8954 17.9122C31.99 17.4841 32.1136 17.1119 32.6411 17.1901C33.0303 17.2496 33.0885 17.5511 33.0594 17.9494Z" fill="#049BBC"/>
<path d="M28.3163 34.097C28.4218 33.5461 28.4181 32.9431 28.7382 32.4294C28.8728 32.2172 29.0547 32.0386 29.342 32.1465C29.6294 32.2545 29.804 32.4369 29.7567 32.6937C29.3929 34.7708 30.3386 36.632 30.666 38.5937C30.8551 39.7104 31.1789 40.8271 31.448 41.9439C31.5681 42.4389 31.4153 42.8558 30.957 42.9787C30.4987 43.1015 30.295 42.6697 30.1968 42.2603C29.5906 39.7365 28.9843 37.2102 28.3781 34.6815C28.3463 34.4881 28.3257 34.2929 28.3163 34.097Z" fill="#049BBC"/>
</svg>
