<svg width="38" height="46" viewBox="0 0 38 46" fill="none" xmlns="http://www.w3.org/2000/svg">
<path d="M22.5742 44.5442C20.7117 44.297 18.6413 43.685 16.5212 43.2612C15.1651 42.9905 13.8089 42.6962 12.4935 42.3392C12.2678 42.277 12.0291 42.2592 11.7945 42.287C11.56 42.3148 11.3355 42.3876 11.1373 42.5001C10.6853 42.7041 10.5 42.912 10.8616 43.3279C11.2232 43.7438 11.0967 44.1126 10.622 44.4186C9.89421 44.8816 9.17545 45.3564 8.45217 45.8272C8.38491 45.886 8.304 45.9318 8.21482 45.9614C8.12563 45.991 8.03021 46.0038 7.93488 45.999C7.83955 45.9942 7.7465 45.9718 7.66188 45.9334C7.57727 45.895 7.50304 45.8414 7.4441 45.7762C7.32666 45.6442 7.27322 45.4777 7.29518 45.3121C7.31713 45.1465 7.41274 44.9948 7.56164 44.8895C7.9498 44.5801 8.374 44.3066 8.82737 44.0734C9.33819 43.7987 9.33819 43.5359 8.99915 43.1278C7.30548 41.0876 5.62838 39.0356 3.96785 36.9719C3.60169 36.5285 3.31238 36.5364 2.86033 36.8502C2.50295 37.0823 2.12508 37.2896 1.73021 37.4701C1.65108 37.5157 1.56211 37.5469 1.46868 37.5617C1.37525 37.5765 1.27933 37.5747 1.18674 37.5564C1.09415 37.538 1.00682 37.5035 0.93006 37.455C0.853302 37.4064 0.788716 37.3449 0.740226 37.274C0.681958 37.2078 0.640421 37.1317 0.618322 37.0507C0.596224 36.9696 0.594062 36.8854 0.611978 36.8036C0.629894 36.7218 0.667484 36.6442 0.722297 36.5758C0.777109 36.5075 0.847912 36.4499 0.930086 36.4069C1.56747 36.0145 2.22747 35.6222 2.86937 35.2298C3.04193 35.1255 3.25099 35.0767 3.46055 35.0917C3.67012 35.1068 3.8671 35.1847 4.01758 35.3122C4.63236 35.8027 5.03017 35.5163 5.53646 35.1867C6.77507 34.402 8.03629 33.6173 9.31106 32.8561C9.89485 32.499 10.5665 32.2649 11.2727 32.1722C11.9789 32.0796 12.7002 32.1311 13.3795 32.3225C17.0547 33.2681 20.7434 34.1744 24.423 35.0964C25.517 35.3711 26.4075 35.8105 26.742 36.8738C27.3388 38.7688 25.7837 40.3382 23.5506 39.9655C21.5209 39.6281 19.5183 39.1808 17.4977 38.7884C16.9371 38.706 16.7699 38.451 16.8738 37.9802C16.9778 37.5094 17.353 37.5447 17.8096 37.6389C19.672 38.0312 21.5435 38.3647 23.4059 38.7453C24.31 38.9336 25.1056 38.7884 25.4492 38.0234C25.7927 37.2583 25.1689 36.5481 24.1156 36.2853C20.2687 35.3122 16.4218 34.3745 12.5342 33.4133C12.2102 33.3229 11.8662 33.3 11.5301 33.3464C11.194 33.3927 10.8752 33.507 10.5994 33.6801C9.08956 34.5942 7.58876 35.528 6.07892 36.4265C5.56358 36.7286 5.60427 36.9719 5.9433 37.3642C7.06438 38.6747 8.15382 40.0086 9.24778 41.3348C9.50544 41.6487 9.72243 41.9312 10.2197 41.5898C11.1916 40.911 12.2494 41.0405 13.384 41.2995C16.25 41.9704 19.1386 42.5668 22.0091 43.2298C22.4522 43.3539 22.9234 43.3831 23.3824 43.3148C23.8413 43.2464 24.2744 43.0827 24.6445 42.8375C28.0123 40.7463 31.4253 38.706 34.8066 36.6423C35.1262 36.4701 35.413 36.2556 35.6564 36.0067C35.8519 35.7977 35.959 35.537 35.9598 35.2678C35.9607 34.9986 35.8552 34.7374 35.661 34.5275C35.5078 34.3185 35.2758 34.1621 35.0047 34.0848C34.7335 34.0076 34.4398 34.0143 34.1737 34.1038C33.6276 34.2323 33.1119 34.4435 32.6503 34.7276C31.6061 35.3672 30.5347 35.9753 29.486 36.6266C29.4162 36.6815 29.3339 36.7231 29.2445 36.7487C29.155 36.7742 29.0604 36.7833 28.9666 36.7751C28.8729 36.767 28.7822 36.7419 28.7004 36.7014C28.6185 36.661 28.5474 36.6061 28.4915 36.5403C28.4292 36.4806 28.3828 36.4098 28.3555 36.3328C28.3283 36.2558 28.3209 36.1746 28.3338 36.0949C28.3467 36.0151 28.3797 35.9388 28.4304 35.8714C28.4811 35.8039 28.5482 35.747 28.6271 35.7046C30.2997 34.7708 31.7914 33.5663 33.6358 32.8954C34.232 32.6771 34.8992 32.6533 35.514 32.8286C36.1288 33.0038 36.6499 33.3662 36.9809 33.8488C37.7042 34.9316 37.4918 36.4108 36.339 37.1249C32.4514 39.5378 28.5276 41.9037 24.5858 44.2774C24.1066 44.5677 23.4783 44.5246 22.5742 44.5442Z" fill="#029BBB"/>
<path d="M23.2974 17.6565C23.3517 16.6756 23.8987 15.8007 23.98 14.7688L20.5128 18.6177C20.3998 18.7472 20.2913 18.8806 20.1738 19.0101C19.0889 20.1871 18.5781 20.1871 17.6152 18.9709C16.2319 17.2367 14.8713 15.4868 13.3343 13.5251C13.3027 14.9179 13.4473 16.0596 13.4744 17.2014C13.5694 20.8228 13.5016 24.4481 13.5196 28.0694C13.5196 28.7953 13.2846 29.1445 12.3488 29.117C10.622 29.0621 8.89066 29.117 7.15932 29.117C6.78412 29.117 6.40892 29.1484 6.14673 28.8424C6.54001 28.4971 7.05082 28.5638 7.53 28.5559C8.95847 28.5559 10.3915 28.5559 11.8199 28.5559C12.5749 28.5559 12.9003 28.2892 12.6201 27.6496C12.4853 27.2057 12.4515 26.7433 12.5206 26.2882C12.5206 23.3573 12.5206 20.4265 12.5206 17.4956C12.5206 20.5991 12.5523 23.6987 12.489 26.8021C12.489 27.0964 12.5387 27.3828 12.5523 27.6732C12.5658 27.9635 12.5025 28.3676 11.9149 28.1832C11.8846 28.1322 11.8719 28.0748 11.8784 28.0177C11.8848 27.9607 11.91 27.9064 11.951 27.8615C11.951 22.8263 11.951 17.7938 11.951 12.7639C11.951 12.505 11.951 12.2421 11.951 11.9792C11.951 11.5594 12.0414 11.171 12.5884 11.065C13.1354 10.9591 13.2801 11.3004 13.5242 11.6182C15.2736 13.886 17.0501 16.1381 18.899 18.504L23.6094 13.2465C24.0614 12.76 24.5135 12.2774 24.9158 11.7713C25.2186 11.4025 25.5577 11.0572 26.1047 11.3083C26.6516 11.5594 26.4753 12.0263 26.3488 12.4422C25.6797 14.6106 25.0137 16.7802 24.3507 18.9512C24.3392 19.0478 24.3392 19.1451 24.3507 19.2416C24.1383 19.5319 23.8987 19.5045 23.8128 19.2023C23.6728 18.8274 23.6728 18.4238 23.8128 18.0488C24.1066 17.4093 23.3743 17.8527 23.2974 17.6565Z" fill="#0D9CBD"/>
<path d="M21.4396 14.3216C20.9152 15.1495 20.427 15.9891 19.8574 16.7895C19.3421 17.5114 18.4606 17.3976 17.9498 16.5266C16.9779 14.8748 15.8749 13.2544 15.1652 11.5163C14.2294 9.22891 12.6563 8.23626 9.85811 8.66393C8.90881 8.80909 7.90526 8.66392 6.92884 8.68747C5.73995 8.68747 5.37831 9.00527 5.37379 10.0293C5.37379 12.3442 5.37379 14.6629 5.37379 16.9817C5.37379 17.1779 5.37379 17.3741 5.37379 17.5702C5.37379 17.9626 5.17941 18.3275 4.69572 18.3236C4.21203 18.3196 4.03121 17.9783 4.03573 17.5624C4.03573 16.7777 4.03573 15.993 4.03573 15.2083V10.1078C4.03573 8.2088 4.89462 7.47903 7.12774 7.48295C8.8184 7.48295 10.5181 7.54573 12.2042 7.46334C12.8037 7.39723 13.4117 7.5019 13.9367 7.76158C14.4618 8.02127 14.8754 8.42192 15.1154 8.90326C16.0873 10.555 17.0366 12.2147 17.995 13.8704C18.2625 14.4589 18.6182 15.0143 19.0528 15.5222L20.5265 13.5251C21.1277 12.9366 21.3627 12.1284 22.0815 11.6105C22.2389 11.577 22.4033 11.577 22.5607 11.6105C22.6674 11.6293 22.7661 11.6734 22.8458 11.7377C22.9256 11.8021 22.9833 11.8843 23.0127 11.9754L22.9359 12.1598C22.5788 12.2864 22.2747 12.5044 22.0639 12.7847C21.8531 13.0651 21.7457 13.3945 21.756 13.7292C21.7208 13.9496 21.6106 14.1558 21.4396 14.3216Z" fill="#059CBC"/>
<path d="M23.2975 17.6565C23.3904 17.6506 23.4789 17.6198 23.5509 17.5686C23.6229 17.5173 23.6749 17.448 23.6998 17.3701C23.7721 17.1425 23.962 17.0248 24.1971 17.1465C24.2462 17.173 24.2872 17.2095 24.3164 17.2529C24.3457 17.2962 24.3624 17.3451 24.3651 17.3953C24.3677 17.4455 24.3563 17.4955 24.3318 17.541C24.3072 17.5865 24.2703 17.6261 24.2242 17.6565C23.6817 18.1234 24.2558 18.7119 23.9756 19.2259C23.9213 19.324 24.1971 19.2887 24.3327 19.2573C26.5929 19.4731 26.5929 19.4731 26.5929 21.5682C26.5929 23.3652 26.5929 25.1621 26.5929 26.9591C26.5929 27.3515 26.3714 27.8929 27.2755 27.9047C28.1796 27.9164 28.0033 27.4417 28.0033 26.9983V20.7208C28.0033 20.4932 28.0033 20.2656 28.0033 20.0341C28.035 19.6222 28.2881 19.3279 28.7673 19.3397C29.2464 19.3515 29.3369 19.681 29.3369 20.0498C29.3369 21.1288 29.3369 22.2038 29.3369 23.2828C29.3369 24.7868 29.3369 26.2895 29.3369 27.7909C29.6126 28.2499 30.0601 27.9714 30.4308 27.9596C31.5112 27.9282 31.6197 28.0381 31.3349 28.9993H31.0998C29.9019 28.8071 28.6904 28.9993 27.4835 28.9326C26.932 28.9648 26.3781 28.9398 25.8335 28.8581C25.1554 28.5403 25.169 27.9714 25.1644 27.4181C25.1644 25.374 25.1644 23.326 25.1644 21.2818C25.1644 20.9326 25.2729 20.5991 24.6175 20.5285C22.8906 20.3441 22.633 19.9871 22.9946 18.5001C23.1167 18.2176 23.2026 17.939 23.2975 17.6565Z" fill="#059CBD"/>
<path d="M11.9467 28.0577C12.5208 28.1244 12.3354 27.7987 12.3354 27.5319C12.3535 24.0479 12.3776 20.5651 12.4077 17.0837C12.4157 17.0276 12.4397 16.9741 12.4776 16.9282C12.5155 16.8823 12.5661 16.8453 12.6247 16.8208V18.5236C12.6247 21.0032 12.6247 23.479 12.6247 25.9586C12.6247 26.5981 12.5795 27.218 12.9909 27.8419C13.3435 28.3755 13.2666 28.8816 12.2269 28.8541C10.2017 28.7992 8.15849 28.8345 6.14235 28.8345C5.99736 28.4313 5.95722 28.0052 6.02482 27.5869C6.02482 24.2127 6.03687 20.8385 6.06098 17.4643C6.13567 17.4048 6.23119 17.3689 6.33221 17.3622C6.63961 17.5231 7.16398 17.2249 7.3222 17.7075C7.3222 20.8777 7.3674 24.0479 7.28604 27.2141C7.28604 27.8301 7.53014 27.9988 8.19013 27.9988C8.85012 27.9988 9.14395 27.9007 9.13491 27.2612C9.10327 24.8757 9.13491 22.4902 9.13491 20.1087C9.07801 19.7452 9.09639 19.3758 9.18916 19.018C9.95764 19.1474 9.7949 19.7124 9.75874 20.1048C9.5734 21.992 9.75874 23.8792 9.67285 25.3897C9.67285 24.3068 9.67285 22.8473 9.67285 21.3877C9.67285 21.0856 9.49203 20.6227 10.1656 20.603C10.5227 21.3289 10.3057 22.0861 10.3283 22.8277C10.3645 24.1656 10.3283 25.5074 10.3283 26.8414C10.4504 27.1435 9.79038 27.4142 10.2786 27.736C10.7713 28.1793 11.4494 27.7791 11.9467 28.0577Z" fill="#089DBD"/>
<path d="M9.78573 0.000817368C9.29814 -0.0076068 8.81357 0.0690118 8.36074 0.226132C7.9079 0.383252 7.49601 0.617676 7.14949 0.915509C6.80297 1.21334 6.52886 1.56852 6.34341 1.96C6.15796 2.35148 6.06495 2.77129 6.06989 3.19454C6.06966 4.04924 6.4552 4.87001 7.14387 5.48094C7.83255 6.09187 8.76956 6.44434 9.75408 6.46281C10.7393 6.44763 11.6791 6.10067 12.375 5.4952C13.0709 4.88974 13.4684 4.0732 13.4835 3.21808C13.4958 2.79332 13.4087 2.3708 13.2274 1.97613C13.0461 1.58146 12.7743 1.22286 12.4285 0.922043C12.0828 0.62123 11.6703 0.384474 11.216 0.226123C10.7617 0.0677718 10.2751 -0.00887835 9.78573 0.000817368ZM9.81737 5.29361C9.1735 5.29361 8.5558 5.07243 8.09925 4.67837C7.6427 4.28432 7.38441 3.74944 7.38083 3.19061C7.38433 2.65212 7.63111 2.13631 8.06813 1.75407C8.50516 1.37182 9.09753 1.15366 9.71792 1.14648C10.3571 1.1433 10.9719 1.35905 11.4289 1.7469C11.8859 2.13475 12.1483 2.66339 12.159 3.21808C12.1304 3.75323 11.8759 4.26055 11.4441 4.64332C11.0122 5.0261 10.4332 5.25757 9.81737 5.29361Z" fill="#079DBC"/>
<path d="M22.5697 11.7713H22.1177C22.0406 11.6878 21.9987 11.584 21.9987 11.477C21.9987 11.37 22.0406 11.2662 22.1177 11.1827C22.6194 10.0842 23.4467 9.14644 24.0931 8.11849C24.2222 7.93701 24.3948 7.78177 24.5992 7.6633C24.8035 7.54483 25.0349 7.4659 25.2775 7.43188C27.5109 6.95823 29.8377 6.9207 32.0898 7.32202C32.5436 7.37203 32.9641 7.55475 33.2821 7.84004C33.6002 8.12534 33.7967 8.49618 33.8393 8.89141C34.1286 10.3313 34.7795 11.7006 34.983 13.1602C34.8925 13.4976 34.6982 13.7762 34.2732 13.7722C33.8483 13.7683 33.8574 13.3799 33.6856 13.1602C33.2968 11.8811 32.8629 10.606 32.5419 9.31515C32.5174 9.09001 32.4026 8.87947 32.2176 8.72028C32.0325 8.56109 31.7889 8.46336 31.5293 8.44414C29.7151 8.20933 27.87 8.21992 26.0595 8.47552C25.802 8.52391 25.5612 8.624 25.3563 8.76777C25.1514 8.91154 24.9881 9.09498 24.8797 9.30338C24.6414 9.77159 24.3246 10.2066 23.9394 10.5942C23.6309 10.8756 23.3992 11.2134 23.2613 11.5829C23.0805 11.7713 22.7505 11.6143 22.5697 11.7713Z" fill="#069CBD"/>
<path d="M31.3847 28.9876C31.3847 28.1597 30.9869 27.7673 30.0602 28.1793C29.4183 28.4657 29.5087 28.0263 29.373 27.787C30.9055 27.9949 30.9371 27.9753 30.9371 26.7159C30.9371 24.6246 30.9733 22.5373 30.9371 20.4383C30.9371 19.5869 31.2807 19.1984 32.2526 19.2926C33.2245 19.3868 33.3194 19.0454 33.012 18.3314C32.7453 17.7271 32.6685 17.0641 32.447 16.4442C32.2978 16.0322 32.352 15.7144 32.8131 15.5535C33.2742 15.3927 33.6404 15.6948 33.7579 16.04C34.1524 17.0551 34.4546 18.0954 34.662 19.1514C34.6997 19.3232 34.6916 19.5003 34.6382 19.669C34.5848 19.8378 34.4877 19.9936 34.3541 20.1247C34.2206 20.2557 34.0542 20.3585 33.8678 20.4251C33.6814 20.4917 33.4799 20.5204 33.2787 20.5089C32.3475 20.5089 32.2707 20.8542 32.2842 21.5055C32.3204 23.53 32.2842 25.5506 32.2842 27.5751C32.2888 28.195 32.1848 28.76 31.3847 28.9876Z" fill="#069CBD"/>
<path d="M6.29589 17.4603H6.05178C5.80767 17.1817 5.96137 16.9032 6.05178 16.6246C6.14219 16.346 6.31849 16.1224 6.64848 16.1185C6.82053 16.122 6.98541 16.179 7.11315 16.279C7.2409 16.3791 7.32304 16.5157 7.34464 16.6638C7.40737 16.9508 7.43164 17.2431 7.41697 17.5348C7.41697 20.6266 7.41697 23.7222 7.41697 26.8139C7.41697 27.2729 7.11861 27.8693 8.17641 27.885C9.30653 27.885 8.99914 27.2612 9.00366 26.7707C9.00366 24.3264 9.00366 21.886 9.00366 19.4417C9.00366 19.0493 8.90421 18.657 9.4557 18.4333L9.54611 18.5275C9.56552 18.5779 9.57291 18.6313 9.56783 18.6843C9.56275 18.7373 9.5453 18.7889 9.51655 18.8358C9.4878 18.8828 9.44834 18.9242 9.40058 18.9575C9.35282 18.9909 9.29775 19.0154 9.23872 19.0297C9.23872 21.7369 9.16639 24.452 9.26584 27.1592C9.31105 28.3362 8.4612 28.1047 7.74696 28.093C6.94232 28.093 7.15026 27.5241 7.15026 27.0925C7.16834 24.0557 7.1819 21.0189 7.19094 17.9821C7.20617 17.8852 7.19441 17.7865 7.15666 17.6944C7.1189 17.6022 7.05626 17.5193 6.97396 17.4525C6.78862 17.3112 6.88355 17.0405 6.64848 16.9149C6.47671 17.0758 6.52643 17.3387 6.29589 17.4603Z" fill="#21A2C1"/>
<path d="M33.6855 13.1484C34.1376 13.7016 34.549 13.58 34.9829 13.1484C35.2722 14.0391 35.5706 14.9336 35.8463 15.8282C35.89 15.9103 35.9118 15.9999 35.91 16.0903C35.9082 16.1807 35.8828 16.2696 35.8359 16.3503C35.789 16.4311 35.7216 16.5016 35.6389 16.5565C35.5561 16.6115 35.4602 16.6495 35.3581 16.6678C34.8518 16.7894 34.6077 16.5776 34.4992 16.1499C34.2416 15.1494 33.9568 14.1489 33.6855 13.1484Z" fill="#129EBE"/>
<path d="M11.9465 28.0577C11.3543 27.889 10.5542 28.4501 10.1383 27.6654C10.1064 27.6407 10.0809 27.6105 10.0635 27.5767C10.046 27.5429 10.037 27.5062 10.037 27.4692C10.037 27.4322 10.046 27.3955 10.0635 27.3617C10.0809 27.3279 10.1064 27.2977 10.1383 27.273V20.6031C9.77664 20.2892 9.87157 19.8772 9.83088 19.4967C9.87071 19.1371 9.75466 18.7776 9.50541 18.4883L9.46021 18.4413C10.4457 18.0254 10.4502 18.7512 10.4954 19.1985C10.5768 20.0656 10.5225 20.9444 10.5225 21.8194C10.6025 23.4394 10.5874 25.0619 10.4773 26.6806C10.3462 27.8576 10.8661 28.0146 11.942 27.8576L11.9465 28.0577Z" fill="#21A2C1"/>
<path d="M21.4395 14.3215C21.6248 13.6938 21.3852 12.9954 22.009 12.4265C22.1103 12.2987 22.2575 12.2036 22.4276 12.1561C22.5977 12.1085 22.7811 12.1112 22.9493 12.1636C22.4385 12.8738 22.122 13.6938 21.4395 14.3215Z" fill="#169EBE"/>
<path d="M25.8877 28.8581C27.1534 28.8581 28.4192 28.8581 29.6894 28.8306C29.8665 28.8566 30.0479 28.8505 30.2222 28.8127C30.3965 28.7749 30.5598 28.7062 30.702 28.6109C31.0998 28.3049 30.9235 28.9169 31.1541 29.0032C29.3956 28.9679 27.6281 29.2308 25.8877 28.8581Z" fill="#069CBD"/>
<path d="M22.1177 11.1827V11.7713C21.4215 12.2499 21.3899 13.1759 20.5265 13.5368C20.9276 12.6915 21.4632 11.8991 22.1177 11.1827Z" fill="#169EBE"/>
<path d="M23.2613 11.5869C22.9313 10.9709 23.5777 10.861 23.9394 10.5981C23.8517 10.9858 23.6121 11.3351 23.2613 11.5869Z" fill="#169EBE"/>
<path d="M22.5697 11.7713C22.6375 11.2416 23.0218 11.6575 23.2659 11.5869C23.2727 11.6652 23.2538 11.7437 23.2114 11.8131C23.169 11.8825 23.1048 11.9401 23.0263 11.9792L22.5697 11.7713Z" fill="#169EBE"/>
<path d="M9.50546 18.4843C10.066 18.4843 10.1383 18.806 10.1383 19.1827C10.1383 19.6535 10.1383 20.1283 10.1383 20.5991C9.74957 20.9208 9.92587 21.3367 9.92135 21.7094C9.92135 23.3848 9.92135 25.064 9.92135 26.9237C9.73619 26.816 9.59357 26.6615 9.51273 26.4812C9.4319 26.3009 9.41674 26.1034 9.4693 25.9154C9.4693 23.9537 9.4693 21.9919 9.4693 20.0498C9.4693 19.7045 9.61847 19.3239 9.25684 19.0336C9.32916 18.8335 9.41957 18.6648 9.50546 18.4843Z" fill="#049CBC"/>
<path d="M6.29592 17.4603C6.34112 17.1229 6.16935 16.7502 6.55811 16.3892C6.92427 16.6953 7.36275 16.9267 6.97851 17.4564C6.75249 18.0489 6.52194 17.3269 6.29592 17.4603Z" fill="#039CBC"/>
<path d="M10.1383 27.2691V27.6615C9.89874 27.7438 9.5823 27.8616 9.55518 27.5124C9.52806 27.1632 9.91682 27.3083 10.1383 27.2691Z" fill="#049CBC"/>
<path d="M29.0951 0.000817368C28.6075 -0.0076068 28.1229 0.0690118 27.6701 0.226132C27.2172 0.383252 26.8053 0.617676 26.4588 0.915509C26.1123 1.21334 25.8382 1.56852 25.6527 1.96C25.4673 2.35148 25.3743 2.77128 25.3792 3.19454C25.3774 3.61703 25.4716 4.0357 25.6562 4.42663C25.8408 4.81755 26.1124 5.17309 26.4553 5.47293C26.7983 5.77278 27.2059 6.01106 27.655 6.17417C28.104 6.33728 28.5857 6.42202 29.0725 6.42357C29.5592 6.42512 30.0416 6.34343 30.492 6.18318C30.9424 6.02292 31.3521 5.78724 31.6975 5.48958C32.043 5.19192 32.3175 4.83812 32.5055 4.44838C32.6934 4.05863 32.791 3.64058 32.7928 3.21808C32.8052 2.79332 32.7181 2.3708 32.5367 1.97613C32.3554 1.58146 32.0836 1.22286 31.7379 0.922042C31.3921 0.62123 30.9796 0.384474 30.5253 0.226123C30.0711 0.0677718 29.5845 -0.00887835 29.0951 0.000817368ZM29.0951 5.2936C28.4543 5.28949 27.8412 5.06648 27.3886 4.67287C26.9359 4.27926 26.6801 3.74673 26.6766 3.19061C26.6801 2.65212 26.9269 2.13631 27.3639 1.75407C27.8009 1.37182 28.3933 1.15366 29.0137 1.14648C29.6529 1.1433 30.2677 1.35905 30.7247 1.7469C31.1817 2.13475 31.444 2.66339 31.4547 3.21808C31.4257 3.75576 31.1687 4.26516 30.7331 4.6483C30.2975 5.03144 29.7141 5.26128 29.0951 5.2936Z" fill="#079DBC"/>
</svg>
