<svg width="33" height="46" viewBox="0 0 33 46" fill="none" xmlns="http://www.w3.org/2000/svg">
<path d="M10.2498 19.7479C9.9251 19.7479 9.67722 19.8527 9.67722 20.2228C9.667 20.3015 9.67456 20.3815 9.69935 20.4569C9.72414 20.5323 9.76553 20.6012 9.82047 20.6584C9.87541 20.7157 9.94251 20.76 10.0168 20.7879C10.0911 20.8158 10.1707 20.8267 10.2498 20.8198C10.5989 20.8198 10.8643 20.6871 10.9027 20.2926C10.8961 20.2138 10.8739 20.137 10.8375 20.0668C10.801 19.9966 10.7509 19.9344 10.6902 19.8837C10.6294 19.833 10.5592 19.7949 10.4836 19.7716C10.408 19.7483 10.3285 19.7403 10.2498 19.7479ZM11.8942 18.7424C11.4683 18.7424 11.2867 19.0706 11.2972 19.4582C11.2925 19.5315 11.3048 19.6049 11.333 19.6727C11.3613 19.7405 11.4048 19.8009 11.4602 19.8492C11.5156 19.8975 11.5813 19.9324 11.6523 19.9511C11.7234 19.9699 11.7978 19.972 11.8698 19.9574C12.0293 19.9334 12.1756 19.8549 12.2838 19.7353C12.392 19.6156 12.4554 19.4622 12.4633 19.3011C12.4005 18.9833 12.2189 18.725 11.8942 18.7424ZM11.7895 20.5649C11.723 20.5614 11.6565 20.5719 11.5943 20.5957C11.5322 20.6196 11.4757 20.6562 11.4286 20.7033C11.3815 20.7504 11.3449 20.8069 11.321 20.869C11.2972 20.9312 11.2867 20.9977 11.2902 21.0642C11.2778 21.2401 11.3325 21.4143 11.4433 21.5516C11.554 21.6889 11.7126 21.7792 11.8872 21.8043C12.2817 21.8811 12.3516 21.5495 12.4458 21.2003C12.4263 21.035 12.3504 20.8815 12.2308 20.7658C12.1112 20.65 11.9553 20.579 11.7895 20.5649ZM11.7895 20.5649C11.723 20.5614 11.6565 20.5719 11.5943 20.5957C11.5322 20.6196 11.4757 20.6562 11.4286 20.7033C11.3815 20.7504 11.3449 20.8069 11.321 20.869C11.2972 20.9312 11.2867 20.9977 11.2902 21.0642C11.2778 21.2401 11.3325 21.4143 11.4433 21.5516C11.554 21.6889 11.7126 21.7792 11.8872 21.8043C12.2817 21.8811 12.3516 21.5495 12.4458 21.2003C12.4263 21.035 12.3504 20.8815 12.2308 20.7658C12.1112 20.65 11.9553 20.579 11.7895 20.5649ZM11.8698 19.9574C12.0293 19.9334 12.1756 19.8549 12.2838 19.7353C12.392 19.6156 12.4554 19.4622 12.4633 19.3011C12.397 18.9833 12.2189 18.7355 11.8907 18.7424C11.4648 18.7424 11.2832 19.0706 11.2937 19.4582C11.2889 19.5318 11.3012 19.6056 11.3296 19.6738C11.3581 19.7419 11.4019 19.8025 11.4577 19.8509C11.5135 19.8992 11.5798 19.934 11.6512 19.9525C11.7227 19.971 11.7975 19.9727 11.8698 19.9574ZM10.2463 19.7479C9.92161 19.7479 9.67373 19.8527 9.67373 20.2228C9.66341 20.3018 9.67103 20.3821 9.69602 20.4578C9.721 20.5335 9.76272 20.6026 9.81806 20.6599C9.8734 20.7173 9.94095 20.7614 10.0157 20.7891C10.0904 20.8168 10.1704 20.8273 10.2498 20.8198C10.5989 20.8198 10.8643 20.6871 10.9027 20.2926C10.8961 20.2138 10.8739 20.137 10.8375 20.0668C10.801 19.9966 10.7509 19.9344 10.6902 19.8837C10.6294 19.833 10.5592 19.7949 10.4836 19.7716C10.408 19.7483 10.3285 19.7403 10.2498 19.7479H10.2463ZM11.2064 16.487C10.2233 16.5043 9.28589 16.9049 8.59391 17.6034C7.90194 18.3019 7.51017 19.2431 7.50213 20.2263C7.49654 21.2363 7.89122 22.2073 8.59982 22.9271C9.30843 23.6468 10.2733 24.0566 11.2832 24.0667C11.7779 24.059 12.2661 23.9533 12.7196 23.7556C13.1731 23.5579 13.5829 23.2721 13.9251 22.9149C14.2674 22.5577 14.5354 22.1361 14.7136 21.6746C14.8917 21.2131 14.9765 20.7208 14.9631 20.2263C14.9702 19.7321 14.8778 19.2415 14.6916 18.7837C14.5053 18.3259 14.2289 17.9103 13.8787 17.5614C13.5286 17.2126 13.1119 16.9377 12.6535 16.7532C12.195 16.5686 11.7041 16.4781 11.2099 16.487H11.2064ZM11.2693 22.9146C10.7486 22.9042 10.2426 22.7403 9.81476 22.4434C9.38693 22.1465 9.05635 21.7298 8.86453 21.2457C8.67271 20.7615 8.6282 20.2315 8.73658 19.7221C8.84496 19.2127 9.10141 18.7468 9.47373 18.3826C9.84604 18.0185 10.3176 17.7725 10.8293 17.6755C11.3409 17.5785 11.8698 17.6348 12.3496 17.8373C12.8294 18.0399 13.2386 18.3797 13.5259 18.814C13.8132 19.2483 13.9658 19.7579 13.9646 20.2786C13.9438 20.9814 13.6513 21.6487 13.1487 22.1403C12.646 22.6319 11.9723 22.9095 11.2693 22.9146ZM11.7895 20.5614C11.723 20.5579 11.6565 20.5684 11.5943 20.5922C11.5322 20.6161 11.4757 20.6527 11.4286 20.6998C11.3815 20.7469 11.3449 20.8034 11.321 20.8655C11.2972 20.9277 11.2867 20.9942 11.2902 21.0607C11.2778 21.2366 11.3325 21.4108 11.4433 21.5481C11.554 21.6854 11.7126 21.7757 11.8872 21.8008C12.2817 21.8776 12.3516 21.546 12.4458 21.1968C12.4256 21.0322 12.3493 20.8795 12.2298 20.7644C12.1103 20.6493 11.9548 20.5789 11.7895 20.5649V20.5614ZM11.8942 18.7389C11.4683 18.7389 11.2867 19.0671 11.2972 19.4547C11.2919 19.5283 11.3038 19.6021 11.3318 19.6704C11.3598 19.7386 11.4033 19.7995 11.4587 19.8482C11.5141 19.8968 11.5801 19.932 11.6514 19.951C11.7227 19.97 11.7975 19.9722 11.8698 19.9574C12.0293 19.9334 12.1756 19.8549 12.2838 19.7353C12.392 19.6156 12.4554 19.4622 12.4633 19.3011C12.4005 18.9833 12.2189 18.725 11.8942 18.7424V18.7389ZM10.2498 19.7444C9.9251 19.7444 9.67722 19.8492 9.67722 20.2193C9.66642 20.2982 9.67355 20.3786 9.69809 20.4545C9.72262 20.5303 9.76393 20.5997 9.81893 20.6574C9.87394 20.7151 9.94124 20.7596 10.0158 20.7877C10.0904 20.8159 10.1704 20.8268 10.2498 20.8198C10.5989 20.8198 10.8643 20.6871 10.9027 20.2926C10.8961 20.2138 10.8739 20.137 10.8375 20.0668C10.801 19.9966 10.7509 19.9344 10.6902 19.8837C10.6294 19.833 10.5592 19.7949 10.4836 19.7716C10.408 19.7483 10.3285 19.7403 10.2498 19.7479V19.7444ZM18.1786 25.3585C17.9098 25.0862 17.6758 25.2538 17.4245 25.4493C16.2758 26.3396 15.7486 26.343 14.6733 25.4842C14.4045 25.2677 14.1496 25.0478 13.8563 25.3829C13.7512 25.5075 13.6999 25.6687 13.7137 25.831C13.7274 25.9934 13.8051 26.1437 13.9297 26.2488C14.1826 26.5649 14.5086 26.8146 14.8797 26.9764C15.2508 27.1382 15.6556 27.2072 16.0594 27.1775C16.4654 27.1905 16.869 27.1093 17.2385 26.9403C17.608 26.7713 17.9333 26.5191 18.1891 26.2034C18.2452 26.148 18.2896 26.0818 18.3196 26.0088C18.3495 25.9359 18.3645 25.8576 18.3635 25.7787C18.3625 25.6998 18.3456 25.622 18.3139 25.5498C18.2821 25.4776 18.2361 25.4125 18.1786 25.3585ZM20.1861 28.1027C20.1444 28.0422 20.0886 27.9927 20.0235 27.9586C19.9584 27.9244 19.886 27.9066 19.8125 27.9066C19.739 27.9066 19.6666 27.9244 19.6016 27.9586C19.5365 27.9927 19.4807 28.0422 19.439 28.1027C18.8699 28.6403 18.1716 28.7451 17.4175 28.7241C16.4609 28.6997 15.5007 28.7241 14.5441 28.7241C14.2108 28.754 13.8749 28.7179 13.5556 28.6179C13.2363 28.5178 12.9399 28.3558 12.6832 28.1411C12.4493 27.9246 12.1875 27.7919 11.9256 28.0992C11.8677 28.1556 11.8227 28.2238 11.7937 28.2993C11.7647 28.3748 11.7524 28.4556 11.7578 28.5363C11.7631 28.6169 11.7858 28.6955 11.8245 28.7665C11.8631 28.8375 11.9167 28.8993 11.9815 28.9476C12.4963 29.473 13.1976 29.7741 13.9331 29.7855C14.6314 29.7855 15.3297 29.7855 16.0279 29.7855C16.7262 29.7855 17.4245 29.7855 18.1227 29.7855C18.5015 29.7865 18.8761 29.7074 19.2221 29.5534C19.5681 29.3994 19.8776 29.1739 20.1302 28.8917C20.1919 28.8471 20.243 28.7895 20.2799 28.723C20.3169 28.6565 20.3388 28.5827 20.3441 28.5067C20.3494 28.4308 20.3381 28.3547 20.3108 28.2837C20.2834 28.2127 20.2409 28.1485 20.1861 28.0957V28.1027ZM20.8006 16.5045C20.3068 16.5082 19.8185 16.609 19.3637 16.8014C18.9089 16.9937 18.4965 17.2738 18.1499 17.6255C17.8033 17.9773 17.5294 18.3939 17.3439 18.8515C17.1583 19.3091 17.0647 19.7988 17.0683 20.2926C17.0896 21.2891 17.494 22.2391 18.1975 22.9452C18.901 23.6514 19.8495 24.0592 20.846 24.0842C21.8287 24.0624 22.7642 23.658 23.4534 22.9571C24.1425 22.2561 24.5311 21.314 24.5363 20.331C24.5433 18.114 22.9757 16.5045 20.8006 16.4975V16.5045ZM20.7552 22.9146C19.3133 22.8866 18.0389 21.5949 18.1053 20.2193C18.1441 19.5015 18.4642 18.8279 18.9961 18.3443C19.528 17.8608 20.229 17.6062 20.9472 17.6357C21.3024 17.6357 21.6539 17.7073 21.9808 17.8462C22.3076 17.9851 22.6032 18.1884 22.8497 18.4441C23.0962 18.6997 23.2887 19.0025 23.4156 19.3342C23.5425 19.6659 23.6013 20.0198 23.5884 20.3747C23.5754 20.7296 23.4911 21.0783 23.3405 21.3999C23.1898 21.7215 22.9758 22.0095 22.7114 22.2465C22.4469 22.4836 22.1374 22.665 21.8013 22.7797C21.4652 22.8945 21.1094 22.9404 20.7552 22.9146ZM21.9213 19.741C21.5722 19.741 21.2789 19.8666 21.244 20.2542C21.2091 20.6417 21.5198 20.8198 21.8549 20.8198C21.9339 20.8308 22.0142 20.8241 22.0903 20.8003C22.1663 20.7764 22.2361 20.736 22.2945 20.6818C22.353 20.6277 22.3987 20.5613 22.4284 20.4873C22.458 20.4133 22.4708 20.3337 22.4659 20.2542C22.4694 19.8841 22.2565 19.741 21.9213 19.7444V19.741ZM20.3083 20.5649C20.1456 20.5774 19.9939 20.6516 19.8842 20.7723C19.7745 20.893 19.7151 21.0512 19.7183 21.2143C19.7183 21.5076 19.8125 21.8427 20.2001 21.8078C20.5876 21.7729 20.8076 21.518 20.8669 21.0642C20.7971 20.8198 20.6609 20.523 20.3083 20.5684V20.5649ZM20.3083 19.9539C20.379 19.9593 20.4501 19.9492 20.5165 19.9243C20.583 19.8994 20.6432 19.8604 20.693 19.8099C20.7429 19.7594 20.7811 19.6986 20.8051 19.6319C20.8291 19.5651 20.8383 19.4939 20.832 19.4232C20.8465 19.2601 20.7988 19.0974 20.6984 18.9679C20.5981 18.8384 20.4525 18.7516 20.2908 18.725C20.143 18.7208 19.9991 18.7729 19.8883 18.8708C19.7774 18.9686 19.7079 19.105 19.6938 19.2522C19.6802 19.3394 19.6856 19.4284 19.7097 19.5133C19.7338 19.5982 19.776 19.6769 19.8334 19.7439C19.8908 19.8109 19.9621 19.8647 20.0422 19.9015C20.1224 19.9384 20.2096 19.9575 20.2978 19.9574L20.3083 19.9539ZM20.811 16.494C20.3155 16.4963 19.8252 16.5965 19.3685 16.7889C18.9118 16.9813 18.4977 17.2621 18.1499 17.6151C17.802 17.9681 17.5274 18.3864 17.3418 18.8459C17.1562 19.3054 17.0633 19.797 17.0683 20.2926C17.0896 21.2891 17.494 22.2391 18.1975 22.9452C18.901 23.6514 19.8495 24.0592 20.846 24.0842C21.8287 24.0624 22.7642 23.658 23.4534 22.9571C24.1425 22.2561 24.5311 21.314 24.5363 20.331C24.5433 18.114 22.9757 16.5045 20.8006 16.4975L20.811 16.494ZM20.7552 22.9146C19.3133 22.8866 18.0389 21.5949 18.1053 20.2193C18.1441 19.5015 18.4642 18.8279 18.9961 18.3443C19.528 17.8608 20.229 17.6062 20.9472 17.6357C21.3024 17.6357 21.6539 17.7073 21.9808 17.8462C22.3076 17.9851 22.6032 18.1884 22.8497 18.4441C23.0962 18.6997 23.2887 19.0025 23.4156 19.3342C23.5425 19.6659 23.6013 20.0198 23.5884 20.3747C23.5754 20.7296 23.4911 21.0783 23.3405 21.3999C23.1898 21.7215 22.9758 22.0095 22.7114 22.2465C22.4469 22.4836 22.1374 22.665 21.8013 22.7797C21.4652 22.8945 21.1094 22.9404 20.7552 22.9146ZM21.9213 19.741C21.5722 19.741 21.2789 19.8666 21.244 20.2542C21.2091 20.6417 21.5198 20.8198 21.8549 20.8198C21.9339 20.8308 22.0142 20.8241 22.0903 20.8003C22.1663 20.7764 22.2361 20.736 22.2945 20.6818C22.353 20.6277 22.3987 20.5613 22.4284 20.4873C22.458 20.4133 22.4708 20.3337 22.4659 20.2542C22.4694 19.8841 22.2565 19.741 21.9213 19.7444V19.741ZM20.3083 20.5649C20.1456 20.5774 19.9939 20.6516 19.8842 20.7723C19.7745 20.893 19.7151 21.0512 19.7183 21.2143C19.7183 21.5076 19.8125 21.8427 20.2001 21.8078C20.5876 21.7729 20.8076 21.518 20.8669 21.0642C20.7971 20.8198 20.6609 20.523 20.3083 20.5684V20.5649ZM20.3083 19.9539C20.379 19.9593 20.4501 19.9492 20.5165 19.9243C20.583 19.8994 20.6432 19.8604 20.693 19.8099C20.7429 19.7594 20.7811 19.6986 20.8051 19.6319C20.8291 19.5651 20.8383 19.4939 20.832 19.4232C20.8465 19.2601 20.7988 19.0974 20.6984 18.9679C20.5981 18.8384 20.4525 18.7516 20.2908 18.725C20.143 18.7208 19.9991 18.7729 19.8883 18.8708C19.7774 18.9686 19.7079 19.105 19.6938 19.2522C19.6802 19.3394 19.6856 19.4284 19.7097 19.5133C19.7338 19.5982 19.776 19.6769 19.8334 19.7439C19.8908 19.8109 19.9621 19.8647 20.0422 19.9015C20.1224 19.9384 20.2096 19.9575 20.2978 19.9574L20.3083 19.9539ZM19.439 28.0782C18.8699 28.6159 18.1716 28.7206 17.4175 28.6997C16.4609 28.6752 15.5007 28.6997 14.5441 28.6997C14.2108 28.7296 13.8749 28.6935 13.5556 28.5935C13.2363 28.4934 12.9399 28.3314 12.6832 28.1166C12.4493 27.9002 12.1875 27.7675 11.9256 28.0747C11.8677 28.1311 11.8227 28.1994 11.7937 28.2748C11.7647 28.3503 11.7524 28.4312 11.7578 28.5118C11.7631 28.5925 11.7858 28.671 11.8245 28.7421C11.8631 28.8131 11.9167 28.8748 11.9815 28.9231C12.4963 29.4485 13.1976 29.7496 13.9331 29.7611C14.6314 29.7611 15.3297 29.7611 16.0279 29.7611C16.7262 29.7611 17.4245 29.7611 18.1227 29.7611C18.5015 29.7621 18.8761 29.683 19.2221 29.529C19.5681 29.3749 19.8776 29.1494 20.1302 28.8673C20.1889 28.8231 20.2376 28.7669 20.273 28.7026C20.3084 28.6382 20.3298 28.5671 20.3357 28.4938C20.3416 28.4206 20.332 28.347 20.3074 28.2777C20.2828 28.2085 20.2439 28.1453 20.1931 28.0922C20.1527 28.0295 20.0976 27.9777 20.0325 27.9413C19.9674 27.905 19.8943 27.8853 19.8197 27.8839C19.7452 27.8825 19.6715 27.8995 19.605 27.9334C19.5386 27.9673 19.4816 28.0171 19.439 28.0782ZM13.8528 25.376C13.7478 25.5005 13.6964 25.6617 13.7102 25.8241C13.7239 25.9864 13.8016 26.1367 13.9262 26.2418C14.1787 26.5597 14.505 26.8111 14.8767 26.9741C15.2485 27.1372 15.6545 27.207 16.0594 27.1775C16.4654 27.1905 16.869 27.1093 17.2385 26.9403C17.608 26.7713 17.9333 26.5191 18.1891 26.2034C18.247 26.1486 18.2931 26.0825 18.3246 26.0093C18.3561 25.9361 18.3724 25.8572 18.3724 25.7775C18.3724 25.6977 18.3561 25.6188 18.3246 25.5456C18.2931 25.4724 18.247 25.4063 18.1891 25.3515C17.9202 25.0792 17.6863 25.2468 17.4349 25.4423C16.2863 26.3326 15.7591 26.3361 14.6838 25.4772C14.4045 25.2607 14.1496 25.0408 13.8563 25.376H13.8528ZM14.9596 20.2367C14.9681 19.742 14.8769 19.2506 14.6915 18.7918C14.5061 18.333 14.2302 17.9163 13.8803 17.5664C13.5304 17.2165 13.1136 16.9406 12.6549 16.7551C12.1961 16.5697 11.7047 16.4785 11.2099 16.487C10.2262 16.5034 9.28789 16.9036 8.59516 17.6022C7.90244 18.3008 7.51019 19.2425 7.50213 20.2263C7.49654 21.2363 7.89122 22.2073 8.59982 22.9271C9.30843 23.6468 10.2733 24.0566 11.2832 24.0667C11.777 24.059 12.2643 23.9536 12.7171 23.7565C13.1699 23.5595 13.5792 23.2747 13.9213 22.9186C14.2635 22.5625 14.5317 22.1422 14.7105 21.6819C14.8893 21.2216 14.9751 20.7304 14.9631 20.2367H14.9596ZM11.2693 22.9146C10.7486 22.9042 10.2426 22.7403 9.81476 22.4434C9.38693 22.1465 9.05635 21.7298 8.86453 21.2457C8.67271 20.7615 8.6282 20.2315 8.73658 19.7221C8.84496 19.2127 9.10141 18.7468 9.47373 18.3826C9.84604 18.0185 10.3176 17.7725 10.8293 17.6755C11.3409 17.5785 11.8698 17.6348 12.3496 17.8373C12.8294 18.0399 13.2386 18.3797 13.5259 18.814C13.8132 19.2483 13.9658 19.7579 13.9646 20.2786C13.9438 20.9814 13.6513 21.6487 13.1487 22.1403C12.646 22.6319 11.9723 22.9095 11.2693 22.9146ZM11.7895 20.5614C11.723 20.5579 11.6565 20.5684 11.5943 20.5922C11.5322 20.6161 11.4757 20.6527 11.4286 20.6998C11.3815 20.7469 11.3449 20.8034 11.321 20.8655C11.2972 20.9277 11.2867 20.9942 11.2902 21.0607C11.2778 21.2366 11.3325 21.4108 11.4433 21.5481C11.554 21.6854 11.7126 21.7757 11.8872 21.8008C12.2817 21.8776 12.3516 21.546 12.4458 21.1968C12.4256 21.0322 12.3493 20.8795 12.2298 20.7644C12.1103 20.6493 11.9548 20.5789 11.7895 20.5649V20.5614ZM11.8942 18.7389C11.4683 18.7389 11.2867 19.0671 11.2972 19.4547C11.2919 19.5283 11.3038 19.6021 11.3318 19.6704C11.3598 19.7386 11.4033 19.7995 11.4587 19.8482C11.5141 19.8968 11.5801 19.932 11.6514 19.951C11.7227 19.97 11.7975 19.9722 11.8698 19.9574C12.0293 19.9334 12.1756 19.8549 12.2838 19.7353C12.392 19.6156 12.4554 19.4622 12.4633 19.3011C12.4005 18.9833 12.2189 18.725 11.8942 18.7424V18.7389ZM10.2498 19.7444C9.9251 19.7444 9.67722 19.8492 9.67722 20.2193C9.66642 20.2982 9.67355 20.3786 9.69809 20.4545C9.72262 20.5303 9.76393 20.5997 9.81893 20.6574C9.87394 20.7151 9.94124 20.7596 10.0158 20.7877C10.0904 20.8159 10.1704 20.8268 10.2498 20.8198C10.5989 20.8198 10.8643 20.6871 10.9027 20.2926C10.8961 20.2138 10.8739 20.137 10.8375 20.0668C10.801 19.9966 10.7509 19.9344 10.6902 19.8837C10.6294 19.833 10.5592 19.7949 10.4836 19.7716C10.408 19.7483 10.3285 19.7403 10.2498 19.7479V19.7444ZM32.28 38.9746C31.5513 38.4888 30.743 38.1343 29.892 37.9272C28.1219 37.5781 26.3518 37.2604 24.5887 36.8799C23.9939 36.7811 23.4407 36.5113 22.9968 36.1033C22.5529 35.6953 22.2374 35.1669 22.0889 34.5826C21.7921 33.4723 21.7781 32.4878 22.7871 31.4404C24.7877 29.384 25.9293 26.8004 26.3273 23.9166C26.446 23.0822 26.3064 22.2058 26.8336 21.4028C29.0087 18.107 29.2775 14.6017 27.9194 10.9289C26.9488 8.32783 24.8645 6.66596 22.9303 4.8784C22.6195 4.59211 22.1796 4.60259 22.0609 5.13327C21.9737 5.51033 22.2599 5.77567 22.5218 6.02007C23.3492 6.78816 24.1941 7.53879 24.9936 8.3383C27.8146 11.1767 28.5443 16.0646 26.5333 19.7724C26.4805 18.6556 26.1693 17.5664 25.624 16.5904C25.0788 15.6144 24.3144 14.7783 23.3911 14.1479C22.1482 13.2401 20.839 12.4231 19.5891 11.5259C17.5851 10.0909 15.3157 9.04006 13.5212 7.30487C12.2852 6.10735 12.0723 4.72478 12.8892 3.20257C13.2571 2.53599 13.8275 2.00379 14.518 1.68304C15.2084 1.36229 15.9831 1.26964 16.7297 1.4185C18.2484 1.71177 19.0898 2.93374 20.1582 3.86243C20.434 4.10333 20.6958 4.53276 21.0869 4.11729C21.4779 3.70183 21.2475 3.31778 20.8844 2.99309C20.3083 2.46939 19.7497 1.96664 19.2015 1.45691C16.9147 -0.602972 13.2663 -0.026904 11.9536 2.75219C11.4886 3.70985 10.7236 4.48951 9.77498 4.97267C9.37697 5.20659 8.97896 5.45098 8.58793 5.69886C7.317 6.48261 6.21688 7.51421 5.35314 8.73218C4.4894 9.95014 3.87971 11.3295 3.56043 12.7882C3.24114 14.2468 3.21879 15.7547 3.49471 17.2222C3.77063 18.6896 4.33916 20.0865 5.16643 21.3295C5.47359 21.8204 5.64357 22.3846 5.65871 22.9634C5.92056 26.8039 7.56497 29.9775 10.3685 32.5751C10.4882 32.6736 10.5839 32.798 10.6486 32.9389C10.7133 33.0798 10.7453 33.2335 10.7421 33.3885C10.77 35.1831 9.76101 36.5307 7.9944 36.9043C6.51757 37.2255 5.03376 37.5013 3.54297 37.7667C2.39043 37.9432 1.29119 38.3724 0.323968 39.0235C0.244393 39.06 0.174563 39.1147 0.120177 39.1833C0.0657915 39.2519 0.0283919 39.3323 0.0110306 39.4181C-0.00633064 39.5039 -0.0031615 39.5926 0.0202794 39.6769C0.0437203 39.7612 0.0867685 39.8388 0.145911 39.9033C0.40776 40.2769 0.708014 40.2525 1.01874 39.9522C1.74144 39.254 2.65966 39.0061 3.61628 38.828C5.23626 38.5417 6.82132 38.2764 8.40987 37.9272C10.2428 37.5083 11.3077 36.3108 11.6568 34.4674C11.6952 34.2718 11.7441 34.0798 11.8209 33.7481C14.9631 36.5412 17.9342 35.8988 20.839 33.3257C20.8809 33.6504 20.8983 33.7621 20.9123 33.8773C21.1427 35.9721 22.1377 37.421 24.264 37.9342C24.8854 38.0844 25.5278 38.1507 26.1423 38.3113C28.0032 38.8036 30.0526 38.6604 31.683 39.9487C31.7459 40.0007 31.8195 40.0379 31.8986 40.0578C31.9777 40.0777 32.0602 40.0797 32.1401 40.0636C32.2201 40.0476 32.2954 40.0139 32.3607 39.965C32.426 39.9161 32.4795 39.8533 32.5174 39.7811C32.7549 39.425 32.6012 39.1597 32.28 38.9746ZM5.63776 19.102C5.60251 19.2506 5.55342 19.3956 5.49112 19.535C3.28112 15.7504 3.86417 8.81661 11.4054 5.35671C11.5555 7.68543 13.2663 8.76424 15.012 9.86052C13.2 11.065 11.4997 12.1788 9.82036 13.3169C8.90685 13.8915 8.07034 14.5802 7.33105 15.3663C6.37955 16.3971 5.78575 17.7071 5.63776 19.102ZM18.0634 33.9018C16.5935 34.7327 15.0853 34.6 13.6783 33.7237C8.54254 30.5152 6.25223 25.8403 6.57693 19.8352C6.69912 17.6217 7.8757 16.0192 9.61787 14.8042C11.5695 13.4426 13.5875 12.1683 15.5531 10.8276C15.6944 10.7092 15.8738 10.646 16.0581 10.6499C16.2423 10.6537 16.419 10.7243 16.5551 10.8486C18.3194 12.0333 20.086 13.2052 21.8549 14.3643C24.3512 15.9948 25.8735 18.128 25.4859 20.8198C25.465 24.2064 24.7877 26.9575 23.0839 29.398C21.7698 31.2572 20.0539 32.7965 18.0634 33.9018ZM24.5363 20.331C24.5363 18.114 22.9757 16.4905 20.8006 16.4905C20.3056 16.4942 19.8162 16.5955 19.3605 16.7887C18.9048 16.982 18.4917 17.2633 18.1449 17.6165C17.7982 17.9698 17.5246 18.388 17.3398 18.8472C17.1551 19.3064 17.0628 19.7976 17.0683 20.2926C17.0896 21.2891 17.494 22.2391 18.1975 22.9452C18.901 23.6514 19.8495 24.0592 20.846 24.0842C21.8287 24.0624 22.7642 23.658 23.4534 22.9571C24.1425 22.2561 24.5311 21.314 24.5363 20.331ZM20.7552 22.9146C19.3133 22.8866 18.0389 21.5949 18.1053 20.2193C18.1441 19.5015 18.4642 18.8279 18.9961 18.3443C19.528 17.8608 20.229 17.6062 20.9472 17.6357C21.3024 17.6357 21.6539 17.7073 21.9808 17.8462C22.3076 17.9851 22.6032 18.1884 22.8497 18.4441C23.0962 18.6997 23.2887 19.0025 23.4156 19.3342C23.5425 19.6659 23.6013 20.0198 23.5884 20.3747C23.5754 20.7296 23.4911 21.0783 23.3405 21.3999C23.1898 21.7215 22.9758 22.0095 22.7114 22.2465C22.4469 22.4836 22.1374 22.665 21.8013 22.7797C21.4652 22.8945 21.1094 22.9404 20.7552 22.9146ZM21.9213 19.741C21.5722 19.741 21.2789 19.8666 21.244 20.2542C21.2091 20.6417 21.5198 20.8198 21.8549 20.8198C21.9339 20.8308 22.0142 20.8241 22.0903 20.8003C22.1663 20.7764 22.2361 20.736 22.2945 20.6818C22.353 20.6277 22.3987 20.5613 22.4284 20.4873C22.458 20.4133 22.4708 20.3337 22.4659 20.2542C22.4694 19.8841 22.2565 19.741 21.9213 19.7444V19.741ZM20.3083 20.5649C20.1456 20.5774 19.9939 20.6516 19.8842 20.7723C19.7745 20.893 19.7151 21.0512 19.7183 21.2143C19.7183 21.5076 19.8125 21.8427 20.2001 21.8078C20.5876 21.7729 20.8076 21.518 20.8669 21.0642C20.7971 20.8198 20.6609 20.523 20.3083 20.5684V20.5649ZM20.3083 19.9539C20.379 19.9593 20.4501 19.9492 20.5165 19.9243C20.583 19.8994 20.6432 19.8604 20.693 19.8099C20.7429 19.7594 20.7811 19.6986 20.8051 19.6319C20.8291 19.5651 20.8383 19.4939 20.832 19.4232C20.8465 19.2601 20.7988 19.0974 20.6984 18.9679C20.5981 18.8384 20.4525 18.7516 20.2908 18.725C20.143 18.7208 19.9991 18.7729 19.8883 18.8708C19.7774 18.9686 19.7079 19.105 19.6938 19.2522C19.6802 19.3394 19.6856 19.4284 19.7097 19.5133C19.7338 19.5982 19.776 19.6769 19.8334 19.7439C19.8908 19.8109 19.9621 19.8647 20.0422 19.9015C20.1224 19.9384 20.2096 19.9575 20.2978 19.9574L20.3083 19.9539ZM19.439 28.0782C18.8699 28.6159 18.1716 28.7206 17.4175 28.6997C16.4609 28.6752 15.5007 28.6997 14.5441 28.6997C14.2108 28.7296 13.8749 28.6935 13.5556 28.5935C13.2363 28.4934 12.9399 28.3314 12.6832 28.1166C12.4493 27.9002 12.1875 27.7675 11.9256 28.0747C11.8677 28.1311 11.8227 28.1994 11.7937 28.2748C11.7647 28.3503 11.7524 28.4312 11.7578 28.5118C11.7631 28.5925 11.7858 28.671 11.8245 28.7421C11.8631 28.8131 11.9167 28.8748 11.9815 28.9231C12.4963 29.4485 13.1976 29.7496 13.9331 29.7611C14.6314 29.7611 15.3297 29.7611 16.0279 29.7611C16.7262 29.7611 17.4245 29.7611 18.1227 29.7611C18.5015 29.7621 18.8761 29.683 19.2221 29.529C19.5681 29.3749 19.8776 29.1494 20.1302 28.8673C20.1889 28.8231 20.2376 28.7669 20.273 28.7026C20.3084 28.6382 20.3298 28.5671 20.3357 28.4938C20.3416 28.4206 20.332 28.347 20.3074 28.2777C20.2828 28.2085 20.2439 28.1453 20.1931 28.0922C20.1527 28.0295 20.0976 27.9777 20.0325 27.9413C19.9674 27.905 19.8943 27.8853 19.8197 27.8839C19.7452 27.8825 19.6715 27.8995 19.605 27.9334C19.5386 27.9673 19.4816 28.0171 19.439 28.0782ZM13.8528 25.376C13.7478 25.5005 13.6964 25.6617 13.7102 25.8241C13.7239 25.9864 13.8016 26.1367 13.9262 26.2418C14.1787 26.5597 14.505 26.8111 14.8767 26.9741C15.2485 27.1372 15.6545 27.207 16.0594 27.1775C16.4654 27.1905 16.869 27.1093 17.2385 26.9403C17.608 26.7713 17.9333 26.5191 18.1891 26.2034C18.247 26.1486 18.2931 26.0825 18.3246 26.0093C18.3561 25.9361 18.3724 25.8572 18.3724 25.7775C18.3724 25.6977 18.3561 25.6188 18.3246 25.5456C18.2931 25.4724 18.247 25.4063 18.1891 25.3515C17.9202 25.0792 17.6863 25.2468 17.4349 25.4423C16.2863 26.3326 15.7591 26.3361 14.6838 25.4772C14.4045 25.2607 14.1496 25.0408 13.8563 25.376H13.8528ZM14.9596 20.2367C14.9681 19.742 14.8769 19.2506 14.6915 18.7918C14.5061 18.333 14.2302 17.9163 13.8803 17.5664C13.5304 17.2165 13.1136 16.9406 12.6549 16.7551C12.1961 16.5697 11.7047 16.4785 11.2099 16.487C10.2262 16.5034 9.28789 16.9036 8.59516 17.6022C7.90244 18.3008 7.51019 19.2425 7.50213 20.2263C7.49654 21.2363 7.89122 22.2073 8.59982 22.9271C9.30843 23.6468 10.2733 24.0566 11.2832 24.0667C11.777 24.059 12.2643 23.9536 12.7171 23.7565C13.1699 23.5595 13.5792 23.2747 13.9213 22.9186C14.2635 22.5625 14.5317 22.1422 14.7105 21.6819C14.8893 21.2216 14.9751 20.7304 14.9631 20.2367H14.9596ZM11.2693 22.9146C10.7486 22.9042 10.2426 22.7403 9.81476 22.4434C9.38693 22.1465 9.05635 21.7298 8.86453 21.2457C8.67271 20.7615 8.6282 20.2315 8.73658 19.7221C8.84496 19.2127 9.10141 18.7468 9.47373 18.3826C9.84604 18.0185 10.3176 17.7725 10.8293 17.6755C11.3409 17.5785 11.8698 17.6348 12.3496 17.8373C12.8294 18.0399 13.2386 18.3797 13.5259 18.814C13.8132 19.2483 13.9658 19.7579 13.9646 20.2786C13.9438 20.9814 13.6513 21.6487 13.1487 22.1403C12.646 22.6319 11.9723 22.9095 11.2693 22.9146ZM11.7895 20.5614C11.723 20.5579 11.6565 20.5684 11.5943 20.5922C11.5322 20.6161 11.4757 20.6527 11.4286 20.6998C11.3815 20.7469 11.3449 20.8034 11.321 20.8655C11.2972 20.9277 11.2867 20.9942 11.2902 21.0607C11.2778 21.2366 11.3325 21.4108 11.4433 21.5481C11.554 21.6854 11.7126 21.7757 11.8872 21.8008C12.2817 21.8776 12.3516 21.546 12.4458 21.1968C12.4256 21.0322 12.3493 20.8795 12.2298 20.7644C12.1103 20.6493 11.9548 20.5789 11.7895 20.5649V20.5614ZM11.8942 18.7389C11.4683 18.7389 11.2867 19.0671 11.2972 19.4547C11.2919 19.5283 11.3038 19.6021 11.3318 19.6704C11.3598 19.7386 11.4033 19.7995 11.4587 19.8482C11.5141 19.8968 11.5801 19.932 11.6514 19.951C11.7227 19.97 11.7975 19.9722 11.8698 19.9574C12.0293 19.9334 12.1756 19.8549 12.2838 19.7353C12.392 19.6156 12.4554 19.4622 12.4633 19.3011C12.4005 18.9833 12.2189 18.725 11.8942 18.7424V18.7389ZM10.2498 19.7444C9.9251 19.7444 9.67722 19.8492 9.67722 20.2193C9.66642 20.2982 9.67355 20.3786 9.69809 20.4545C9.72262 20.5303 9.76393 20.5997 9.81893 20.6574C9.87394 20.7151 9.94124 20.7596 10.0158 20.7877C10.0904 20.8159 10.1704 20.8268 10.2498 20.8198C10.5989 20.8198 10.8643 20.6871 10.9027 20.2926C10.8961 20.2138 10.8739 20.137 10.8375 20.0668C10.801 19.9966 10.7509 19.9344 10.6902 19.8837C10.6294 19.833 10.5592 19.7949 10.4836 19.7716C10.408 19.7483 10.3285 19.7403 10.2498 19.7479V19.7444ZM10.2498 19.7444C9.9251 19.7444 9.67722 19.8492 9.67722 20.2193C9.66642 20.2982 9.67355 20.3786 9.69809 20.4545C9.72262 20.5303 9.76393 20.5997 9.81893 20.6574C9.87394 20.7151 9.94124 20.7596 10.0158 20.7877C10.0904 20.8159 10.1704 20.8268 10.2498 20.8198C10.5989 20.8198 10.8643 20.6871 10.9027 20.2926C10.8961 20.2138 10.8739 20.137 10.8375 20.0668C10.801 19.9966 10.7509 19.9344 10.6902 19.8837C10.6294 19.833 10.5592 19.7949 10.4836 19.7716C10.408 19.7483 10.3285 19.7403 10.2498 19.7479V19.7444ZM11.8942 18.7389C11.4683 18.7389 11.2867 19.0671 11.2972 19.4547C11.2919 19.5283 11.3038 19.6021 11.3318 19.6704C11.3598 19.7386 11.4033 19.7995 11.4587 19.8482C11.5141 19.8968 11.5801 19.932 11.6514 19.951C11.7227 19.97 11.7975 19.9722 11.8698 19.9574C12.0293 19.9334 12.1756 19.8549 12.2838 19.7353C12.392 19.6156 12.4554 19.4622 12.4633 19.3011C12.4005 18.9833 12.2189 18.725 11.8942 18.7424V18.7389ZM11.7895 20.5614C11.723 20.5579 11.6565 20.5684 11.5943 20.5922C11.5322 20.6161 11.4757 20.6527 11.4286 20.6998C11.3815 20.7469 11.3449 20.8034 11.321 20.8655C11.2972 20.9277 11.2867 20.9942 11.2902 21.0607C11.2778 21.2366 11.3325 21.4108 11.4433 21.5481C11.554 21.6854 11.7126 21.7757 11.8872 21.8008C12.2817 21.8776 12.3516 21.546 12.4458 21.1968C12.4256 21.0322 12.3493 20.8795 12.2298 20.7644C12.1103 20.6493 11.9548 20.5789 11.7895 20.5649V20.5614ZM11.7895 20.5614C11.723 20.5579 11.6565 20.5684 11.5943 20.5922C11.5322 20.6161 11.4757 20.6527 11.4286 20.6998C11.3815 20.7469 11.3449 20.8034 11.321 20.8655C11.2972 20.9277 11.2867 20.9942 11.2902 21.0607C11.2778 21.2366 11.3325 21.4108 11.4433 21.5481C11.554 21.6854 11.7126 21.7757 11.8872 21.8008C12.2817 21.8776 12.3516 21.546 12.4458 21.1968C12.4256 21.0322 12.3493 20.8795 12.2298 20.7644C12.1103 20.6493 11.9548 20.5789 11.7895 20.5649V20.5614ZM11.8698 19.9574C12.0293 19.9334 12.1756 19.8549 12.2838 19.7353C12.392 19.6156 12.4554 19.4622 12.4633 19.3011C12.397 18.9833 12.2189 18.7355 11.8907 18.7424C11.4648 18.7424 11.2832 19.0706 11.2937 19.4582C11.2889 19.5318 11.3012 19.6056 11.3296 19.6738C11.3581 19.7419 11.4019 19.8025 11.4577 19.8509C11.5135 19.8992 11.5798 19.934 11.6512 19.9525C11.7227 19.971 11.7975 19.9727 11.8698 19.9574ZM10.2463 19.7479C9.92161 19.7479 9.67373 19.8527 9.67373 20.2228C9.66341 20.3018 9.67103 20.3821 9.69602 20.4578C9.721 20.5335 9.76272 20.6026 9.81806 20.6599C9.8734 20.7173 9.94095 20.7614 10.0157 20.7891C10.0904 20.8168 10.1704 20.8273 10.2498 20.8198C10.5989 20.8198 10.8643 20.6871 10.9027 20.2926C10.8961 20.2138 10.8739 20.137 10.8375 20.0668C10.801 19.9966 10.7509 19.9344 10.6902 19.8837C10.6294 19.833 10.5592 19.7949 10.4836 19.7716C10.408 19.7483 10.3285 19.7403 10.2498 19.7479H10.2463ZM11.2064 16.487C10.2233 16.5043 9.28589 16.9049 8.59391 17.6034C7.90194 18.3019 7.51017 19.2431 7.50213 20.2263C7.49654 21.2363 7.89122 22.2073 8.59982 22.9271C9.30843 23.6468 10.2733 24.0566 11.2832 24.0667C11.7779 24.059 12.2661 23.9533 12.7196 23.7556C13.1731 23.5579 13.5829 23.2721 13.9251 22.9149C14.2674 22.5577 14.5354 22.1361 14.7136 21.6746C14.8917 21.2131 14.9765 20.7208 14.9631 20.2263C14.9702 19.7321 14.8778 19.2415 14.6916 18.7837C14.5053 18.3259 14.2289 17.9103 13.8787 17.5614C13.5286 17.2126 13.1119 16.9377 12.6535 16.7532C12.195 16.5686 11.7041 16.4781 11.2099 16.487H11.2064ZM11.2693 22.9146C10.7486 22.9042 10.2426 22.7403 9.81476 22.4434C9.38693 22.1465 9.05635 21.7298 8.86453 21.2457C8.67271 20.7615 8.6282 20.2315 8.73658 19.7221C8.84496 19.2127 9.10141 18.7468 9.47373 18.3826C9.84604 18.0185 10.3176 17.7725 10.8293 17.6755C11.3409 17.5785 11.8698 17.6348 12.3496 17.8373C12.8294 18.0399 13.2386 18.3797 13.5259 18.814C13.8132 19.2483 13.9658 19.7579 13.9646 20.2786C13.9438 20.9814 13.6513 21.6487 13.1487 22.1403C12.646 22.6319 11.9723 22.9095 11.2693 22.9146ZM11.7895 20.5614C11.723 20.5579 11.6565 20.5684 11.5943 20.5922C11.5322 20.6161 11.4757 20.6527 11.4286 20.6998C11.3815 20.7469 11.3449 20.8034 11.321 20.8655C11.2972 20.9277 11.2867 20.9942 11.2902 21.0607C11.2778 21.2366 11.3325 21.4108 11.4433 21.5481C11.554 21.6854 11.7126 21.7757 11.8872 21.8008C12.2817 21.8776 12.3516 21.546 12.4458 21.1968C12.4256 21.0322 12.3493 20.8795 12.2298 20.7644C12.1103 20.6493 11.9548 20.5789 11.7895 20.5649V20.5614ZM11.8942 18.7389C11.4683 18.7389 11.2867 19.0671 11.2972 19.4547C11.2919 19.5283 11.3038 19.6021 11.3318 19.6704C11.3598 19.7386 11.4033 19.7995 11.4587 19.8482C11.5141 19.8968 11.5801 19.932 11.6514 19.951C11.7227 19.97 11.7975 19.9722 11.8698 19.9574C12.0293 19.9334 12.1756 19.8549 12.2838 19.7353C12.392 19.6156 12.4554 19.4622 12.4633 19.3011C12.4005 18.9833 12.2189 18.725 11.8942 18.7424V18.7389ZM10.2498 19.7444C9.9251 19.7444 9.67722 19.8492 9.67722 20.2193C9.66642 20.2982 9.67355 20.3786 9.69809 20.4545C9.72262 20.5303 9.76393 20.5997 9.81893 20.6574C9.87394 20.7151 9.94124 20.7596 10.0158 20.7877C10.0904 20.8159 10.1704 20.8268 10.2498 20.8198C10.5989 20.8198 10.8643 20.6871 10.9027 20.2926C10.8961 20.2138 10.8739 20.137 10.8375 20.0668C10.801 19.9966 10.7509 19.9344 10.6902 19.8837C10.6294 19.833 10.5592 19.7949 10.4836 19.7716C10.408 19.7483 10.3285 19.7403 10.2498 19.7479V19.7444ZM18.1786 25.3585C17.9098 25.0862 17.6758 25.2538 17.4245 25.4493C16.2758 26.3396 15.7486 26.343 14.6733 25.4842C14.4045 25.2677 14.1496 25.0478 13.8563 25.3829C13.7512 25.5075 13.6999 25.6687 13.7137 25.831C13.7274 25.9934 13.8051 26.1437 13.9297 26.2488C14.1826 26.5649 14.5086 26.8146 14.8797 26.9764C15.2508 27.1382 15.6556 27.2072 16.0594 27.1775C16.4654 27.1905 16.869 27.1093 17.2385 26.9403C17.608 26.7713 17.9333 26.5191 18.1891 26.2034C18.2452 26.148 18.2896 26.0818 18.3196 26.0088C18.3495 25.9359 18.3645 25.8576 18.3635 25.7787C18.3625 25.6998 18.3456 25.622 18.3139 25.5498C18.2821 25.4776 18.2361 25.4125 18.1786 25.3585ZM20.1861 28.1027C20.1444 28.0422 20.0886 27.9927 20.0235 27.9586C19.9584 27.9244 19.886 27.9066 19.8125 27.9066C19.739 27.9066 19.6666 27.9244 19.6016 27.9586C19.5365 27.9927 19.4807 28.0422 19.439 28.1027C18.8699 28.6403 18.1716 28.7451 17.4175 28.7241C16.4609 28.6997 15.5007 28.7241 14.5441 28.7241C14.2108 28.754 13.8749 28.7179 13.5556 28.6179C13.2363 28.5178 12.9399 28.3558 12.6832 28.1411C12.4493 27.9246 12.1875 27.7919 11.9256 28.0992C11.8677 28.1556 11.8227 28.2238 11.7937 28.2993C11.7647 28.3748 11.7524 28.4556 11.7578 28.5363C11.7631 28.6169 11.7858 28.6955 11.8245 28.7665C11.8631 28.8375 11.9167 28.8993 11.9815 28.9476C12.4963 29.473 13.1976 29.7741 13.9331 29.7855C14.6314 29.7855 15.3297 29.7855 16.0279 29.7855C16.7262 29.7855 17.4245 29.7855 18.1227 29.7855C18.5015 29.7865 18.8761 29.7074 19.2221 29.5534C19.5681 29.3994 19.8776 29.1739 20.1302 28.8917C20.1919 28.8471 20.243 28.7895 20.2799 28.723C20.3169 28.6565 20.3388 28.5827 20.3441 28.5067C20.3494 28.4308 20.3381 28.3547 20.3108 28.2837C20.2834 28.2127 20.2409 28.1485 20.1861 28.0957V28.1027ZM20.8006 16.5045C20.3068 16.5082 19.8185 16.609 19.3637 16.8014C18.9089 16.9937 18.4965 17.2738 18.1499 17.6255C17.8033 17.9773 17.5294 18.3939 17.3439 18.8515C17.1583 19.3091 17.0647 19.7988 17.0683 20.2926C17.0896 21.2891 17.494 22.2391 18.1975 22.9452C18.901 23.6514 19.8495 24.0592 20.846 24.0842C21.8287 24.0624 22.7642 23.658 23.4534 22.9571C24.1425 22.2561 24.5311 21.314 24.5363 20.331C24.5433 18.114 22.9757 16.5045 20.8006 16.4975V16.5045ZM20.7552 22.9146C19.3133 22.8866 18.0389 21.5949 18.1053 20.2193C18.1441 19.5015 18.4642 18.8279 18.9961 18.3443C19.528 17.8608 20.229 17.6062 20.9472 17.6357C21.3024 17.6357 21.6539 17.7073 21.9808 17.8462C22.3076 17.9851 22.6032 18.1884 22.8497 18.4441C23.0962 18.6997 23.2887 19.0025 23.4156 19.3342C23.5425 19.6659 23.6013 20.0198 23.5884 20.3747C23.5754 20.7296 23.4911 21.0783 23.3405 21.3999C23.1898 21.7215 22.9758 22.0095 22.7114 22.2465C22.4469 22.4836 22.1374 22.665 21.8013 22.7797C21.4652 22.8945 21.1094 22.9404 20.7552 22.9146ZM21.9213 19.741C21.5722 19.741 21.2789 19.8666 21.244 20.2542C21.2091 20.6417 21.5198 20.8198 21.8549 20.8198C21.9339 20.8308 22.0142 20.8241 22.0903 20.8003C22.1663 20.7764 22.2361 20.736 22.2945 20.6818C22.353 20.6277 22.3987 20.5613 22.4284 20.4873C22.458 20.4133 22.4708 20.3337 22.4659 20.2542C22.4694 19.8841 22.2565 19.741 21.9213 19.7444V19.741ZM20.3083 20.5649C20.1456 20.5774 19.9939 20.6516 19.8842 20.7723C19.7745 20.893 19.7151 21.0512 19.7183 21.2143C19.7183 21.5076 19.8125 21.8427 20.2001 21.8078C20.5876 21.7729 20.8076 21.518 20.8669 21.0642C20.7971 20.8198 20.6609 20.523 20.3083 20.5684V20.5649ZM20.3083 19.9539C20.379 19.9593 20.4501 19.9492 20.5165 19.9243C20.583 19.8994 20.6432 19.8604 20.693 19.8099C20.7429 19.7594 20.7811 19.6986 20.8051 19.6319C20.8291 19.5651 20.8383 19.4939 20.832 19.4232C20.8465 19.2601 20.7988 19.0974 20.6984 18.9679C20.5981 18.8384 20.4525 18.7516 20.2908 18.725C20.143 18.7208 19.9991 18.7729 19.8883 18.8708C19.7774 18.9686 19.7079 19.105 19.6938 19.2522C19.6802 19.3394 19.6856 19.4284 19.7097 19.5133C19.7338 19.5982 19.776 19.6769 19.8334 19.7439C19.8908 19.8109 19.9621 19.8647 20.0422 19.9015C20.1224 19.9384 20.2096 19.9575 20.2978 19.9574L20.3083 19.9539ZM20.811 16.494C20.3155 16.4963 19.8252 16.5965 19.3685 16.7889C18.9118 16.9813 18.4977 17.2621 18.1499 17.6151C17.802 17.9681 17.5274 18.3864 17.3418 18.8459C17.1562 19.3054 17.0633 19.797 17.0683 20.2926C17.0896 21.2891 17.494 22.2391 18.1975 22.9452C18.901 23.6514 19.8495 24.0592 20.846 24.0842C21.8287 24.0624 22.7642 23.658 23.4534 22.9571C24.1425 22.2561 24.5311 21.314 24.5363 20.331C24.5433 18.114 22.9757 16.5045 20.8006 16.4975L20.811 16.494ZM20.7552 22.9146C19.3133 22.8866 18.0389 21.5949 18.1053 20.2193C18.1441 19.5015 18.4642 18.8279 18.9961 18.3443C19.528 17.8608 20.229 17.6062 20.9472 17.6357C21.3024 17.6357 21.6539 17.7073 21.9808 17.8462C22.3076 17.9851 22.6032 18.1884 22.8497 18.4441C23.0962 18.6997 23.2887 19.0025 23.4156 19.3342C23.5425 19.6659 23.6013 20.0198 23.5884 20.3747C23.5754 20.7296 23.4911 21.0783 23.3405 21.3999C23.1898 21.7215 22.9758 22.0095 22.7114 22.2465C22.4469 22.4836 22.1374 22.665 21.8013 22.7797C21.4652 22.8945 21.1094 22.9404 20.7552 22.9146ZM21.9213 19.741C21.5722 19.741 21.2789 19.8666 21.244 20.2542C21.2091 20.6417 21.5198 20.8198 21.8549 20.8198C21.9339 20.8308 22.0142 20.8241 22.0903 20.8003C22.1663 20.7764 22.2361 20.736 22.2945 20.6818C22.353 20.6277 22.3987 20.5613 22.4284 20.4873C22.458 20.4133 22.4708 20.3337 22.4659 20.2542C22.4694 19.8841 22.2565 19.741 21.9213 19.7444V19.741ZM20.3083 20.5649C20.1456 20.5774 19.9939 20.6516 19.8842 20.7723C19.7745 20.893 19.7151 21.0512 19.7183 21.2143C19.7183 21.5076 19.8125 21.8427 20.2001 21.8078C20.5876 21.7729 20.8076 21.518 20.8669 21.0642C20.7971 20.8198 20.6609 20.523 20.3083 20.5684V20.5649ZM20.3083 19.9539C20.379 19.9593 20.4501 19.9492 20.5165 19.9243C20.583 19.8994 20.6432 19.8604 20.693 19.8099C20.7429 19.7594 20.7811 19.6986 20.8051 19.6319C20.8291 19.5651 20.8383 19.4939 20.832 19.4232C20.8465 19.2601 20.7988 19.0974 20.6984 18.9679C20.5981 18.8384 20.4525 18.7516 20.2908 18.725C20.143 18.7208 19.9991 18.7729 19.8883 18.8708C19.7774 18.9686 19.7079 19.105 19.6938 19.2522C19.6802 19.3394 19.6856 19.4284 19.7097 19.5133C19.7338 19.5982 19.776 19.6769 19.8334 19.7439C19.8908 19.8109 19.9621 19.8647 20.0422 19.9015C20.1224 19.9384 20.2096 19.9575 20.2978 19.9574L20.3083 19.9539ZM20.1966 28.0922C20.1548 28.0317 20.099 27.9823 20.034 27.9481C19.9689 27.9139 19.8965 27.8961 19.823 27.8961C19.7495 27.8961 19.6771 27.9139 19.612 27.9481C19.547 27.9823 19.4912 28.0317 19.4494 28.0922C18.8803 28.6299 18.1821 28.7346 17.428 28.7137C16.4713 28.6892 15.5112 28.7137 14.5546 28.7137C14.2213 28.7436 13.8854 28.7075 13.5661 28.6074C13.2468 28.5074 12.9503 28.3453 12.6937 28.1306C12.4598 27.9141 12.198 27.7815 11.9361 28.0887C11.8782 28.1451 11.8331 28.2134 11.8042 28.2888C11.7752 28.3643 11.7629 28.4451 11.7682 28.5258C11.7735 28.6065 11.7963 28.685 11.8349 28.756C11.8736 28.827 11.9271 28.8888 11.992 28.9371C12.5068 29.4625 13.2081 29.7636 13.9436 29.775C14.6419 29.775 15.3401 29.775 16.0384 29.775C16.7367 29.775 17.4349 29.775 18.1332 29.775C18.5119 29.7761 18.8866 29.697 19.2326 29.5429C19.5786 29.3889 19.8881 29.1634 20.1407 28.8812C20.1999 28.8357 20.2486 28.778 20.2835 28.7121C20.3184 28.6461 20.3387 28.5734 20.343 28.4988C20.3473 28.4243 20.3355 28.3497 20.3084 28.2802C20.2814 28.2106 20.2396 28.1477 20.1861 28.0957L20.1966 28.0922ZM18.1786 25.3585C17.9098 25.0862 17.6758 25.2538 17.4245 25.4493C16.2758 26.3396 15.7486 26.343 14.6733 25.4842C14.4045 25.2677 14.1496 25.0478 13.8563 25.3829C13.7512 25.5075 13.6999 25.6687 13.7137 25.831C13.7274 25.9934 13.8051 26.1437 13.9297 26.2488C14.1826 26.5649 14.5086 26.8146 14.8797 26.9764C15.2508 27.1382 15.6556 27.2072 16.0594 27.1775C16.4654 27.1905 16.869 27.1093 17.2385 26.9403C17.608 26.7713 17.9333 26.5191 18.1891 26.2034C18.2452 26.148 18.2896 26.0818 18.3196 26.0088C18.3495 25.9359 18.3645 25.8576 18.3635 25.7787C18.3625 25.6998 18.3456 25.622 18.3139 25.5498C18.2821 25.4776 18.2361 25.4125 18.1786 25.3585ZM10.2498 19.7479C9.9251 19.7479 9.67722 19.8527 9.67722 20.2228C9.667 20.3015 9.67456 20.3815 9.69935 20.4569C9.72414 20.5323 9.76553 20.6012 9.82047 20.6584C9.87541 20.7157 9.94251 20.76 10.0168 20.7879C10.0911 20.8158 10.1707 20.8267 10.2498 20.8198C10.5989 20.8198 10.8643 20.6871 10.9027 20.2926C10.8961 20.2138 10.8739 20.137 10.8375 20.0668C10.801 19.9966 10.7509 19.9344 10.6902 19.8837C10.6294 19.833 10.5592 19.7949 10.4836 19.7716C10.408 19.7483 10.3285 19.7403 10.2498 19.7479ZM11.8942 18.7424C11.4683 18.7424 11.2867 19.0706 11.2972 19.4582C11.2925 19.5315 11.3048 19.6049 11.333 19.6727C11.3613 19.7405 11.4048 19.8009 11.4602 19.8492C11.5156 19.8975 11.5813 19.9324 11.6523 19.9511C11.7234 19.9699 11.7978 19.972 11.8698 19.9574C12.0293 19.9334 12.1756 19.8549 12.2838 19.7353C12.392 19.6156 12.4554 19.4622 12.4633 19.3011C12.4005 18.9833 12.2189 18.725 11.8942 18.7424ZM11.7895 20.5649C11.723 20.5614 11.6565 20.5719 11.5943 20.5957C11.5322 20.6196 11.4757 20.6562 11.4286 20.7033C11.3815 20.7504 11.3449 20.8069 11.321 20.869C11.2972 20.9312 11.2867 20.9977 11.2902 21.0642C11.2778 21.2401 11.3325 21.4143 11.4433 21.5516C11.554 21.6889 11.7126 21.7792 11.8872 21.8043C12.2817 21.8811 12.3516 21.5495 12.4458 21.2003C12.4263 21.035 12.3504 20.8815 12.2308 20.7658C12.1112 20.65 11.9553 20.579 11.7895 20.5649ZM11.7895 20.5649C11.723 20.5614 11.6565 20.5719 11.5943 20.5957C11.5322 20.6196 11.4757 20.6562 11.4286 20.7033C11.3815 20.7504 11.3449 20.8069 11.321 20.869C11.2972 20.9312 11.2867 20.9977 11.2902 21.0642C11.2778 21.2401 11.3325 21.4143 11.4433 21.5516C11.554 21.6889 11.7126 21.7792 11.8872 21.8043C12.2817 21.8811 12.3516 21.5495 12.4458 21.2003C12.4263 21.035 12.3504 20.8815 12.2308 20.7658C12.1112 20.65 11.9553 20.579 11.7895 20.5649ZM11.8698 19.9574C12.0293 19.9334 12.1756 19.8549 12.2838 19.7353C12.392 19.6156 12.4554 19.4622 12.4633 19.3011C12.397 18.9833 12.2189 18.7355 11.8907 18.7424C11.4648 18.7424 11.2832 19.0706 11.2937 19.4582C11.2889 19.5318 11.3012 19.6056 11.3296 19.6738C11.3581 19.7419 11.4019 19.8025 11.4577 19.8509C11.5135 19.8992 11.5798 19.934 11.6512 19.9525C11.7227 19.971 11.7975 19.9727 11.8698 19.9574ZM10.2463 19.7479C9.92161 19.7479 9.67373 19.8527 9.67373 20.2228C9.66341 20.3018 9.67103 20.3821 9.69602 20.4578C9.721 20.5335 9.76272 20.6026 9.81806 20.6599C9.8734 20.7173 9.94095 20.7614 10.0157 20.7891C10.0904 20.8168 10.1704 20.8273 10.2498 20.8198C10.5989 20.8198 10.8643 20.6871 10.9027 20.2926C10.8961 20.2138 10.8739 20.137 10.8375 20.0668C10.801 19.9966 10.7509 19.9344 10.6902 19.8837C10.6294 19.833 10.5592 19.7949 10.4836 19.7716C10.408 19.7483 10.3285 19.7403 10.2498 19.7479H10.2463ZM11.2064 16.487C10.2233 16.5043 9.28589 16.9049 8.59391 17.6034C7.90194 18.3019 7.51017 19.2431 7.50213 20.2263C7.49654 21.2363 7.89122 22.2073 8.59982 22.9271C9.30843 23.6468 10.2733 24.0566 11.2832 24.0667C11.7779 24.059 12.2661 23.9533 12.7196 23.7556C13.1731 23.5579 13.5829 23.2721 13.9251 22.9149C14.2674 22.5577 14.5354 22.1361 14.7136 21.6746C14.8917 21.2131 14.9765 20.7208 14.9631 20.2263C14.9702 19.7321 14.8778 19.2415 14.6916 18.7837C14.5053 18.3259 14.2289 17.9103 13.8787 17.5614C13.5286 17.2126 13.1119 16.9377 12.6535 16.7532C12.195 16.5686 11.7041 16.4781 11.2099 16.487H11.2064ZM11.2693 22.9146C10.7486 22.9042 10.2426 22.7403 9.81476 22.4434C9.38693 22.1465 9.05635 21.7298 8.86453 21.2457C8.67271 20.7615 8.6282 20.2315 8.73658 19.7221C8.84496 19.2127 9.10141 18.7468 9.47373 18.3826C9.84604 18.0185 10.3176 17.7725 10.8293 17.6755C11.3409 17.5785 11.8698 17.6348 12.3496 17.8373C12.8294 18.0399 13.2386 18.3797 13.5259 18.814C13.8132 19.2483 13.9658 19.7579 13.9646 20.2786C13.9438 20.9814 13.6513 21.6487 13.1487 22.1403C12.646 22.6319 11.9723 22.9095 11.2693 22.9146ZM11.7895 20.5614C11.723 20.5579 11.6565 20.5684 11.5943 20.5922C11.5322 20.6161 11.4757 20.6527 11.4286 20.6998C11.3815 20.7469 11.3449 20.8034 11.321 20.8655C11.2972 20.9277 11.2867 20.9942 11.2902 21.0607C11.2778 21.2366 11.3325 21.4108 11.4433 21.5481C11.554 21.6854 11.7126 21.7757 11.8872 21.8008C12.2817 21.8776 12.3516 21.546 12.4458 21.1968C12.4256 21.0322 12.3493 20.8795 12.2298 20.7644C12.1103 20.6493 11.9548 20.5789 11.7895 20.5649V20.5614ZM11.8942 18.7389C11.4683 18.7389 11.2867 19.0671 11.2972 19.4547C11.2919 19.5283 11.3038 19.6021 11.3318 19.6704C11.3598 19.7386 11.4033 19.7995 11.4587 19.8482C11.5141 19.8968 11.5801 19.932 11.6514 19.951C11.7227 19.97 11.7975 19.9722 11.8698 19.9574C12.0293 19.9334 12.1756 19.8549 12.2838 19.7353C12.392 19.6156 12.4554 19.4622 12.4633 19.3011C12.4005 18.9833 12.2189 18.725 11.8942 18.7424V18.7389ZM10.2498 19.7444C9.9251 19.7444 9.67722 19.8492 9.67722 20.2193C9.66642 20.2982 9.67355 20.3786 9.69809 20.4545C9.72262 20.5303 9.76393 20.5997 9.81893 20.6574C9.87394 20.7151 9.94124 20.7596 10.0158 20.7877C10.0904 20.8159 10.1704 20.8268 10.2498 20.8198C10.5989 20.8198 10.8643 20.6871 10.9027 20.2926C10.8961 20.2138 10.8739 20.137 10.8375 20.0668C10.801 19.9966 10.7509 19.9344 10.6902 19.8837C10.6294 19.833 10.5592 19.7949 10.4836 19.7716C10.408 19.7483 10.3285 19.7403 10.2498 19.7479V19.7444Z" fill="#029CBC"/>
<path d="M15.8079 43.8625C15.8079 43.3144 15.8079 42.7628 15.8079 42.2146C15.8079 41.8201 16.0069 41.6001 16.391 41.6246C16.775 41.649 16.8658 41.8899 16.8623 42.2321C16.8623 43.2725 16.8623 44.3199 16.8623 45.3743C16.8623 45.7548 16.7261 46.0167 16.3281 45.9992C15.9301 45.9818 15.7835 45.7478 15.8009 45.3568C15.8254 44.8436 15.8079 44.3513 15.8079 43.8625Z" fill="#099CBD"/>
<path d="M10.9026 20.2926C10.8642 20.6871 10.5884 20.8163 10.2497 20.8198C10.1707 20.8267 10.091 20.8158 10.0167 20.7879C9.94244 20.76 9.87535 20.7157 9.8204 20.6584C9.76546 20.6012 9.72407 20.5323 9.69928 20.4569C9.67449 20.3815 9.66693 20.3015 9.67715 20.2228C9.67715 19.8527 9.92504 19.734 10.2497 19.7479C10.3285 19.7403 10.4079 19.7483 10.4835 19.7716C10.5591 19.7949 10.6293 19.833 10.6901 19.8837C10.7508 19.9344 10.8009 19.9966 10.8374 20.0668C10.8739 20.137 10.896 20.2137 10.9026 20.2926Z" fill="#CCECF3"/>
<path d="M12.4667 19.301C12.4587 19.4627 12.3948 19.6165 12.2859 19.7362C12.177 19.8559 12.0299 19.9341 11.8697 19.9574C11.7974 19.9726 11.7227 19.971 11.6512 19.9525C11.5797 19.934 11.5135 19.8992 11.4577 19.8508C11.4019 19.8025 11.358 19.7419 11.3296 19.6737C11.3011 19.6056 11.2888 19.5318 11.2936 19.4581C11.2936 19.0706 11.4647 18.7599 11.8906 18.7424C12.2188 18.725 12.4004 18.9833 12.4667 19.301Z" fill="#CCECF3"/>
<path d="M12.4458 21.2004C12.3515 21.5495 12.2817 21.8812 11.8872 21.8044C11.7126 21.7792 11.554 21.6889 11.4432 21.5516C11.3325 21.4143 11.2778 21.2402 11.2902 21.0642C11.2867 20.9977 11.2972 20.9312 11.321 20.869C11.3448 20.8069 11.3815 20.7504 11.4286 20.7033C11.4757 20.6563 11.5321 20.6196 11.5943 20.5958C11.6565 20.5719 11.7229 20.5614 11.7894 20.5649C11.9553 20.5791 12.1112 20.65 12.2308 20.7658C12.3503 20.8816 12.4263 21.0351 12.4458 21.2004Z" fill="#CCECF3"/>
<path d="M11.2099 16.4871C10.2262 16.5034 9.2879 16.9036 8.59517 17.6022C7.90245 18.3008 7.5102 19.2425 7.50213 20.2263C7.49654 21.2363 7.89123 22.2074 8.59983 22.9271C9.30844 23.6468 10.2733 24.0566 11.2832 24.0667C11.7779 24.059 12.2661 23.9533 12.7196 23.7556C13.1731 23.5579 13.5829 23.2721 13.9251 22.9149C14.2674 22.5577 14.5354 22.1361 14.7136 21.6746C14.8917 21.2131 14.9765 20.7208 14.9631 20.2263C14.9702 19.7321 14.8779 19.2415 14.6916 18.7837C14.5053 18.3259 14.2289 17.9103 13.8788 17.5614C13.5286 17.2126 13.1119 16.9378 12.6535 16.7532C12.195 16.5686 11.7041 16.4781 11.2099 16.4871ZM11.2693 22.9146C10.7486 22.9043 10.2426 22.7403 9.81476 22.4434C9.38694 22.1465 9.05636 21.7298 8.86454 21.2457C8.67272 20.7615 8.62821 20.2315 8.73659 19.7221C8.84497 19.2128 9.10142 18.7468 9.47373 18.3826C9.84605 18.0185 10.3176 17.7725 10.8293 17.6755C11.3409 17.5785 11.8698 17.6348 12.3496 17.8373C12.8294 18.0399 13.2386 18.3797 13.5259 18.814C13.8132 19.2483 13.9658 19.7579 13.9646 20.2786C13.9438 20.9814 13.6513 21.6488 13.1487 22.1403C12.646 22.6319 11.9723 22.9095 11.2693 22.9146Z" fill="#CCECF3"/>
<path d="M14.6628 25.4772C15.7381 26.3361 16.2653 26.3326 17.4139 25.4423C17.6653 25.2468 17.8992 25.0932 18.1681 25.3515C18.226 25.4063 18.2721 25.4724 18.3036 25.5456C18.3351 25.6188 18.3514 25.6977 18.3514 25.7775C18.3514 25.8572 18.3351 25.9361 18.3036 26.0093C18.2721 26.0825 18.226 26.1486 18.1681 26.2034C17.9145 26.5162 17.5925 26.7667 17.2269 26.9356C16.8614 27.1045 16.4619 27.1872 16.0593 27.1775C15.6539 27.2076 15.2472 27.1381 14.8748 26.975C14.5024 26.8119 14.1755 26.5602 13.9226 26.2418C13.7981 26.1367 13.7204 25.9864 13.7067 25.8241C13.6929 25.6617 13.7442 25.5005 13.8493 25.376C14.1496 25.0408 14.4044 25.2607 14.6628 25.4772Z" fill="#CCECF3"/>
<path d="M20.186 28.0957C20.2368 28.1488 20.2758 28.212 20.3004 28.2812C20.3249 28.3505 20.3346 28.4241 20.3286 28.4973C20.3227 28.5706 20.3013 28.6417 20.2659 28.7061C20.2305 28.7704 20.1819 28.8266 20.1232 28.8708C19.8705 29.1529 19.5611 29.3784 19.2151 29.5324C18.8691 29.6865 18.4944 29.7656 18.1157 29.7645C17.4174 29.7645 16.7192 29.7645 16.0209 29.7645C15.3226 29.7645 14.6244 29.7645 13.9261 29.7645C13.1906 29.7531 12.4893 29.452 11.9744 28.9266C11.9096 28.8783 11.856 28.8166 11.8174 28.7455C11.7788 28.6745 11.756 28.596 11.7507 28.5153C11.7454 28.4347 11.7577 28.3538 11.7867 28.2783C11.8156 28.2029 11.8606 28.1346 11.9186 28.0782C12.1804 27.785 12.4423 27.9037 12.6762 28.1201C12.9328 28.3349 13.2293 28.4969 13.5486 28.5969C13.8679 28.697 14.2038 28.7331 14.5371 28.7032C15.4937 28.7032 16.4538 28.6787 17.4104 28.7032C18.1646 28.7241 18.8628 28.6194 19.4319 28.0817C19.4745 28.0206 19.5316 27.9708 19.598 27.9369C19.6644 27.903 19.7382 27.886 19.8127 27.8874C19.8873 27.8888 19.9603 27.9085 20.0254 27.9448C20.0905 27.9812 20.1457 28.033 20.186 28.0957Z" fill="#CCECF3"/>
<path d="M19.6938 19.2592C19.7062 19.1107 19.775 18.9727 19.886 18.8733C19.997 18.774 20.1418 18.7209 20.2908 18.725C20.4524 18.7517 20.598 18.8385 20.6984 18.9679C20.7987 19.0974 20.8464 19.2601 20.8319 19.4233C20.8412 19.4963 20.8339 19.5704 20.8106 19.6402C20.7873 19.71 20.7485 19.7736 20.6971 19.8263C20.6458 19.879 20.5832 19.9194 20.514 19.9445C20.4449 19.9696 20.371 19.9788 20.2977 19.9714C20.2088 19.9716 20.1209 19.9524 20.0402 19.9152C19.9594 19.8779 19.8878 19.8234 19.8303 19.7556C19.7728 19.6878 19.7308 19.6082 19.7072 19.5225C19.6836 19.4367 19.679 19.3469 19.6938 19.2592Z" fill="#CCECF3"/>
<path d="M20.8668 21.0642C20.8074 21.5041 20.591 21.7625 20.1999 21.8113C19.8089 21.8602 19.7216 21.5111 19.7181 21.2178C19.715 21.0547 19.7744 20.8966 19.8841 20.7758C19.9938 20.6551 20.1455 20.5809 20.3082 20.5684C20.6608 20.523 20.797 20.8198 20.8668 21.0642Z" fill="#CCECF3"/>
<path d="M22.466 20.2577C22.4703 20.3369 22.4571 20.4161 22.4272 20.4897C22.3973 20.5632 22.3516 20.6292 22.2932 20.6829C22.2347 20.7367 22.1652 20.7768 22.0894 20.8005C22.0137 20.8241 21.9336 20.8307 21.855 20.8198C21.5059 20.8198 21.2091 20.6696 21.244 20.2542C21.2789 19.8387 21.5757 19.7479 21.9213 19.741C22.267 19.734 22.4695 19.8841 22.466 20.2577Z" fill="#CCECF3"/>
<path d="M20.8005 16.4975C20.3061 16.5011 19.8173 16.6023 19.362 16.795C18.9068 16.9878 18.494 17.2685 18.1473 17.621C17.8007 17.9735 17.5269 18.3909 17.3418 18.8493C17.1566 19.3078 17.0637 19.7982 17.0683 20.2926C17.0895 21.2891 17.4939 22.2391 18.1974 22.9452C18.9009 23.6513 19.8494 24.0592 20.8459 24.0841C21.8286 24.0623 22.7641 23.658 23.4533 22.957C24.1425 22.2561 24.531 21.3139 24.5362 20.331C24.5432 18.114 22.9756 16.5045 20.8005 16.4975ZM20.7551 22.9145C19.3132 22.8866 18.0389 21.5948 18.1052 20.2192C18.1441 19.5014 18.4641 18.8278 18.996 18.3443C19.5279 17.8607 20.2289 17.6062 20.9471 17.6357C21.3023 17.6357 21.6538 17.7073 21.9807 17.8462C22.3076 17.985 22.6031 18.1884 22.8496 18.4441C23.0961 18.6997 23.2886 19.0024 23.4155 19.3342C23.5424 19.6659 23.6012 20.0197 23.5883 20.3747C23.5754 20.7296 23.4911 21.0783 23.3404 21.3999C23.1897 21.7215 22.9757 22.0094 22.7113 22.2465C22.4468 22.4836 22.1373 22.6649 21.8012 22.7797C21.4651 22.8945 21.1093 22.9403 20.7551 22.9145Z" fill="#CCECF3"/>
<path d="M19.6938 19.2592C19.7062 19.1107 19.775 18.9727 19.886 18.8733C19.997 18.774 20.1418 18.7209 20.2908 18.725C20.4524 18.7517 20.598 18.8385 20.6984 18.9679C20.7987 19.0974 20.8464 19.2601 20.8319 19.4233C20.8412 19.4963 20.8339 19.5704 20.8106 19.6402C20.7873 19.71 20.7485 19.7736 20.6971 19.8263C20.6458 19.879 20.5832 19.9194 20.514 19.9445C20.4449 19.9696 20.371 19.9788 20.2977 19.9714C20.2088 19.9716 20.1209 19.9524 20.0402 19.9152C19.9594 19.8779 19.8878 19.8234 19.8303 19.7556C19.7728 19.6878 19.7308 19.6082 19.7072 19.5225C19.6836 19.4367 19.679 19.3469 19.6938 19.2592Z" fill="#049CBD"/>
<path d="M20.8668 21.0642C20.8074 21.5041 20.591 21.7625 20.1999 21.8113C19.8089 21.8602 19.7216 21.5111 19.7181 21.2178C19.715 21.0547 19.7744 20.8966 19.8841 20.7758C19.9938 20.6551 20.1455 20.5809 20.3082 20.5684C20.6608 20.523 20.797 20.8198 20.8668 21.0642Z" fill="#049CBD"/>
<path d="M22.466 20.2577C22.4703 20.3369 22.4571 20.4161 22.4272 20.4897C22.3973 20.5632 22.3516 20.6292 22.2932 20.6829C22.2347 20.7367 22.1652 20.7768 22.0894 20.8005C22.0137 20.8241 21.9336 20.8307 21.855 20.8198C21.5059 20.8198 21.2091 20.6696 21.244 20.2542C21.2789 19.8387 21.5757 19.7479 21.9213 19.741C22.267 19.734 22.4695 19.8841 22.466 20.2577Z" fill="#049CBD"/>
<path d="M20.8005 16.4975C20.3061 16.5011 19.8173 16.6023 19.362 16.795C18.9068 16.9878 18.494 17.2685 18.1473 17.621C17.8007 17.9735 17.5269 18.3909 17.3418 18.8493C17.1566 19.3078 17.0637 19.7982 17.0683 20.2926C17.0895 21.2891 17.4939 22.2391 18.1974 22.9452C18.9009 23.6513 19.8494 24.0592 20.8459 24.0841C21.8286 24.0623 22.7641 23.658 23.4533 22.957C24.1425 22.2561 24.531 21.3139 24.5362 20.331C24.5432 18.114 22.9756 16.5045 20.8005 16.4975ZM20.7551 22.9145C19.3132 22.8866 18.0389 21.5948 18.1052 20.2192C18.1441 19.5014 18.4641 18.8278 18.996 18.3443C19.5279 17.8607 20.2289 17.6062 20.9471 17.6357C21.3023 17.6357 21.6538 17.7073 21.9807 17.8462C22.3076 17.985 22.6031 18.1884 22.8496 18.4441C23.0961 18.6997 23.2886 19.0024 23.4155 19.3342C23.5424 19.6659 23.6012 20.0197 23.5883 20.3747C23.5754 20.7296 23.4911 21.0783 23.3404 21.3999C23.1897 21.7215 22.9757 22.0094 22.7113 22.2465C22.4468 22.4836 22.1373 22.6649 21.8012 22.7797C21.4651 22.8945 21.1093 22.9403 20.7551 22.9145Z" fill="#049CBD"/>
<path d="M10.9026 20.2926C10.8642 20.6871 10.5884 20.8163 10.2497 20.8198C10.1707 20.8267 10.091 20.8158 10.0167 20.7879C9.94244 20.76 9.87535 20.7157 9.8204 20.6584C9.76546 20.6012 9.72407 20.5323 9.69928 20.4569C9.67449 20.3815 9.66693 20.3015 9.67715 20.2228C9.67715 19.8527 9.92504 19.734 10.2497 19.7479C10.3285 19.7403 10.4079 19.7483 10.4835 19.7716C10.5591 19.7949 10.6293 19.833 10.6901 19.8837C10.7508 19.9344 10.8009 19.9966 10.8374 20.0668C10.8739 20.137 10.896 20.2137 10.9026 20.2926Z" fill="#049CBC"/>
<path d="M12.4667 19.301C12.4587 19.4627 12.3948 19.6165 12.2859 19.7362C12.177 19.8559 12.0299 19.9341 11.8697 19.9574C11.7974 19.9726 11.7227 19.971 11.6512 19.9525C11.5797 19.934 11.5135 19.8992 11.4577 19.8508C11.4019 19.8025 11.358 19.7419 11.3296 19.6737C11.3011 19.6056 11.2888 19.5318 11.2936 19.4581C11.2936 19.0706 11.4647 18.7599 11.8906 18.7424C12.2188 18.725 12.4004 18.9833 12.4667 19.301Z" fill="#049CBC"/>
<path d="M12.4458 21.2004C12.3515 21.5495 12.2817 21.8812 11.8872 21.8044C11.7126 21.7792 11.554 21.6889 11.4432 21.5516C11.3325 21.4143 11.2778 21.2402 11.2902 21.0642C11.2867 20.9977 11.2972 20.9312 11.321 20.869C11.3448 20.8069 11.3815 20.7504 11.4286 20.7033C11.4757 20.6563 11.5321 20.6196 11.5943 20.5958C11.6565 20.5719 11.7229 20.5614 11.7894 20.5649C11.9553 20.5791 12.1112 20.65 12.2308 20.7658C12.3503 20.8816 12.4263 21.0351 12.4458 21.2004Z" fill="#049CBC"/>
<path d="M11.2099 16.4871C10.2262 16.5034 9.2879 16.9036 8.59517 17.6022C7.90245 18.3008 7.5102 19.2425 7.50213 20.2263C7.49654 21.2363 7.89123 22.2074 8.59983 22.9271C9.30844 23.6468 10.2733 24.0566 11.2832 24.0667C11.7779 24.059 12.2661 23.9533 12.7196 23.7556C13.1731 23.5579 13.5829 23.2721 13.9251 22.9149C14.2674 22.5577 14.5354 22.1361 14.7136 21.6746C14.8917 21.2131 14.9765 20.7208 14.9631 20.2263C14.9702 19.7321 14.8779 19.2415 14.6916 18.7837C14.5053 18.3259 14.2289 17.9103 13.8788 17.5614C13.5286 17.2126 13.1119 16.9378 12.6535 16.7532C12.195 16.5686 11.7041 16.4781 11.2099 16.4871ZM11.2693 22.9146C10.7486 22.9043 10.2426 22.7403 9.81476 22.4434C9.38694 22.1465 9.05636 21.7298 8.86454 21.2457C8.67272 20.7615 8.62821 20.2315 8.73659 19.7221C8.84497 19.2128 9.10142 18.7468 9.47373 18.3826C9.84605 18.0185 10.3176 17.7725 10.8293 17.6755C11.3409 17.5785 11.8698 17.6348 12.3496 17.8373C12.8294 18.0399 13.2386 18.3797 13.5259 18.814C13.8132 19.2483 13.9658 19.7579 13.9646 20.2786C13.9438 20.9814 13.6513 21.6488 13.1487 22.1403C12.646 22.6319 11.9723 22.9095 11.2693 22.9146Z" fill="#049CBC"/>
<path d="M20.1232 28.8708C19.8705 29.1529 19.5611 29.3784 19.2151 29.5324C18.8691 29.6865 18.4944 29.7656 18.1157 29.7645C17.4174 29.7645 16.7192 29.7645 16.0209 29.7645C15.3226 29.7645 14.6244 29.7645 13.9261 29.7645C13.1906 29.7531 12.4893 29.452 11.9744 28.9266C11.9096 28.8783 11.856 28.8166 11.8174 28.7455C11.7788 28.6745 11.756 28.596 11.7507 28.5153C11.7454 28.4347 11.7577 28.3538 11.7867 28.2783C11.8156 28.2029 11.8606 28.1346 11.9186 28.0782C12.1804 27.785 12.4423 27.9037 12.6762 28.1201C12.9328 28.3349 13.2293 28.4969 13.5486 28.5969C13.8679 28.697 14.2038 28.7331 14.5371 28.7032C15.4937 28.7032 16.4538 28.6787 17.4104 28.7032C18.1646 28.7241 18.8628 28.6194 19.4319 28.0817C19.4737 28.0212 19.5295 27.9718 19.5945 27.9376C19.6596 27.9035 19.732 27.8856 19.8055 27.8856C19.879 27.8856 19.9514 27.9035 20.0164 27.9376C20.0815 27.9718 20.1373 28.0212 20.1791 28.0817C20.2326 28.1345 20.2741 28.1982 20.3007 28.2685C20.3273 28.3389 20.3383 28.4141 20.333 28.4891C20.3276 28.5641 20.3061 28.6371 20.2699 28.7029C20.2337 28.7688 20.1837 28.8261 20.1232 28.8708Z" fill="#069DBD"/>
<path d="M18.196 26.2034C17.9395 26.52 17.6131 26.7728 17.2423 26.9419C16.8715 27.1109 16.4666 27.1916 16.0593 27.1775C15.6539 27.2076 15.2472 27.1381 14.8748 26.975C14.5024 26.8119 14.1755 26.5602 13.9226 26.2418C13.7981 26.1367 13.7204 25.9864 13.7067 25.8241C13.6929 25.6617 13.7442 25.5005 13.8493 25.3759C14.1426 25.0268 14.3974 25.2607 14.6663 25.4772C15.7416 26.3361 16.2688 26.3326 17.4174 25.4423C17.6688 25.2468 17.9027 25.0931 18.1716 25.3515C18.2311 25.4046 18.2791 25.4693 18.3127 25.5417C18.3464 25.614 18.3649 25.6924 18.3672 25.7722C18.3695 25.8519 18.3555 25.9313 18.326 26.0054C18.2966 26.0796 18.2524 26.1469 18.196 26.2034Z" fill="#099EBE"/>
<path d="M19.6938 19.2592C19.7062 19.1107 19.775 18.9727 19.886 18.8733C19.997 18.774 20.1418 18.7209 20.2908 18.725C20.4524 18.7517 20.598 18.8385 20.6984 18.9679C20.7987 19.0974 20.8464 19.2601 20.8319 19.4233C20.8412 19.4963 20.8339 19.5704 20.8106 19.6402C20.7873 19.71 20.7485 19.7736 20.6971 19.8263C20.6458 19.879 20.5832 19.9194 20.514 19.9445C20.4449 19.9696 20.371 19.9788 20.2977 19.9714C20.2088 19.9716 20.1209 19.9524 20.0402 19.9152C19.9594 19.8779 19.8878 19.8234 19.8303 19.7556C19.7728 19.6878 19.7308 19.6082 19.7072 19.5225C19.6836 19.4367 19.679 19.3469 19.6938 19.2592Z" fill="#CCEBF2"/>
<path d="M20.8668 21.0642C20.8074 21.5041 20.591 21.7625 20.1999 21.8113C19.8089 21.8602 19.7216 21.5111 19.7181 21.2178C19.715 21.0547 19.7744 20.8966 19.8841 20.7758C19.9938 20.6551 20.1455 20.5809 20.3082 20.5684C20.6608 20.523 20.797 20.8198 20.8668 21.0642Z" fill="#CCEBF2"/>
<path d="M22.466 20.2577C22.4703 20.3369 22.4571 20.4161 22.4272 20.4897C22.3973 20.5632 22.3516 20.6292 22.2932 20.6829C22.2347 20.7367 22.1652 20.7768 22.0894 20.8005C22.0137 20.8241 21.9336 20.8307 21.855 20.8198C21.5059 20.8198 21.2091 20.6696 21.244 20.2542C21.2789 19.8387 21.5757 19.7479 21.9213 19.741C22.267 19.734 22.4695 19.8841 22.466 20.2577Z" fill="#CCEBF2"/>
<path d="M10.9026 20.2926C10.8642 20.6871 10.5884 20.8163 10.2497 20.8198C10.1707 20.8267 10.091 20.8158 10.0167 20.7879C9.94244 20.76 9.87535 20.7157 9.8204 20.6584C9.76546 20.6012 9.72407 20.5323 9.69928 20.4569C9.67449 20.3815 9.66693 20.3015 9.67715 20.2228C9.67715 19.8527 9.92504 19.734 10.2497 19.7479C10.3285 19.7403 10.4079 19.7483 10.4835 19.7716C10.5591 19.7949 10.6293 19.833 10.6901 19.8837C10.7508 19.9344 10.8009 19.9966 10.8374 20.0668C10.8739 20.137 10.896 20.2137 10.9026 20.2926Z" fill="#CBEBF2"/>
<path d="M11.2971 19.4582C11.2971 19.0706 11.4682 18.7599 11.8941 18.7424C12.2223 18.7424 12.4004 18.9833 12.4667 19.301C12.4587 19.4627 12.3948 19.6165 12.2859 19.7362C12.177 19.856 12.0299 19.9341 11.8697 19.9574C11.7977 19.972 11.7233 19.9699 11.6523 19.9511C11.5812 19.9324 11.5155 19.8975 11.4601 19.8492C11.4047 19.8009 11.3612 19.7405 11.333 19.6727C11.3047 19.6049 11.2924 19.5315 11.2971 19.4582Z" fill="#CBEBF2"/>
<path d="M12.4458 21.2004C12.3515 21.5495 12.2817 21.8812 11.8872 21.8044C11.7126 21.7792 11.554 21.6889 11.4432 21.5516C11.3325 21.4143 11.2778 21.2402 11.2902 21.0642C11.2867 20.9977 11.2972 20.9312 11.321 20.869C11.3448 20.8069 11.3815 20.7504 11.4286 20.7033C11.4757 20.6563 11.5321 20.6196 11.5943 20.5958C11.6565 20.5719 11.7229 20.5614 11.7894 20.5649C11.9553 20.5791 12.1112 20.65 12.2308 20.7658C12.3503 20.8816 12.4263 21.0351 12.4458 21.2004Z" fill="#CBEBF2"/>
<path d="M20.8319 19.4233C20.8412 19.4962 20.834 19.5704 20.8106 19.6402C20.7873 19.7099 20.7485 19.7735 20.6971 19.8262C20.6458 19.8789 20.5832 19.9193 20.514 19.9445C20.4449 19.9696 20.371 19.9788 20.2978 19.9714C20.2102 19.9713 20.1237 19.9524 20.0441 19.9159C19.9645 19.8795 19.8937 19.8263 19.8364 19.7601C19.7791 19.6939 19.7367 19.6161 19.7121 19.5321C19.6875 19.4481 19.6813 19.3598 19.6938 19.2731C19.7028 19.1222 19.7701 18.9806 19.8815 18.8784C19.9928 18.7761 20.1396 18.7211 20.2908 18.725C20.4524 18.7516 20.598 18.8384 20.6984 18.9679C20.7987 19.0974 20.8465 19.2601 20.8319 19.4233Z" fill="#1BA4C2"/>
<path d="M22.466 20.2577C22.4703 20.3369 22.4571 20.4161 22.4272 20.4897C22.3973 20.5632 22.3516 20.6292 22.2932 20.6829C22.2347 20.7367 22.1652 20.7768 22.0894 20.8005C22.0137 20.8241 21.9336 20.8307 21.855 20.8198C21.5059 20.8198 21.2091 20.6696 21.244 20.2542C21.2789 19.8387 21.5757 19.7479 21.9213 19.741C22.267 19.734 22.4695 19.8841 22.466 20.2577Z" fill="#1AA4C2"/>
<path d="M20.8668 21.0642C20.8074 21.5041 20.591 21.7625 20.1999 21.8113C19.8089 21.8602 19.7216 21.5111 19.7181 21.2178C19.715 21.0547 19.7744 20.8966 19.8841 20.7758C19.9938 20.6551 20.1455 20.5809 20.3082 20.5684C20.6608 20.523 20.797 20.8198 20.8668 21.0642Z" fill="#18A2C1"/>
<path d="M12.4667 19.301C12.4587 19.4627 12.3948 19.6165 12.2859 19.7362C12.177 19.8559 12.0299 19.9341 11.8697 19.9574C11.7974 19.9726 11.7227 19.971 11.6512 19.9525C11.5797 19.934 11.5135 19.8992 11.4577 19.8508C11.4019 19.8025 11.358 19.7419 11.3296 19.6737C11.3011 19.6056 11.2888 19.5318 11.2936 19.4581C11.2936 19.0706 11.4647 18.7599 11.8906 18.7424C12.2188 18.725 12.4004 18.9833 12.4667 19.301Z" fill="#23A8C5"/>
<path d="M10.9026 20.2926C10.8642 20.6871 10.5884 20.8163 10.2497 20.8198C10.1707 20.8267 10.091 20.8158 10.0167 20.7879C9.94244 20.76 9.87535 20.7157 9.8204 20.6584C9.76546 20.6012 9.72407 20.5323 9.69928 20.4569C9.67449 20.3815 9.66693 20.3015 9.67715 20.2228C9.67715 19.8527 9.92504 19.734 10.2497 19.7479C10.3285 19.7403 10.4079 19.7483 10.4835 19.7716C10.5591 19.7949 10.6293 19.833 10.6901 19.8837C10.7508 19.9344 10.8009 19.9966 10.8374 20.0668C10.8739 20.137 10.896 20.2137 10.9026 20.2926Z" fill="#15A2C0"/>
<path d="M12.4458 21.2004C12.3515 21.5495 12.2817 21.8812 11.8872 21.8044C11.7126 21.7792 11.554 21.6889 11.4432 21.5516C11.3325 21.4143 11.2778 21.2402 11.2902 21.0642C11.2867 20.9977 11.2972 20.9312 11.321 20.869C11.3448 20.8069 11.3815 20.7504 11.4286 20.7033C11.4757 20.6563 11.5321 20.6196 11.5943 20.5958C11.6565 20.5719 11.7229 20.5614 11.7894 20.5649C11.9553 20.5791 12.1112 20.65 12.2308 20.7658C12.3503 20.8816 12.4263 21.0351 12.4458 21.2004Z" fill="#17A2C1"/>
</svg>
