<svg width="37" height="52" viewBox="0 0 37 52" fill="none" xmlns="http://www.w3.org/2000/svg">
<path d="M36.8868 18.7651C36.7209 17.4347 36.3419 15.8436 34.518 15.5002C34.1232 15.4212 34.2021 15.058 34.1587 14.7816C33.8153 12.4035 32.9919 10.1201 31.7386 8.07008C28.8408 3.50622 24.6125 1.07822 19.2433 0.801862C17.1031 0.666185 14.9585 0.985127 12.9505 1.73771C10.9425 2.49029 9.11657 3.65946 7.5928 5.16832C5.00688 7.63185 3.75537 10.7586 3.1237 14.1776C2.97367 14.9672 2.88287 15.6304 1.90377 15.7291C1.60768 15.7607 1.42212 16.0687 1.27605 16.3253C0.604891 17.5097 0.0126949 18.6941 0.261417 20.143C0.357102 20.8602 0.40721 21.5829 0.41144 22.3065C0.533827 24.9082 2.07748 26.2544 4.62787 25.9465C6.32945 25.7451 6.75583 25.2477 6.72425 23.5145C6.68082 20.8576 6.28997 18.2085 6.53869 15.5436C7.15063 9.06892 12.2909 4.2366 18.5603 4.25634C25.0034 4.30371 29.966 9.23868 30.6569 15.8634C30.9016 18.2322 30.5739 20.6009 30.4871 22.946C30.4002 25.2911 30.42 25.7767 33.381 25.9583C35.1457 26.0689 35.7774 25.5951 36.3933 23.9133C36.9691 22.2618 37.1384 20.4959 36.8868 18.7651ZM34.9917 24.0475C34.5969 24.7661 32.4927 25.1885 31.8689 24.6595C31.5728 24.4068 31.6754 24.0515 31.6912 23.7317C31.7899 21.7577 31.9557 19.7837 31.9873 17.8097C32.1216 10.048 26.851 3.54175 18.9788 3.14696C12.5949 2.82717 6.98876 7.36339 5.55565 13.921C4.9753 16.5503 5.37799 19.1639 5.40562 21.7853C5.40562 22.5394 5.48064 23.2935 5.53196 24.0475C5.56354 24.5371 5.35035 24.7384 4.85686 24.8095C2.7368 25.1174 1.69848 24.3357 1.659 22.1683C1.61557 20.518 1.06286 18.8125 2.12881 17.257C2.42885 16.8148 2.70126 16.4674 3.28162 16.5227C4.00015 16.6056 4.12648 16.2068 4.1857 15.587C4.46601 12.6181 5.37009 9.84667 7.18616 7.46209C10.0366 3.751 13.8977 1.98231 17.7075 1.84018C25.5442 1.84018 31.3912 6.86989 32.7888 14.0789C32.8879 14.4292 32.9488 14.7893 32.9704 15.1527C32.9704 16.045 33.1204 16.5187 34.2456 16.5977C35.2997 16.6767 35.6037 17.94 35.6353 18.7414C35.7024 20.518 35.88 22.3617 34.9917 24.0475Z" fill="#019BBB"/>
<path d="M16.8113 27.881C16.5389 27.5968 16.3652 27.3125 16.6968 26.9493C17.0284 26.5861 17.2929 26.6532 17.6127 26.9493C18.4023 27.7389 19.2432 27.6836 20.0407 26.9493C20.3724 26.6492 20.629 26.59 20.9448 26.9493C21.2607 27.3086 21.0791 27.5889 20.8106 27.8731C20.5507 28.1487 20.229 28.3586 19.8721 28.4856C19.5152 28.6126 19.1332 28.653 18.7576 28.6035C18.3993 28.6436 18.0366 28.5992 17.6985 28.4737C17.3605 28.3482 17.0566 28.1452 16.8113 27.881Z" fill="#0199BA"/>
<path d="M22.7727 29.4918C23.0452 29.7839 22.9267 30.0247 22.6898 30.2537C22.4555 30.4855 22.1774 30.6684 21.8717 30.7917C21.566 30.9151 21.2389 30.9764 20.9093 30.9722C20.1868 30.9722 19.4643 30.9722 18.7419 30.9722C18.0194 30.9722 17.364 30.9722 16.6731 30.9722C16.3432 30.9716 16.0167 30.9049 15.7129 30.7761C15.4091 30.6473 15.1342 30.4589 14.9044 30.2221C14.8441 30.1782 14.795 30.1206 14.7611 30.054C14.7272 29.9875 14.7096 29.9138 14.7096 29.8392C14.7096 29.7645 14.7272 29.6909 14.7611 29.6243C14.795 29.5578 14.8441 29.5002 14.9044 29.4562C14.9847 29.3338 15.1088 29.2467 15.2512 29.2129C15.3937 29.1791 15.5437 29.2012 15.6703 29.2746C16.6445 29.7631 17.7184 30.0195 18.8082 30.0236C19.8979 30.0277 20.9738 29.7795 21.9516 29.2983C22.0871 29.219 22.248 29.1949 22.4008 29.2309C22.5537 29.2669 22.6868 29.3603 22.7727 29.4918Z" fill="#0199BA"/>
<path d="M29.4962 17.1031C29.4962 15.891 29.2001 15.6028 27.9683 15.5949C25.8009 15.5949 23.6255 15.5949 21.462 15.5949H14.9518C14.557 15.5949 13.9451 15.4804 13.9609 16.0766C13.9767 16.6727 14.5847 16.499 14.9874 16.5227C15.2164 16.5227 15.4453 16.5227 15.6783 16.5227C19.5907 16.5227 23.4992 16.5227 27.4116 16.5227C28.146 16.5227 28.371 16.7083 28.3513 17.4584C28.2999 19.3929 28.292 21.3353 28.3513 23.2737C28.3789 24.091 28.0828 24.2607 27.3406 24.2331C25.8956 24.1818 24.4467 24.1897 22.9978 24.2331C22.7177 24.28 22.4301 24.2223 22.1899 24.0708C21.9496 23.9194 21.7735 23.6849 21.695 23.4119C21.1975 22.2552 20.325 21.3195 18.9314 21.3392C17.5378 21.359 16.7403 22.2631 16.1362 23.3922C16.0851 23.477 16.0466 23.5687 16.0217 23.6646C15.9388 24.0949 15.6901 24.2331 15.2322 24.2292C13.3608 24.2055 11.4855 24.2015 9.61419 24.2292C9.08911 24.2292 8.93908 24.0475 8.94303 23.5422C8.96672 21.4708 8.96672 19.3995 8.94303 17.3281C8.94303 16.7477 9.097 16.4793 9.73263 16.5385C10.2893 16.5819 10.8499 16.5385 11.4105 16.5385C11.7342 16.5385 12.1685 16.5385 12.1606 16.1437C12.1527 15.7489 11.7658 15.6147 11.371 15.6226C10.6486 15.6226 9.92608 15.6226 9.2036 15.6226C8.17712 15.6542 7.87313 15.9621 7.86523 17.0241C7.86523 19.3574 7.86523 21.6906 7.86523 24.0239C7.86523 24.6082 7.99947 25.1056 8.65483 25.1806C9.10885 25.2319 9.15227 25.5083 9.2036 25.8478C9.86291 30.0603 12.2356 33.1042 15.7296 35.3782C17.7589 36.7008 19.8157 36.689 21.8411 35.4019C25.3942 33.1397 27.7393 30.0445 28.4144 25.8044C28.4579 25.5478 28.4421 25.2754 28.7776 25.1806C29.4251 25.003 29.4843 24.4937 29.4804 23.937C29.4922 21.6393 29.5041 19.3731 29.4962 17.1031ZM27.0682 25.9307C26.3102 29.9498 24.0006 32.8278 20.483 34.7584C19.9289 35.0631 19.3025 35.2119 18.6706 35.1889C18.0387 35.166 17.4248 34.9722 16.8942 34.6281C13.6016 32.6541 11.3079 29.9103 10.5775 26.0176C10.4512 25.3425 10.5775 25.1293 11.2684 25.1727C11.9593 25.2161 12.7133 25.1727 13.4319 25.1727C13.8622 25.1727 14.2925 25.1411 14.715 25.1727C16.002 25.2991 17.0245 25.0977 17.4193 23.5935C17.5025 23.2517 17.6995 22.9483 17.9778 22.7331C18.2561 22.5179 18.5994 22.4036 18.9511 22.4091C19.3196 22.4166 19.6744 22.5499 19.9567 22.7869C20.2389 23.0239 20.4316 23.3503 20.5027 23.712C20.862 25.0069 21.6871 25.2556 22.8715 25.1846C24.0559 25.1135 25.2403 25.1846 26.4247 25.1569C27.0484 25.153 27.1708 25.3859 27.0682 25.9307Z" fill="#0199BA"/>
<path d="M23.7005 45.714C23.7842 44.6025 23.9599 43.4999 24.2256 42.4174C24.4388 41.7226 24.7783 41.0751 25.5916 41.0554C26.4049 41.0357 26.6694 41.7305 26.8786 42.3582C27.1431 43.1478 27.3445 43.9808 27.6011 44.8889C28.1578 44.5375 28.1933 43.9414 28.5486 43.59C28.7302 43.4084 28.9 43.1241 29.1961 43.2584C29.3334 43.3243 29.4398 43.4411 29.4929 43.5839C29.5459 43.7268 29.5414 43.8846 29.4803 44.0243C29.284 44.6902 28.9228 45.2958 28.4302 45.7851C27.838 46.3062 26.9457 46.0654 26.5667 45.2284C26.3501 44.611 26.1669 43.9824 26.018 43.3452C25.9683 42.963 25.7917 42.6085 25.5166 42.3385C24.877 43.5229 25.0389 44.8573 24.7704 46.0772C24.6796 46.4957 24.6441 46.9221 24.5414 47.3366C24.3954 47.9367 24.3282 48.6908 23.5031 48.675C22.678 48.6592 22.599 47.8854 22.4885 47.3011C22.2634 46.0772 22.1174 44.8376 21.9358 43.6058C21.7857 42.5556 21.6278 41.5055 21.3712 40.4474C20.8698 41.7147 20.7751 43.0373 20.629 44.3441C20.4237 46.1364 20.2342 47.9328 19.871 49.7015C19.8075 50.0228 19.7177 50.3384 19.6025 50.645C19.5625 50.8414 19.4573 51.0185 19.3039 51.1475C19.1505 51.2765 18.958 51.3499 18.7576 51.3557C18.5583 51.3417 18.3685 51.265 18.2153 51.1367C18.0622 51.0084 17.9535 50.8349 17.9049 50.6411C17.4667 49.4567 17.3917 48.2052 17.214 46.9734C16.9297 44.9599 16.685 42.9425 16.4244 40.9251C16.4271 40.8222 16.3988 40.7209 16.3432 40.6343C16.2876 40.5477 16.2072 40.4798 16.1125 40.4395C15.7177 41.8331 15.6861 43.2465 15.465 44.6283C15.3032 45.6311 15.1689 46.6418 14.9636 47.6367C14.861 48.1499 14.6636 48.7184 13.9846 48.6789C13.3963 48.6473 13.195 48.1578 13.0686 47.6643C12.7054 46.4246 12.6501 45.1376 12.4804 43.8742C12.4186 43.3271 12.2679 42.7937 12.0343 42.2951C11.4973 42.832 11.5368 43.4794 11.3315 44.0559C11.2366 44.4358 11.1206 44.8101 10.9841 45.1771C10.459 46.2588 9.45228 46.3299 8.7377 45.3626C8.69378 45.3139 8.6566 45.2594 8.62715 45.2008C8.39817 44.6244 7.69148 43.89 8.42976 43.4676C9.16803 43.0452 9.17197 44.1072 9.5194 44.502C9.6023 44.5967 9.67731 44.6954 9.7997 44.8494C10.3327 44.2296 10.2458 43.4597 10.4906 42.8122C10.7827 42.0542 10.9091 41.0514 11.9435 41.0672C13.0607 41.0672 13.2818 42.1134 13.4555 42.9781C13.6687 44.0361 13.7635 45.1179 13.9846 46.1917C14.4346 45.0073 14.3793 43.7005 14.6202 42.4648C14.7978 41.5291 14.9202 40.5816 15.1334 39.6578C15.2676 39.0972 15.4137 38.43 16.1915 38.426C16.9692 38.4221 17.0956 39.0656 17.2614 39.6381C17.7193 41.2173 17.8378 42.8636 18.051 44.4901C18.2444 46.018 18.4458 47.5459 18.73 49.0816C19.1919 48.0196 19.2235 46.8708 19.3656 45.7574C19.6025 43.9019 19.7407 42.0345 20.1552 40.2026C20.1908 40.0447 20.2105 39.8789 20.2618 39.721C20.4592 39.1367 20.5658 38.426 21.3831 38.43C22.2003 38.4339 22.2713 39.109 22.4293 39.6697C22.7459 41.0455 22.9701 42.4409 23.1004 43.8466C23.1991 44.5296 23.2702 45.2166 23.357 45.8996C23.736 46.2944 23.5544 45.7061 23.7005 45.714Z" fill="#009ABB"/>
<path d="M16.8113 27.881C16.5389 27.5968 16.3652 27.3125 16.6968 26.9493C17.0284 26.5861 17.2929 26.6532 17.6127 26.9493C18.4023 27.7389 19.2432 27.6836 20.0407 26.9493C20.3724 26.6492 20.629 26.59 20.9448 26.9493C21.2607 27.3086 21.0791 27.5889 20.8106 27.8731C20.5507 28.1487 20.229 28.3586 19.8721 28.4856C19.5152 28.6126 19.1332 28.653 18.7576 28.6035C18.3993 28.6436 18.0366 28.5992 17.6985 28.4737C17.3605 28.3482 17.0566 28.1452 16.8113 27.881Z" fill="#CCECF3"/>
<path d="M22.7057 30.2537C22.4713 30.4855 22.1932 30.6684 21.8876 30.7917C21.5819 30.9151 21.2548 30.9764 20.9252 30.9722C20.2027 30.9722 19.4802 30.9722 18.7577 30.9722C18.0353 30.9722 17.3799 30.9722 16.689 30.9722C16.359 30.9716 16.0326 30.9049 15.7288 30.7761C15.425 30.6473 15.1501 30.4589 14.9203 30.2221C14.8599 30.1782 14.8108 30.1206 14.777 30.054C14.7431 29.9875 14.7255 29.9138 14.7255 29.8392C14.7255 29.7645 14.7431 29.6909 14.777 29.6243C14.8108 29.5578 14.8599 29.5002 14.9203 29.4562C15.0005 29.3338 15.1246 29.2467 15.2671 29.2129C15.4096 29.1791 15.5595 29.2012 15.6862 29.2746C16.6603 29.7631 17.7343 30.0195 18.824 30.0236C19.9138 30.0277 20.9897 29.7795 21.9674 29.2983C22.1044 29.2142 22.269 29.1873 22.4256 29.2235C22.5822 29.2597 22.7183 29.356 22.8044 29.4918C23.0452 29.7839 22.9268 30.0247 22.7057 30.2537Z" fill="#CCECF3"/>
<path d="M22.7057 30.2537C22.4713 30.4855 22.1932 30.6684 21.8876 30.7917C21.5819 30.9151 21.2548 30.9764 20.9252 30.9722C20.2027 30.9722 19.4802 30.9722 18.7577 30.9722C18.0353 30.9722 17.3799 30.9722 16.689 30.9722C16.359 30.9716 16.0326 30.9049 15.7288 30.7761C15.425 30.6473 15.1501 30.4589 14.9203 30.2221C14.8599 30.1782 14.8108 30.1206 14.777 30.054C14.7431 29.9875 14.7255 29.9138 14.7255 29.8392C14.7255 29.7645 14.7431 29.6909 14.777 29.6243C14.8108 29.5578 14.8599 29.5002 14.9203 29.4562C15.0005 29.3338 15.1246 29.2467 15.2671 29.2129C15.4096 29.1791 15.5595 29.2012 15.6862 29.2746C16.6603 29.7631 17.7343 30.0195 18.824 30.0236C19.9138 30.0277 20.9897 29.7795 21.9674 29.2983C22.1044 29.2142 22.269 29.1873 22.4256 29.2235C22.5822 29.2597 22.7183 29.356 22.8044 29.4918C23.0452 29.7839 22.9268 30.0247 22.7057 30.2537Z" fill="#0399BA"/>
<path d="M20.8106 27.8889C20.5491 28.1617 20.2268 28.3686 19.87 28.4928C19.5131 28.617 19.132 28.655 18.7576 28.6035C18.3993 28.6436 18.0366 28.5992 17.6985 28.4737C17.3605 28.3482 17.0566 28.1452 16.8113 27.881C16.5389 27.5968 16.3652 27.3125 16.6968 26.9493C17.0284 26.5861 17.2929 26.6532 17.6127 26.9493C18.4023 27.7389 19.2432 27.6836 20.0407 26.9493C20.3724 26.6492 20.629 26.59 20.9448 26.9493C21.2607 27.3086 21.0791 27.6244 20.8106 27.8889Z" fill="#049ABB"/>
</svg>
