<svg width="61" height="86" viewBox="0 0 61 86" fill="none" xmlns="http://www.w3.org/2000/svg">
<g clip-path="url(#clip0_802_180)">
<path d="M40.9268 50.9844C41.0324 51.5552 41.1828 52.3755 41.3633 53.373C41.7245 55.3688 42.2047 58.0742 42.6807 60.9111C43.1567 63.7485 43.6278 66.715 43.9717 69.2354C44.3178 71.7722 44.5286 73.8131 44.4971 74.8252C44.369 78.9374 41.9948 81.5897 38.748 83.0674C35.4789 84.5552 31.3538 84.8299 27.8887 84.1426C25.3098 83.6311 23.2911 82.4818 21.8857 81.1621C20.4705 79.8331 19.7067 78.3606 19.5752 77.2178C19.436 76.0082 19.5011 73.9797 19.6875 71.5791C19.8729 69.1912 20.1745 66.4745 20.4951 63.9111C20.8157 61.3486 21.1544 58.9428 21.4131 57.1777C21.5424 56.2955 21.6516 55.5736 21.7285 55.0723C21.7554 54.897 21.7784 54.7486 21.7969 54.6299L40.8535 50.5947C40.8744 50.7073 40.8996 50.8376 40.9268 50.9844Z" fill="#FFC4B0" stroke="black"/>
<path d="M34.3591 60.7827C31.0221 62.7303 25.3509 64.0513 20.3066 64.4937L20.4552 67.4872C29.5619 65.7702 33.5127 62.649 34.3591 60.7827Z" fill="#FFA98C"/>
<path d="M19.4413 76.9943C19.4243 76.9943 19.4074 76.9943 19.3904 76.9924C19.1075 76.9638 18.9001 76.7081 18.9284 76.4219L21.1744 53.5751L41.3569 49.2805L41.4436 49.8185C41.4738 49.9997 44.3875 68.0234 45.0777 74.0409C45.1097 74.3271 44.908 74.5846 44.6251 74.619C44.3422 74.6533 44.0876 74.4473 44.0537 74.1611C43.4332 68.7542 41.0042 53.577 40.512 50.5244L22.123 54.4374L19.9505 76.523C19.9241 76.792 19.6997 76.9924 19.4394 76.9924L19.4413 76.9943Z" fill="black"/>
<path d="M45.172 50.4214C45.172 50.4214 28.5274 69.7253 13.25 64.1428C-2.02542 58.5585 8.55236 13.9256 16.6125 6.77869C24.6727 -0.366312 52.2119 10.9035 51.9422 25.4148C51.6725 39.9261 45.1701 50.4214 45.1701 50.4214H45.172Z" fill="#FFC4B0"/>
<path d="M19.0698 65.7798C16.9689 65.7798 14.9567 65.4306 13.0407 64.7304C9.16526 63.3148 6.62878 59.5315 5.50104 53.4873C2.51195 37.4459 10.2081 11.6266 16.2071 6.30935C20.7822 2.2532 30.2001 3.8997 37.5022 7.33197C44.8815 10.8005 52.7116 17.375 52.5626 25.4263C52.293 39.9433 45.7622 50.6465 45.6962 50.7533L45.6378 50.8316C45.5397 50.946 43.1824 53.6667 39.4012 56.7937C39.1372 57.0112 38.7487 56.9711 38.5319 56.7059C38.315 56.4388 38.3546 56.0458 38.6186 55.8264C42.0829 52.9607 44.3742 50.3889 44.6741 50.0493C45.1116 49.3186 51.0728 39.1096 51.3255 25.4034C51.4632 17.9531 44.0046 11.7697 36.9798 8.46525C28.7725 4.60752 20.5653 4.10575 17.0199 7.24802C11.3529 12.2715 3.84902 37.8771 6.71553 53.2546C7.75652 58.8332 10.0252 62.2979 13.4612 63.5552C17.3989 64.9937 21.8118 64.8373 26.5717 63.0916C26.8923 62.9752 27.2469 63.1412 27.3619 63.4655C27.4788 63.7899 27.3129 64.1485 26.9923 64.2649C24.2427 65.2742 21.595 65.7798 19.0717 65.7798H19.0698Z" fill="black"/>
<path d="M36.3255 12.613C35.3033 13.3551 17.1368 26.8362 10.2893 18.6991C3.44173 10.562 10.046 2.55465 17.614 0.875721C30.698 -2.02425 45.2305 2.96485 42.034 5.83048C38.8393 8.69611 36.3255 12.613 36.3255 12.613Z" fill="black"/>
<path d="M38.1981 5.9316C38.1981 5.9316 59.5799 0.4083 60.9264 19.7866C62.273 39.1649 45.3492 52.6288 42.8373 52.6536C40.3253 52.6784 50.4166 46.3576 49.3624 38.9341C48.6665 34.0384 40.7817 33.3268 39.2164 36.9861C38.2603 39.2183 35.1053 35.6086 35.1053 35.6086C35.1053 35.6086 40.4083 24.2663 34.8544 20.6795C29.3006 17.0927 32.4537 15.2096 32.4537 15.2096L38.2018 5.9316H38.1981Z" fill="black"/>
<path d="M7.70375 35.828C7.39824 37.3333 8.00171 38.7299 9.05214 38.9493C10.1026 39.1687 11.202 38.1251 11.5075 36.6198C11.813 35.1145 11.2096 33.7179 10.1591 33.4985C9.10871 33.2791 8.00926 34.3227 7.70375 35.828Z" fill="black"/>
<path d="M6.989 30.1521C6.77401 30.1521 6.56468 30.0376 6.45153 29.8354C6.28369 29.5358 6.38741 29.1543 6.68349 28.9845C9.03138 27.6375 12.3109 28.3701 13.2746 28.7345C13.5933 28.8547 13.7573 29.2153 13.6367 29.5377C13.5178 29.8621 13.1614 30.0243 12.8427 29.9041C12.2128 29.6656 9.24637 28.9482 7.29262 30.07C7.19644 30.1254 7.09084 30.1521 6.989 30.1521Z" fill="black"/>
<path d="M12.2128 48.5478C11.8073 48.5478 11.4207 48.4906 11.0681 48.3723C10.3024 48.1147 9.72156 47.5824 9.38776 46.8288C8.56364 44.9763 10.2345 42.2824 12.0034 39.4301C12.8879 38.0011 13.8044 36.5263 14.242 35.3472C14.3627 35.0248 14.721 34.8607 15.0378 34.9828C15.3565 35.1049 15.5187 35.4655 15.398 35.788C14.9171 37.0834 14.01 38.5448 13.0501 40.094C11.6036 42.4274 9.96295 45.0736 10.5155 46.3175C10.7097 46.7544 11.0171 47.0387 11.4584 47.1856C12.2071 47.4374 13.3179 47.2486 14.2853 46.7048C14.5833 46.5369 14.9586 46.6457 15.1245 46.9471C15.2905 47.2486 15.183 47.6282 14.885 47.7961C14.0062 48.2903 13.0671 48.5478 12.2128 48.5478Z" fill="black"/>
<path d="M31.4675 32.2298C31.2997 32.2298 31.1337 32.1611 31.0111 32.0275C27.2055 27.8302 20.9067 29.6389 20.8445 29.656C20.5163 29.7514 20.175 29.5645 20.0769 29.2325C19.9807 28.9024 20.1674 28.5552 20.4937 28.4579C20.7822 28.372 27.5883 26.405 31.9201 31.1823C32.1502 31.4361 32.1332 31.8329 31.8824 32.0657C31.7636 32.1764 31.6146 32.2298 31.4656 32.2298H31.4675Z" fill="black"/>
<path d="M14.0629 54.8133C12.4354 54.8133 10.6777 54.3421 9.01253 52.9608C8.74851 52.7433 8.71079 52.3483 8.92578 52.0812C9.14265 51.8141 9.53114 51.776 9.79516 51.9935C14.2722 55.7043 19.5092 51.7817 19.7299 51.6119C20.0014 51.4058 20.3899 51.4593 20.5955 51.7321C20.801 52.0068 20.7482 52.3979 20.4767 52.6078C20.4352 52.6402 17.5517 54.8114 14.0629 54.8114V54.8133Z" fill="black"/>
<path d="M22.9773 36.7629C22.6718 38.2682 23.2753 39.6648 24.3257 39.8842C25.3761 40.1036 26.4756 39.06 26.7811 37.5547C27.0866 36.0493 26.4831 34.6528 25.4327 34.4334C24.3823 34.214 23.2828 35.2576 22.9773 36.7629Z" fill="black"/>
<path d="M50.8976 36.6561C48.4893 30.8866 40.3763 35.0115 40.3763 35.0115L41.8417 46.785C44.925 48.0957 53.7716 43.5435 50.8976 36.6561Z" fill="#FEC6A1"/>
<path d="M43.1353 47.6378C42.5677 47.6378 42.0453 47.5481 41.6021 47.3592C41.2872 47.2257 41.1401 46.8594 41.2721 46.5408C41.4041 46.2221 41.7662 46.0714 42.0811 46.2069C43.4917 46.8059 46.7807 45.831 48.9079 43.677C50.2714 42.2957 51.6236 39.9986 50.3299 36.8983C49.8339 35.7116 49.0626 34.9351 47.9688 34.5288C44.9627 33.405 40.6969 35.5457 40.6554 35.5686C40.3499 35.725 39.9784 35.5991 39.8256 35.29C39.6729 34.9809 39.7954 34.607 40.0991 34.4524C40.2933 34.3532 44.891 32.0504 48.395 33.3573C49.8056 33.882 50.839 34.9103 51.467 36.4137C52.6853 39.3328 52.0856 42.2251 49.7811 44.5623C47.9235 46.4454 45.2154 47.6397 43.1353 47.6397V47.6378Z" fill="black"/>
<path d="M47.8744 42.0191C47.7764 42.0191 47.6764 41.9962 47.584 41.9447C47.2823 41.7825 47.1691 41.4028 47.3294 41.0995C47.9329 39.9548 47.9385 38.8406 47.3426 38.0431C46.924 37.4821 46.2526 37.1731 45.7057 37.2933C45.37 37.3639 45.0438 37.1521 44.9721 36.8144C44.9004 36.4767 45.1116 36.1447 45.4454 36.0722C46.46 35.8528 47.6198 36.3393 48.3289 37.2914C49.2266 38.4952 49.2586 40.0978 48.4194 41.6909C48.3082 41.9008 48.0951 42.021 47.8744 42.021V42.0191Z" fill="black"/>
<path opacity="0.3" d="M29.7608 37.0605C28.9103 41.5708 25.6723 44.734 22.5266 44.1273C19.381 43.5206 17.5216 39.3729 18.3721 34.8627C19.2226 30.3524 22.4606 27.1892 25.6062 27.7959C28.7519 28.4026 30.6113 32.5503 29.7608 37.0605Z" fill="white"/>
<path d="M23.296 44.8256C23.0018 44.8256 22.7058 44.7989 22.4116 44.7416C18.9378 44.0701 16.8539 39.5865 17.7667 34.7463C18.6794 29.906 22.2437 26.51 25.7231 27.1834C29.1969 27.855 31.2808 32.3385 30.368 37.1788C29.5326 41.6089 26.4718 44.8256 23.296 44.8256ZM24.8198 28.3453C22.2343 28.3453 19.7016 31.1461 18.9793 34.979C18.1948 39.1439 19.8374 42.9711 22.6416 43.513C25.4497 44.0548 28.3671 41.1071 29.1535 36.9441C29.938 32.7792 28.2954 28.952 25.4912 28.4102C25.2668 28.3663 25.0423 28.3453 24.8198 28.3453Z" fill="black"/>
<path opacity="0.3" d="M12.2128 36.6808C11.3623 41.1911 8.12428 44.3543 4.97866 43.7476C1.83305 43.1409 -0.0264059 38.9932 0.824117 34.483C1.67464 29.9727 4.91266 26.8095 8.05827 27.4162C11.2039 28.0229 13.0633 32.1706 12.2128 36.6808Z" fill="white"/>
<path d="M5.76886 44.4478C5.46713 44.4478 5.1635 44.4192 4.86365 44.3619C3.13998 44.0281 1.7105 42.7765 0.841114 40.8362C0.00379262 38.9703 -0.216853 36.6713 0.216895 34.3647C0.652528 32.0581 1.69352 30.0033 3.15129 28.58C4.66564 27.0995 6.44966 26.468 8.17334 26.7999C11.6471 27.4715 13.731 31.955 12.8182 36.7953C12.3826 39.1019 11.3416 41.1567 9.88381 42.58C8.63348 43.801 7.19835 44.4459 5.76698 44.4459L5.76886 44.4478ZM7.27755 27.9657C6.16301 27.9657 5.02584 28.4884 4.01124 29.4786C2.7364 30.7244 1.81988 32.5427 1.43139 34.5993C1.0429 36.6541 1.23337 38.686 1.96509 40.3192C2.66474 41.8798 3.77551 42.8776 5.09373 43.1314C6.41194 43.387 7.80748 42.87 9.02574 41.6814C10.3006 40.4355 11.2171 38.6173 11.6037 36.5625C12.3882 32.3977 10.7456 28.5705 7.94137 28.0286C7.72073 27.9866 7.4982 27.9657 7.27567 27.9657H7.27755Z" fill="black"/>
<path d="M18.0477 33.7809C17.8836 33.7809 17.7177 33.7141 17.597 33.5824C15.9148 31.7642 12.9464 33.281 12.9163 33.2963C12.6145 33.4546 12.2411 33.3325 12.0846 33.0272C11.9281 32.7201 12.0469 32.3442 12.3505 32.1859C12.507 32.1057 16.1863 30.2303 18.4984 32.7296C18.7323 32.9815 18.7191 33.3764 18.4701 33.613C18.3513 33.7255 18.1986 33.7828 18.0477 33.7828V33.7809Z" fill="black"/>
<path d="M30.0285 37.2132C29.7268 37.2132 29.4628 36.988 29.4175 36.677C29.3685 36.3355 29.6023 36.0188 29.9399 35.9692L40.8722 34.3761C41.2079 34.3265 41.5228 34.5631 41.5719 34.9046C41.6209 35.2461 41.3871 35.5628 41.0476 35.6124L30.1153 37.2055C30.0851 37.2093 30.0549 37.2132 30.0266 37.2132H30.0285Z" fill="black"/>
<path d="M5.58779 0.894806C1.41815 3.93215 1.10887 12.5748 2.65339 15.7724C6.24595 23.2131 15.3584 18.5579 15.3584 18.5579L17.0972 5.21996C10.7777 6.89508 8.70889 -1.37938 5.58779 0.894806Z" fill="black"/>
</g>
<defs>
<clipPath id="clip0_802_180">
<rect width="61" height="86" fill="white"/>
</clipPath>
</defs>
</svg>
