<svg width="64" height="86" viewBox="0 0 64 86" fill="none" xmlns="http://www.w3.org/2000/svg">
<g clip-path="url(#clip0_802_212)">
<path d="M46.3338 53.4261C57.721 45.6077 60.5626 30.1129 52.6807 18.8175C44.7987 7.52205 29.178 4.70337 17.7908 12.5218C6.40364 20.3402 3.56205 35.835 11.444 47.1304C19.3259 58.4259 34.9466 61.2445 46.3338 53.4261Z" fill="black"/>
<path d="M15.7027 21.7406C14.7692 20.4976 13.4777 19.5209 11.9944 19.0262C8.59299 17.8846 4.19419 19.3687 2.72366 22.7554C1.99479 24.4297 1.6879 26.3323 2.07152 28.1081C2.45513 29.8839 3.59319 31.5582 5.24274 32.3699C8.09429 33.7906 12.3652 32.9661 14.8076 31.0888C15.8561 30.2771 16.7129 29.1862 17.0709 27.9305C17.2372 27.3597 17.2883 26.7509 17.2755 26.1547C17.2372 24.5692 16.6489 23.0217 15.6899 21.7406H15.7027Z" fill="black"/>
<path d="M12.1876 17.5481C16.6478 15.3023 22.4149 13.5545 28.4825 14.4719C34.5098 15.3833 40.9068 18.9367 46.6642 27.4114C44.5422 30.8199 42.2761 34.5882 42.0822 39.8274C42.0336 40.7435 42.0452 41.4703 42.1232 42.0188C42.1968 42.5366 42.3449 43.0202 42.6827 43.3C43.0899 43.6369 43.5705 43.542 43.9366 43.3547C44.2971 43.1704 44.6778 42.8396 45.0685 42.4397L45.0695 42.4407C47.0584 40.468 49.8916 38.9338 52.6603 39.135C56.2933 39.3976 58.4195 41.655 58.7814 44.1897V44.2004L58.7863 44.2346C58.9547 45.4486 58.5116 46.7085 57.6671 47.7922C56.8233 48.8751 55.6085 49.741 54.3195 50.1594C51.661 51.0222 48.285 50.7501 46.0919 49.095L45.382 48.5588L45.2931 49.4436V49.4465C45.2929 49.4481 45.2924 49.4504 45.2921 49.4534C45.2915 49.4597 45.2914 49.4693 45.2902 49.4817C45.2877 49.5067 45.2833 49.5439 45.2784 49.592C45.2688 49.6884 45.2552 49.8293 45.2374 50.0071C45.2019 50.3631 45.1511 50.8682 45.0919 51.4612C44.9736 52.6471 44.8205 54.1881 44.6798 55.6086C44.4101 58.3443 43.212 60.7845 41.1564 62.5461L40.9738 62.7034L40.9825 62.9436L41.506 77.5686L41.5177 77.8958L41.8224 78.0159L50.9816 81.635C50.4418 81.9535 49.687 82.2744 48.7081 82.5793C47.2427 83.0358 45.3459 83.4418 43.087 83.7834C38.5708 84.4664 32.6502 84.8852 25.9269 84.9485C19.214 85.0117 14.636 84.5269 11.7462 84.0295C10.3015 83.7809 9.27899 83.5285 8.62219 83.3411C8.59759 83.334 8.57351 83.3264 8.54993 83.3196L16.4943 77.1731L16.6671 77.0393L16.6866 76.8215L17.4288 68.4241L17.4728 67.925L16.9728 67.8821C16.1769 67.8137 14.2299 67.5956 12.1564 67.01C10.0643 66.4191 7.93351 65.4779 6.68372 64.0208H6.68274C5.42293 62.5589 4.95127 60.9273 4.90051 58.8782C4.86194 57.3194 5.06629 55.5504 5.34778 53.4553L5.64856 51.2473C6.09661 47.9204 6.62418 42.9881 6.6759 39.9006C6.74009 36.1826 6.63781 33.9966 7.2218 29.3372L7.22278 29.3362C7.64098 25.9688 8.89716 22.9987 10.0568 20.8635C10.6357 19.7976 11.1885 18.944 11.5948 18.3586C11.798 18.0661 11.9644 17.8408 12.0792 17.6897C12.1235 17.6314 12.1596 17.5839 12.1876 17.5481Z" fill="#FFC4B0" stroke="black"/>
<path d="M36.0685 66C31.6697 68.0295 24.56 68.6764 18.371 68.2197L18.0001 72.4689C29.3424 71.9996 34.7002 68.448 36.0685 66Z" fill="#FFA98C"/>
<path d="M35.3439 37.4309C34.9603 36.4542 33.4642 35.3761 31.7635 35.1478C30.0756 34.9321 27.2879 35.6298 27.0194 37.1646C27.5309 39.5745 32.8887 40.5512 35.3439 37.4182V37.4309Z" fill="white"/>
<path d="M28.2087 38.1539C28.669 39.2067 29.9349 39.676 31.0474 39.2067C32.1599 38.7374 32.697 37.507 32.2366 36.4542C31.7763 35.4015 30.5104 34.9321 29.3979 35.4015C28.2854 35.8708 27.7483 37.1011 28.2087 38.1539Z" fill="black"/>
<path d="M32.39 36.4035L30.2162 37.3041L32.633 37.5704L32.39 36.4035Z" fill="white"/>
<path d="M26.7765 36.7079C27.6204 35.7947 29.3979 35.2873 31.2009 35.3634C32.9016 35.4395 34.6534 36.4669 35.3567 37.4183" stroke="black" stroke-width="1.5" stroke-linecap="round" stroke-linejoin="round"/>
<path d="M38.6558 31.2664C35.8682 28.2476 32.0704 27.2202 28.132 28.2476" stroke="black" stroke-width="1.5" stroke-linecap="round" stroke-linejoin="round"/>
<path d="M9.3219 28.1081C11.5213 26.3957 14.667 25.1273 18.6182 26.1167" stroke="black" stroke-width="1.5" stroke-linecap="round" stroke-linejoin="round"/>
<path d="M8.5675 34.8307C9.1685 33.9681 10.882 33.2578 12.5827 33.4354C14.2834 33.613 16.828 34.9321 16.7257 36.4923C14.8716 38.6105 9.82065 38.3695 8.5675 34.8307Z" fill="white"/>
<path d="M10.3705 36.8601C11.0993 37.748 12.4548 37.8749 13.401 37.1265C14.3473 36.3781 14.5263 35.059 13.8102 34.1584C13.0941 33.2578 11.7259 33.1437 10.7796 33.892C9.83339 34.6404 9.65437 35.9596 10.3705 36.8601Z" fill="black"/>
<path d="M13.951 34.2979L12.1096 35.7313L14.5008 35.3634L13.951 34.2979Z" fill="white"/>
<path d="M17.0838 36.0991C16.47 35.0209 14.8588 34.1203 13.0942 33.7779C11.4191 33.4608 9.47543 34.0696 8.58032 34.8307" stroke="black" stroke-width="1.5" stroke-linecap="round" stroke-linejoin="round"/>
<path d="M22.9276 31.2664C20.2167 35.4649 18.6694 38.5725 17.7359 41.1727C17.0454 43.1134 16.3166 46.1449 20.9711 46.7411" stroke="black" stroke-width="1.5" stroke-linecap="round" stroke-linejoin="round"/>
<path d="M55.5349 45.0161C54.8955 44.4579 53.2204 43.8998 51.443 44.1662C49.6656 44.4326 48.0799 45.6122 47.4022 47.1977" stroke="black" stroke-width="1.5" stroke-linecap="round" stroke-linejoin="round"/>
<path d="M52.3765 46.5381C51.9033 46.1323 50.2026 45.0287 48.3357 45.7771" stroke="black" stroke-width="1.5" stroke-linecap="round" stroke-linejoin="round"/>
<path d="M64.0001 25.7108C64.0385 24.1633 63.5525 22.6412 62.7597 21.3094C62.1971 20.3708 61.481 19.4956 60.5475 18.9374C59.6013 18.3667 58.4377 18.1257 57.3891 18.4808C58.9875 17.5168 60.3429 16.0581 60.0488 14.1048C58.4888 15.1956 56.5196 16.0328 54.6782 15.4747C53.8343 15.2083 53.0926 14.6629 52.4404 14.0794C51.3791 13.1281 50.484 12.0246 49.5505 10.9845C49.5505 10.9211 49.5761 10.8323 49.5505 10.7689C49.2053 9.00576 48.4381 7.35682 47.2616 5.98693C45.1645 3.50083 42.0956 2.0041 38.7965 2.08021C36.4564 2.14363 34.1419 3.00615 32.2878 4.43946C32.2494 4.38872 32.2111 4.33799 32.1599 4.28725C31.5717 3.60231 30.9324 2.98078 30.2035 2.43536C27.7228 0.545426 24.5643 -0.443938 21.4698 0.241006C19.117 0.773741 16.9304 2.2451 15.7539 4.35067C14.731 3.46278 13.4395 2.89199 12.084 2.76515C8.92556 2.46073 6.02287 4.54093 5.17891 7.54708C4.693 9.25944 4.93595 11.0986 5.14055 12.8237C5.20449 13.2676 5.25563 13.7116 5.30678 14.1555C5.33236 14.3712 5.34515 14.5995 5.35793 14.8151C5.35793 14.8658 5.35793 14.9166 5.35793 14.98V15.1449C5.35793 15.2844 5.33236 15.3986 5.30678 15.5127C4.04085 16.4387 2.17392 16.4767 0.907982 15.5508C0.792897 18.4428 2.60868 19.4068 3.45264 19.7112C0.882408 21.3094 -0.498611 24.5946 0.179111 27.5373C0.959131 25.8249 2.57032 24.5185 4.42447 24.0872C3.82347 26.2308 5.12776 27.4866 5.4858 27.8925C5.85663 28.3237 6.30419 28.6789 6.80289 28.9706C7.83865 29.5921 9.06623 29.9092 10.2426 29.8966C12.6211 29.8458 15.2552 28.6408 16.6746 26.7255C17.7871 25.2034 18.3753 23.3769 18.7461 21.525C18.9635 20.3708 19.1298 19.1784 19.7052 18.1637C21.2524 15.4874 23.8866 16.6036 25.3188 18.6584C25.5234 18.9628 25.7407 19.2799 26.0604 19.4702C26.8149 19.8761 27.7228 19.3307 28.3749 18.7726C29.6025 17.7451 31.2648 17.3519 32.5691 18.5823C33.3491 19.3307 33.6049 20.4849 33.5665 21.5631C33.5665 21.7533 33.541 21.9309 33.5282 22.1212C33.4387 23.0091 33.2468 23.897 33.1829 24.7848C33.055 26.624 33.2085 28.7169 34.4488 30.0868C38.106 34.1077 41.533 33.6891 43.5278 33.7525C43.1186 34.8561 42.9779 35.8201 43.0291 36.6445C43.1825 39.397 45.318 40.6908 45.855 41.1093C45.855 41.1093 45.8934 41.084 45.9062 41.084C45.9573 41.0586 45.9829 41.0206 46.0341 40.9952C47.9394 39.5365 50.3306 38.4964 52.7346 38.6613C54.9723 38.8262 56.6986 39.7141 57.8239 40.9825C59.3583 39.3716 60.1639 37.0377 59.7675 34.8687C60.6371 36.1118 60.6115 37.9003 59.7292 39.1179C61.66 38.712 63.3096 37.1773 63.8339 35.2873C64.3581 33.3974 63.7443 31.2411 62.2866 29.9092C63.3991 28.8311 64.0001 27.2836 64.0257 25.7362L64.0001 25.7108ZM35.2416 4.40141C37.863 3.25984 40.7913 3.29789 43.2976 4.62972C44.9727 5.54298 46.4049 7.00166 47.2616 8.72671C45.8039 7.58513 44.0648 6.76066 42.2363 6.95092C42.7094 6.11377 42.1212 4.9722 41.2389 4.52825C40.3693 4.0843 38.5408 3.89404 37.5561 3.99552C36.7122 4.07162 35.881 4.22383 35.101 4.45215C35.1521 4.42678 35.1905 4.40141 35.2416 4.38872V4.40141ZM19.0147 2.95542C21.0478 1.50942 23.5925 1.16695 25.9965 1.88995C27.2496 2.27047 28.4389 2.94273 29.449 3.75452C29.9861 4.18578 30.4848 4.65509 30.9324 5.17514C30.9963 5.25125 31.073 5.35272 31.137 5.44151C31.0474 5.54298 30.9451 5.65714 30.8428 5.75861C27.8123 2.06752 22.0325 1.446 17.9533 3.85599C18.273 3.5262 18.6183 3.2091 19.0019 2.94273L19.0147 2.95542ZM6.75174 13.3818C6.55993 11.7963 6.26582 10.16 6.50878 8.56181C6.71338 7.22998 7.36552 6.06303 8.41408 5.26393C9.42427 4.4902 10.6774 4.0843 11.9433 4.23651C12.5316 4.29994 13.107 4.47751 13.6313 4.7312C11.0227 4.8073 8.52916 6.93824 7.71078 9.50044C7.31438 10.7562 7.1865 12.1514 6.75174 13.3691V13.3818Z" fill="black"/>
<path d="M17.5313 53.4256C21.4953 55.0492 26.444 54.2247 29.807 51.6499C30.2162 51.3328 30.1395 50.6351 29.807 50.3053C29.3978 49.8994 28.8608 49.9882 28.4516 50.3053C25.6128 52.487 21.3291 52.931 18.0428 51.5991C17.5697 51.4089 16.9942 51.8148 16.8664 52.2587C16.7129 52.8041 17.0582 53.2354 17.5313 53.4256Z" fill="black"/>
</g>
<defs>
<clipPath id="clip0_802_212">
<rect width="64" height="86" fill="white"/>
</clipPath>
</defs>
</svg>
