<svg width="19" height="19" viewBox="0 0 19 19" fill="none" xmlns="http://www.w3.org/2000/svg">
<path fill-rule="evenodd" clip-rule="evenodd" d="M14.0679 9.31049C14.6938 9.31049 15.2924 9.42521 15.8434 9.63394V5.40461L0.548038 5.41052V16.8071C0.548038 16.9402 0.657301 17.0475 0.792805 17.0475H10.1105C9.49796 16.2402 9.13532 15.2393 9.13532 14.155C9.13532 13.5703 9.24072 13.0098 9.43408 12.4909H8.96992C8.8185 12.4909 8.6959 12.3703 8.6959 12.2217V10.2327C8.6959 10.0839 8.81872 9.96352 8.96992 9.96352H10.995C11.1244 9.96352 11.2331 10.0518 11.2617 10.1706C12.0583 9.62824 13.0254 9.31049 14.0679 9.31049ZM7.9659 0H8.42576C8.93035 0 9.34245 0.404786 9.34245 0.900416V1.24753H11.4462V0.900416C11.4462 0.404786 11.8583 0 12.3629 0H12.8227C13.3267 0 13.7394 0.405631 13.7394 0.900416V1.24753H15.5984C16.0344 1.24753 16.3914 1.59844 16.3914 2.02646V9.88091C17.9943 10.7232 19 12.3605 19 14.1552C19 16.8309 16.7917 19 14.0677 19C12.7083 19 11.4774 18.4598 10.5852 17.586H0.79302C0.357902 17.586 0 17.2344 0 16.8071V2.02646C0 1.59759 0.356396 1.24753 0.79302 1.24753H2.652V0.900416C2.652 0.406265 3.06561 0 3.5687 0H4.02855C4.5325 0 4.94524 0.405631 4.94524 0.900416V1.24753H7.04899V0.900416C7.04899 0.404786 7.46131 0 7.9659 0ZM9.34245 1.78625V2.24238C9.34245 2.73759 8.92949 3.14279 8.42576 3.14279H7.9659C7.46196 3.14279 7.04921 2.73695 7.04921 2.24238V1.78625H4.94546V2.24238C4.94546 2.73801 4.53336 3.14279 4.02877 3.14279H3.56891C3.06497 3.14279 2.65222 2.73716 2.65222 2.24238V1.78625H0.793235C0.659022 1.78625 0.548468 1.89506 0.548468 2.02667V4.87454L15.8438 4.86863V2.02667C15.8438 1.894 15.7341 1.78625 15.5991 1.78625H13.7401V2.24238C13.7401 2.73801 13.328 3.14279 12.8234 3.14279H12.3635C11.8596 3.14279 11.4468 2.73695 11.4468 2.24238V1.78625H9.34309H9.34245ZM8.42576 0.538517H7.9659C7.76372 0.538517 7.59746 0.701826 7.59746 0.900416V2.24217C7.59746 2.44139 7.76329 2.60406 7.9659 2.60406H8.42576C8.62837 2.60406 8.7942 2.4416 8.7942 2.24217V0.900416C8.7942 0.701826 8.62794 0.538517 8.42576 0.538517ZM12.823 0.538517H12.3631C12.1609 0.538517 11.9947 0.701826 11.9947 0.900416V2.24217C11.9947 2.44139 12.1605 2.60406 12.3631 2.60406H12.823C13.0251 2.60406 13.1914 2.44076 13.1914 2.24217V0.900416C13.1914 0.700981 13.026 0.538517 12.823 0.538517ZM4.02877 0.538517H3.56891C3.36523 0.538517 3.20047 0.700558 3.20047 0.900416V2.24217C3.20047 2.44118 3.36609 2.60406 3.56891 2.60406H4.02877C4.23095 2.60406 4.39721 2.44076 4.39721 2.24217V0.900416C4.39721 0.700981 4.23181 0.538517 4.02877 0.538517ZM12.544 6.42164H14.569C14.7204 6.42164 14.843 6.54227 14.843 6.69079V8.67986C14.843 8.8286 14.7202 8.94902 14.569 8.94902H12.544C12.3926 8.94902 12.27 8.82838 12.27 8.67986V6.69079C12.27 6.54206 12.3928 6.42164 12.544 6.42164ZM14.295 6.96016V8.41071H12.8182V6.96016H14.295ZM8.97035 6.42164H10.9954C11.1468 6.42164 11.2694 6.54227 11.2694 6.69079V8.67986C11.2694 8.8286 11.1466 8.94902 10.9954 8.94902H8.97035C8.81893 8.94902 8.69633 8.82838 8.69633 8.67986V6.69079C8.69633 6.54206 8.81915 6.42164 8.97035 6.42164ZM10.7214 6.96016V8.41071H9.24459V6.96016H10.7214ZM5.39671 6.42164H7.42174C7.57316 6.42164 7.69576 6.54227 7.69576 6.69079V8.67986C7.69576 8.8286 7.57294 8.94902 7.42174 8.94902H5.39671C5.24529 8.94902 5.12269 8.82838 5.12269 8.67986V6.69079C5.12269 6.54206 5.2455 6.42164 5.39671 6.42164ZM7.14772 6.96016V8.41071H5.67094V6.96016H7.14772ZM1.82306 6.42164H3.84809C3.99951 6.42164 4.12211 6.54227 4.12211 6.69079V8.67986C4.12211 8.8286 3.9993 8.94902 3.84809 8.94902H1.82306C1.67164 8.94902 1.54905 8.82838 1.54905 8.67986V6.69079C1.54905 6.54206 1.67186 6.42164 1.82306 6.42164ZM3.57407 6.96016V8.41071H2.0973V6.96016H3.57407ZM9.67433 11.9528H9.2448V10.5022H10.7216V10.5969C10.2946 10.9844 9.93888 11.4443 9.67433 11.9528ZM5.39692 9.96373H7.42195C7.57337 9.96373 7.69597 10.0844 7.69597 10.2329V12.222C7.69597 12.3707 7.57316 12.4911 7.42195 12.4911H5.39692C5.2455 12.4911 5.1229 12.3705 5.1229 12.222V10.2329C5.1229 10.0842 5.24572 9.96373 5.39692 9.96373ZM7.14793 10.5022V11.9528H5.67116V10.5022H7.14793ZM1.82328 9.96373H3.84831C3.99973 9.96373 4.12233 10.0844 4.12233 10.2329V12.222C4.12233 12.3707 3.99951 12.4911 3.84831 12.4911H1.82328C1.67186 12.4911 1.54926 12.3705 1.54926 12.222V10.2329C1.54926 10.0842 1.67207 9.96373 1.82328 9.96373ZM3.57429 10.5022V11.9528H2.09751V10.5022H3.57429ZM5.39714 13.5058H7.42217C7.57359 13.5058 7.69619 13.6264 7.69619 13.775V15.764C7.69619 15.9128 7.57337 16.0332 7.42217 16.0332H5.39714C5.24572 16.0332 5.12312 15.9126 5.12312 15.764V13.775C5.12312 13.6262 5.24593 13.5058 5.39714 13.5058ZM7.14815 14.0443V15.4949H5.67137V14.0443H7.14815ZM1.82349 13.5058H3.84852C3.99994 13.5058 4.12254 13.6264 4.12254 13.775V15.764C4.12254 15.9128 3.99973 16.0332 3.84852 16.0332H1.82349C1.67207 16.0332 1.54948 15.9126 1.54948 15.764V13.775C1.54948 13.6262 1.67229 13.5058 1.82349 13.5058ZM3.5745 14.0443V15.4949H2.09773V14.0443H3.5745ZM13.7947 11.406C13.7947 11.2573 13.9175 11.1369 14.0687 11.1369C14.2199 11.1369 14.3428 11.2575 14.3428 11.406V14.0445L15.4081 15.0833C15.5152 15.1879 15.5156 15.3578 15.4091 15.463C15.3027 15.5682 15.1298 15.5686 15.0226 15.464L13.8911 14.3604C13.8321 14.3109 13.7947 14.2374 13.7947 14.1555V11.406ZM16.8272 11.8074L16.9978 11.6399C17.2514 11.3896 16.8636 11.011 16.6102 11.2613L16.4396 11.4289C16.186 11.6792 16.5738 12.0578 16.8272 11.8074ZM17.7088 14.4117H17.9502C18.3107 14.4117 18.3107 13.8732 17.9502 13.8732H17.7088C17.3484 13.8732 17.3484 14.4117 17.7088 14.4117ZM16.4592 16.8647L16.6298 17.0323C16.8846 17.2811 17.2701 16.9004 17.0152 16.6516L16.8446 16.484C16.5898 16.2349 16.2043 16.6159 16.4592 16.8647ZM13.8078 17.7307V17.9678C13.8078 18.3218 14.3561 18.3218 14.3561 17.9678V17.7307C14.3561 17.3766 13.8078 17.3766 13.8078 17.7307ZM11.3105 16.5033C11.5639 16.2529 11.9514 16.6315 11.6981 16.8818L11.5275 17.0494C11.2741 17.2997 10.8865 16.9211 11.1399 16.6708L11.3105 16.5033ZM10.4288 13.899C10.7893 13.899 10.7893 14.4375 10.4288 14.4375H10.1875C9.82704 14.4375 9.82704 13.899 10.1875 13.899H10.4288ZM11.6785 11.446C11.9334 11.6948 11.5479 12.0755 11.2931 11.8267L11.1225 11.6591C10.8676 11.4103 11.2531 11.0296 11.5079 11.2784L11.6785 11.446ZM14.3299 10.58C14.3299 10.9341 13.7816 10.9341 13.7816 10.58V10.343C13.7816 9.98887 14.3299 9.98887 14.3299 10.343V10.58ZM14.069 9.84901C16.4904 9.84901 18.453 11.7768 18.453 14.1552C18.453 16.5337 16.4904 18.4615 14.069 18.4615C12.8582 18.4615 11.7622 17.9794 10.9689 17.2002C10.1757 16.4211 9.68487 15.3445 9.68487 14.1552C9.68487 11.7768 11.6477 9.84901 14.069 9.84901Z" fill="black"/>
</svg>
